<svg width="105" height="98" viewBox="0 0 105 98" fill="none" xmlns="http://www.w3.org/2000/svg">
<path d="M69.8157 95.4083V96.8942C69.8157 96.9383 69.807 96.9819 69.7901 97.0225C69.7733 97.0632 69.7486 97.1002 69.7175 97.1313C69.6863 97.1625 69.6494 97.1872 69.6087 97.204C69.568 97.2209 69.5244 97.2295 69.4804 97.2295H27.5007C27.1427 97.2296 26.7901 97.1418 26.4739 96.9739C26.1576 96.806 25.8874 96.5631 25.6868 96.2666C25.4862 95.97 25.3614 95.6287 25.3233 95.2727C25.2853 94.9167 25.3351 94.5568 25.4684 94.2245L38.7718 61.2766L60.2707 61.4214L59.5381 65.6972L54.7945 93.3677C54.7591 93.5774 54.7697 93.7924 54.8257 93.9976C54.8817 94.2028 54.9817 94.3934 55.1188 94.556C55.2559 94.7187 55.4267 94.8496 55.6195 94.9396C55.8122 95.0296 56.0223 95.0765 56.235 95.0771H69.4804C69.5242 95.0766 69.5677 95.0848 69.6084 95.1012C69.649 95.1175 69.686 95.1419 69.7172 95.1727C69.7484 95.2035 69.7732 95.2402 69.7901 95.2806C69.807 95.321 69.8157 95.3644 69.8157 95.4083Z" fill="#263238"/>
<path opacity="0.5" d="M69.8157 95.4083V96.8942C69.8157 96.9383 69.807 96.9819 69.7901 97.0225C69.7733 97.0632 69.7486 97.1002 69.7175 97.1313C69.6863 97.1625 69.6494 97.1872 69.6087 97.204C69.568 97.2209 69.5244 97.2295 69.4804 97.2295H27.5007C27.1427 97.2296 26.7901 97.1418 26.4739 96.9739C26.1576 96.806 25.8874 96.5631 25.6868 96.2666C25.4862 95.97 25.3614 95.6287 25.3233 95.2727C25.2853 94.9167 25.3351 94.5568 25.4684 94.2245L33.7178 73.7976L38.7718 61.2766L60.2707 61.4214L59.5381 65.6972L57.4685 77.7298L54.7904 93.3677C54.755 93.5774 54.7656 93.7924 54.8216 93.9976C54.8776 94.2028 54.9776 94.3934 55.1147 94.556C55.2517 94.7187 55.4226 94.8496 55.6153 94.9396C55.8081 95.0296 56.0181 95.0765 56.2308 95.0771H69.4762C69.5204 95.076 69.5644 95.0838 69.6055 95.0999C69.6466 95.1161 69.6841 95.1403 69.7158 95.1712C69.7474 95.202 69.7725 95.2389 69.7897 95.2796C69.8068 95.3203 69.8157 95.3641 69.8157 95.4083Z" fill="white"/>
<path opacity="0.2" d="M56.235 95.073H28.9164C28.759 95.0726 28.6042 95.0334 28.4654 94.9591C28.3267 94.8847 28.2084 94.7774 28.1209 94.6465C28.0334 94.5157 27.9794 94.3654 27.9637 94.2088C27.9479 94.0522 27.9709 93.8941 28.0306 93.7485L39.6949 65.6931H59.534L54.7905 93.3635C54.755 93.5736 54.7657 93.7889 54.8219 93.9944C54.8782 94.2 54.9785 94.3907 55.1161 94.5535C55.2536 94.7162 55.425 94.847 55.6182 94.9367C55.8115 95.0265 56.022 95.073 56.235 95.073Z" fill="black"/>
<path opacity="0.1" d="M60.2707 61.4173L59.538 65.6931L57.4726 77.7257L33.7178 73.7976L38.7717 61.2725L60.2707 61.4173Z" fill="black"/>
<path d="M102.072 0H2.5456C2.21131 0 1.88029 0.0658434 1.57144 0.193772C1.26259 0.3217 0.981969 0.509211 0.745589 0.745592C0.509208 0.981973 0.3217 1.26259 0.193772 1.57144C0.0658434 1.88029 0 2.2113 0 2.5456V69.9274C0 70.6026 0.268196 71.25 0.745589 71.7274C1.22298 72.2048 1.87047 72.473 2.5456 72.473H102.072C102.748 72.473 103.396 72.205 103.874 71.7277C104.352 71.2504 104.621 70.6029 104.622 69.9274V2.5456C104.621 1.87008 104.352 1.22261 103.874 0.745339C103.396 0.268065 102.748 -8.9011e-07 102.072 0Z" fill="#263238"/>
<path opacity="0.6" d="M102.072 0H2.5456C2.21131 0 1.88029 0.0658434 1.57144 0.193772C1.26259 0.3217 0.981969 0.509211 0.745589 0.745592C0.509208 0.981973 0.3217 1.26259 0.193772 1.57144C0.0658434 1.88029 0 2.2113 0 2.5456V69.9274C0 70.6026 0.268196 71.25 0.745589 71.7274C1.22298 72.2048 1.87047 72.473 2.5456 72.473H102.072C102.748 72.473 103.396 72.205 103.874 71.7277C104.352 71.2504 104.621 70.6029 104.622 69.9274V2.5456C104.621 1.87008 104.352 1.22261 103.874 0.745339C103.396 0.268065 102.748 -8.9011e-07 102.072 0Z" fill="white"/>
<path opacity="0.2" d="M4.65659 72.4689H2.5456C1.87119 72.4689 1.22433 72.2013 0.747054 71.7248C0.26978 71.2483 0.00109998 70.6019 3.36543e-06 69.9274V2.54977C-0.000540767 2.21513 0.064903 1.88366 0.192588 1.57434C0.320272 1.26501 0.507692 0.9839 0.744127 0.747081C0.980562 0.510261 1.26137 0.322387 1.57049 0.1942C1.8796 0.0660128 2.21096 2.98637e-05 2.5456 3.03061e-05H4.65659C4.3209 -0.00160765 3.98821 0.0631649 3.67766 0.190619C3.3671 0.318073 3.08483 0.50569 2.84708 0.742672C2.60933 0.979655 2.42079 1.26133 2.29233 1.57146C2.16387 1.8816 2.09802 2.21408 2.09857 2.54977V69.9274C2.09856 70.2626 2.16484 70.5944 2.2936 70.9039C2.42235 71.2133 2.61104 71.4942 2.84879 71.7304C3.08655 71.9666 3.36867 72.1535 3.67893 72.2802C3.98919 72.407 4.32145 72.4711 4.65659 72.4689Z" fill="black"/>
<path d="M102.329 2.18976H4.40833V67.1626H102.329V2.18976Z" fill="#FF5050"/>
<path opacity="0.4" d="M52.0172 26.9211C56.7126 26.9211 60.519 23.1147 60.519 18.4192C60.519 13.7238 56.7126 9.91736 52.0172 9.91736C47.3217 9.91736 43.5153 13.7238 43.5153 18.4192C43.5153 23.1147 47.3217 26.9211 52.0172 26.9211Z" fill="white"/>
<path d="M49.9889 17.1281V16.3499C49.9889 15.9789 50.1363 15.623 50.3987 15.3606C50.6611 15.0983 51.0169 14.9509 51.388 14.9509H52.6297C52.8148 14.9487 52.9985 14.9832 53.1702 15.0526C53.3419 15.1219 53.498 15.2246 53.6297 15.3547C53.7614 15.4849 53.8659 15.6398 53.9373 15.8107C54.0086 15.9815 54.0453 16.1648 54.0453 16.3499V17.1446H54.9518V16.3499C54.9507 15.7388 54.7075 15.153 54.2753 14.7209C53.8432 14.2887 53.2574 14.0455 52.6463 14.0444H51.4045C50.7934 14.0455 50.2076 14.2887 49.7755 14.7209C49.3433 15.153 49.1001 15.7388 49.099 16.3499V17.1446L49.9889 17.1281Z" fill="white"/>
<path d="M47.9401 18.1751V22.3516C47.9401 22.4125 47.9521 22.4727 47.9754 22.529C47.9986 22.5852 48.0328 22.6363 48.0758 22.6794C48.1189 22.7224 48.17 22.7566 48.2262 22.7799C48.2825 22.8032 48.3428 22.8152 48.4037 22.8152H55.6307C55.6916 22.8152 55.7518 22.8032 55.8081 22.7799C55.8643 22.7566 55.9154 22.7224 55.9585 22.6794C56.0015 22.6363 56.0357 22.5852 56.059 22.529C56.0823 22.4727 56.0943 22.4125 56.0943 22.3516V18.1751C56.0943 18.0522 56.0454 17.9343 55.9585 17.8473C55.8715 17.7604 55.7536 17.7115 55.6307 17.7115H48.4037C48.3428 17.7115 48.2825 17.7235 48.2262 17.7468C48.17 17.7701 48.1189 17.8043 48.0758 17.8473C48.0328 17.8904 47.9986 17.9415 47.9754 17.9977C47.9521 18.054 47.9401 18.1143 47.9401 18.1751ZM52.2779 20.5386V21.3665H51.7688V20.5386C51.6944 20.4972 51.6317 20.4374 51.5868 20.365C51.5419 20.2925 51.5162 20.2098 51.5122 20.1247C51.5122 19.9875 51.5667 19.8559 51.6637 19.7588C51.7608 19.6618 51.8924 19.6073 52.0296 19.6073C52.1668 19.6073 52.2984 19.6618 52.3954 19.7588C52.4925 19.8559 52.547 19.9875 52.547 20.1247C52.5417 20.2111 52.5141 20.2946 52.467 20.3671C52.4198 20.4396 52.3547 20.4987 52.2779 20.5386Z" fill="white"/>
<path d="M31.2757 33.9622H23.2457C22.7679 33.9622 22.3806 34.3495 22.3806 34.8273V42.8573C22.3806 43.3351 22.7679 43.7224 23.2457 43.7224H31.2757C31.7535 43.7224 32.1408 43.3351 32.1408 42.8573V34.8273C32.1408 34.3495 31.7535 33.9622 31.2757 33.9622Z" fill="white"/>
<path d="M43.656 33.9498H35.626C35.1482 33.9498 34.7609 34.3371 34.7609 34.8149V42.8449C34.7609 43.3227 35.1482 43.71 35.626 43.71H43.656C44.1337 43.71 44.5211 43.3227 44.5211 42.8449V34.8149C44.5211 34.3371 44.1337 33.9498 43.656 33.9498Z" fill="white"/>
<path d="M56.0322 33.9374H48.0022C47.5244 33.9374 47.1371 34.3247 47.1371 34.8025V42.8325C47.1371 43.3103 47.5244 43.6976 48.0022 43.6976H56.0322C56.51 43.6976 56.8973 43.3103 56.8973 42.8325V34.8025C56.8973 34.3247 56.51 33.9374 56.0322 33.9374Z" fill="white"/>
<path d="M68.4083 33.9207H60.3783C59.9005 33.9207 59.5132 34.308 59.5132 34.7858V42.8158C59.5132 43.2936 59.9005 43.6809 60.3783 43.6809H68.4083C68.8861 43.6809 69.2734 43.2936 69.2734 42.8158V34.7858C69.2734 34.308 68.8861 33.9207 68.4083 33.9207Z" fill="white"/>
<path d="M80.7845 33.9083H72.7545C72.2767 33.9083 71.8894 34.2956 71.8894 34.7734V42.8034C71.8894 43.2812 72.2767 43.6685 72.7545 43.6685H80.7845C81.2623 43.6685 81.6496 43.2812 81.6496 42.8034V34.7734C81.6496 34.2956 81.2623 33.9083 80.7845 33.9083Z" fill="white"/>
<path d="M74.6213 38.9788C74.6213 37.261 75.5402 36.2842 76.7737 36.2842C78.0072 36.2842 78.922 37.261 78.922 38.9788C78.922 40.6966 78.0031 41.6734 76.7737 41.6734C75.5444 41.6734 74.6213 40.6966 74.6213 38.9788ZM78.1686 38.9788C78.1686 37.6294 77.5933 36.9547 76.7737 36.9547C75.9542 36.9547 75.3747 37.6294 75.3747 38.9788C75.3747 40.3282 75.9459 41.0028 76.7737 41.0028C77.6016 41.0028 78.1686 40.324 78.1686 38.9788Z" fill="#263238"/>
<path d="M29.2226 38.9127C29.2226 40.7091 28.2043 41.6735 26.7391 41.6735C26.2817 41.6899 25.8285 41.5826 25.4269 41.3631L25.6918 40.7712C25.9993 40.9489 26.3512 41.0351 26.7059 41.0195C27.7739 41.0195 28.4527 40.349 28.4527 39.0286V38.8423C28.2761 39.0735 28.0448 39.2573 27.7797 39.3773C27.5146 39.4972 27.2239 39.5495 26.9336 39.5294C25.8864 39.5294 25.1331 38.9044 25.1331 37.9358C25.1331 36.9673 25.9609 36.2802 26.9916 36.2802C28.4237 36.2843 29.2226 37.2322 29.2226 38.9127ZM28.2954 37.911C28.2954 37.3688 27.8815 36.8928 27.0536 36.8928C26.9087 36.8752 26.7618 36.8886 26.6224 36.9319C26.483 36.9752 26.3544 37.0475 26.2449 37.1441C26.1354 37.2406 26.0477 37.3592 25.9873 37.4921C25.9269 37.625 25.8954 37.7692 25.8947 37.9151C25.8947 38.536 26.3541 38.9334 27.095 38.9334C27.8359 38.9334 28.2954 38.4905 28.2954 37.911Z" fill="#263238"/>
<path d="M37.4885 38.9788C37.4885 37.261 38.4074 36.2842 39.6409 36.2842C40.8744 36.2842 41.7891 37.261 41.7891 38.9788C41.7891 40.6966 40.8702 41.6734 39.6409 41.6734C38.4116 41.6734 37.4885 40.6966 37.4885 38.9788ZM41.0358 38.9788C41.0358 37.6294 40.4646 36.9547 39.6409 36.9547C38.8172 36.9547 38.2419 37.6294 38.2419 38.9788C38.2419 40.3282 38.8131 41.0028 39.6409 41.0028C40.4687 41.0028 41.0358 40.3282 41.0358 38.9788Z" fill="#263238"/>
<path d="M53.9212 40.9573V41.5988H50.1338V41.1021L52.2779 39.0325C52.8367 38.4903 52.9402 38.1592 52.9402 37.828C52.9402 37.2858 52.5594 36.9547 51.8185 36.9547C51.5655 36.9406 51.3126 36.9848 51.0794 37.0838C50.8462 37.1828 50.6388 37.3341 50.4732 37.5259L49.96 37.083C50.2021 36.8151 50.5008 36.6044 50.8344 36.4662C51.168 36.3281 51.5282 36.2659 51.8888 36.2841C52.9857 36.2841 53.6935 36.8471 53.6935 37.7494C53.6935 38.2627 53.5445 38.7221 52.8284 39.4051L51.2183 40.9531L53.9212 40.9573Z" fill="#263238"/>
<path d="M65.0143 36.342V41.5988H64.2692V37.0002H63.0771V36.342H65.0143Z" fill="#263238"/>
<g opacity="0.6">
<path d="M42.7578 31.5777V31.764H41.3215V29.7316H42.7123V29.9179H41.5368V30.6422H42.584V30.8368H41.5368V31.5901L42.7578 31.5777Z" fill="white"/>
<path d="M44.6206 30.8783V31.7641H44.4136V30.899C44.4259 30.8348 44.4229 30.7685 44.4046 30.7056C44.3863 30.6428 44.3534 30.5852 44.3086 30.5375C44.2638 30.4899 44.2083 30.4535 44.1467 30.4314C44.0851 30.4094 44.0191 30.4022 43.9542 30.4106C43.8813 30.4054 43.8081 30.4162 43.7399 30.4423C43.6716 30.4683 43.6098 30.509 43.559 30.5615C43.5081 30.6139 43.4693 30.6769 43.4453 30.7459C43.4214 30.815 43.4128 30.8884 43.4202 30.9611V31.7641H43.2174V30.2368H43.4119V30.5182C43.4741 30.4229 43.5606 30.3458 43.6624 30.2948C43.7643 30.2439 43.8778 30.221 43.9914 30.2285C44.0777 30.2211 44.1645 30.2331 44.2456 30.2634C44.3267 30.2938 44.4001 30.3418 44.4603 30.404C44.5205 30.4663 44.5662 30.5411 44.5939 30.6231C44.6216 30.7052 44.6307 30.7923 44.6206 30.8783Z" fill="white"/>
<path d="M45.974 31.6647C45.8829 31.7385 45.7682 31.7767 45.6511 31.7723C45.5915 31.7773 45.5316 31.7692 45.4754 31.7488C45.4192 31.7283 45.3681 31.696 45.3256 31.6539C45.2831 31.6118 45.2502 31.561 45.2293 31.505C45.2083 31.449 45.1997 31.3891 45.2041 31.3294V30.423H44.9309V30.2491H45.2041V29.918H45.4111V30.2491H45.8746V30.423H45.4111V31.3336C45.4111 31.5157 45.5021 31.6109 45.6718 31.6109C45.7541 31.6135 45.8346 31.5871 45.8995 31.5364L45.974 31.6647Z" fill="white"/>
<path d="M47.6296 31.0646H46.3547C46.3643 31.2144 46.4329 31.3542 46.5454 31.4536C46.6579 31.5529 46.8051 31.6035 46.9549 31.5945C47.0426 31.5973 47.1299 31.581 47.2107 31.5467C47.2915 31.5124 47.3638 31.4609 47.4227 31.3958L47.5386 31.5282C47.4256 31.6342 47.2853 31.7064 47.1334 31.7366C46.9815 31.7668 46.8241 31.7538 46.6793 31.699C46.5344 31.6443 46.4078 31.55 46.3138 31.4269C46.2199 31.3038 46.1624 31.1567 46.1478 31.0026C46.1421 30.9019 46.1572 30.8011 46.1922 30.7065C46.2273 30.6119 46.2815 30.5256 46.3514 30.453C46.4213 30.3803 46.5055 30.3229 46.5987 30.2842C46.6919 30.2456 46.792 30.2267 46.8928 30.2285C46.9933 30.2266 47.0931 30.2455 47.1859 30.2843C47.2787 30.323 47.3623 30.3805 47.4316 30.4533C47.5009 30.5261 47.5543 30.6126 47.5884 30.7071C47.6225 30.8017 47.6365 30.9023 47.6296 31.0026C47.6296 31.0026 47.6296 31.0398 47.6296 31.0646ZM46.3547 30.9115H47.4351C47.4232 30.7764 47.3612 30.6506 47.2612 30.559C47.1612 30.4674 47.0305 30.4166 46.8949 30.4166C46.7593 30.4166 46.6286 30.4674 46.5286 30.559C46.4286 30.6506 46.3666 30.7764 46.3547 30.9115Z" fill="white"/>
<path d="M48.8176 30.2285V30.4231H48.7679C48.6952 30.4192 48.6225 30.4316 48.555 30.4593C48.4876 30.4869 48.4272 30.5292 48.3781 30.5831C48.329 30.6369 48.2925 30.701 48.2711 30.7707C48.2498 30.8403 48.2442 30.9139 48.2547 30.986V31.7642H48.0436V30.2368H48.2423V30.5348C48.2955 30.4312 48.3791 30.3463 48.482 30.2916C48.5848 30.2368 48.7019 30.2148 48.8176 30.2285Z" fill="white"/>
<path d="M51.2515 30.2367L50.4899 31.9462C50.3616 32.2442 50.2002 32.3394 49.9808 32.3394C49.9131 32.3419 49.8456 32.3307 49.7823 32.3065C49.719 32.2823 49.6613 32.2456 49.6124 32.1987L49.7076 32.0455C49.743 32.0835 49.786 32.1134 49.8338 32.1334C49.8816 32.1534 49.9331 32.1629 49.985 32.1614C50.1216 32.1614 50.2126 32.0993 50.2995 31.9089L50.3658 31.7599L49.6994 30.2367H49.9146L50.4858 31.5323L51.0611 30.2367H51.2515Z" fill="white"/>
<path d="M51.355 31.0023C51.3542 30.8483 51.3992 30.6974 51.4842 30.5689C51.5692 30.4404 51.6904 30.34 51.8325 30.2805C51.9747 30.2209 52.1313 30.2049 52.2825 30.2345C52.4337 30.264 52.5727 30.3378 52.682 30.4465C52.7912 30.5552 52.8657 30.6938 52.8961 30.8449C52.9265 30.9959 52.9113 31.1526 52.8525 31.295C52.7938 31.4375 52.694 31.5592 52.566 31.6449C52.4379 31.7306 52.2873 31.7764 52.1332 31.7764C52.0303 31.7804 51.9276 31.7632 51.8317 31.7258C51.7357 31.6884 51.6485 31.6316 51.5755 31.5589C51.5024 31.4863 51.4452 31.3994 51.4072 31.3036C51.3693 31.2078 51.3516 31.1053 51.355 31.0023ZM52.6961 31.0023C52.6913 30.8912 52.6538 30.7839 52.5884 30.6939C52.523 30.6039 52.4326 30.5351 52.3284 30.4961C52.2243 30.4571 52.1109 30.4496 52.0025 30.4746C51.8941 30.4995 51.7954 30.5558 51.7187 30.6364C51.642 30.717 51.5908 30.8184 51.5713 30.9279C51.5518 31.0375 51.565 31.1503 51.6092 31.2524C51.6534 31.3545 51.7266 31.4413 51.8198 31.5021C51.913 31.5629 52.022 31.5949 52.1332 31.5942C52.2089 31.5938 52.2838 31.578 52.3531 31.5475C52.4225 31.5171 52.4849 31.4728 52.5365 31.4173C52.588 31.3619 52.6277 31.2965 52.653 31.2251C52.6784 31.1537 52.6888 31.0779 52.6837 31.0023H52.6961Z" fill="white"/>
<path d="M54.687 30.2367V31.764H54.4924V31.4826C54.4357 31.5767 54.3546 31.6537 54.2577 31.7055C54.1608 31.7572 54.0517 31.7817 53.9419 31.7765C53.8544 31.7851 53.7661 31.7741 53.6835 31.7441C53.6009 31.7141 53.526 31.6659 53.4645 31.6032C53.4029 31.5404 53.3562 31.4647 53.3278 31.3815C53.2994 31.2983 53.29 31.2098 53.3003 31.1225V30.2367H53.5032V31.1018C53.4908 31.1661 53.4939 31.2323 53.5122 31.2952C53.5305 31.358 53.5634 31.4156 53.6082 31.4633C53.653 31.511 53.7085 31.5473 53.7701 31.5694C53.8317 31.5914 53.8977 31.5986 53.9626 31.5902C54.0345 31.5944 54.1065 31.5827 54.1734 31.556C54.2403 31.5293 54.3005 31.4883 54.3499 31.4358C54.3992 31.3833 54.4364 31.3206 54.4589 31.2522C54.4814 31.1838 54.4886 31.1112 54.48 31.0397V30.2367H54.687Z" fill="white"/>
<path d="M56.0323 30.2286V30.4231H55.9827C55.9099 30.4193 55.8372 30.4316 55.7698 30.4593C55.7024 30.487 55.6419 30.5293 55.5928 30.5831C55.5437 30.637 55.5072 30.701 55.4859 30.7707C55.4645 30.8404 55.4589 30.9139 55.4694 30.986V31.7642H55.2625V30.2368H55.4611V30.5349C55.5141 30.4319 55.5971 30.3475 55.6991 30.2928C55.8011 30.2381 55.9173 30.2157 56.0323 30.2286Z" fill="white"/>
<path d="M57.0463 30.7501C57.0389 30.5374 57.0951 30.3274 57.2079 30.147C57.3206 29.9665 57.4847 29.8239 57.6791 29.7373C57.8734 29.6507 58.0892 29.6242 58.2988 29.6611C58.5083 29.698 58.7021 29.7966 58.8552 29.9444C59.0083 30.0922 59.1137 30.2823 59.1581 30.4904C59.2024 30.6985 59.1835 30.9151 59.1039 31.1124C59.0243 31.3097 58.8875 31.4788 58.7112 31.5978C58.5349 31.7169 58.327 31.7806 58.1142 31.7807C57.9756 31.7863 57.8373 31.7638 57.7077 31.7144C57.578 31.6651 57.4598 31.59 57.36 31.4937C57.2601 31.3973 57.1809 31.2818 57.127 31.154C57.0731 31.0262 57.0456 30.8888 57.0463 30.7501ZM58.9627 30.7501C58.9677 30.5794 58.9212 30.4112 58.8294 30.2672C58.7377 30.1233 58.6048 30.0102 58.448 29.9426C58.2912 29.875 58.1178 29.856 57.9501 29.8881C57.7824 29.9202 57.6282 30.0019 57.5075 30.1226C57.3868 30.2434 57.3051 30.3976 57.273 30.5652C57.2409 30.7329 57.2598 30.9064 57.3274 31.0632C57.395 31.2199 57.5081 31.3528 57.6521 31.4446C57.7961 31.5364 57.9643 31.5828 58.1349 31.5779C58.3545 31.5779 58.565 31.4907 58.7203 31.3354C58.8755 31.1802 58.9627 30.9696 58.9627 30.7501Z" fill="white"/>
<path d="M60.0222 29.9179H59.3103V29.7316H60.966V29.9179H60.2499V31.764H60.0347L60.0222 29.9179Z" fill="white"/>
<path d="M62.8827 30.423C62.8827 30.837 62.5681 31.1143 62.0548 31.1143H61.5126V31.7559H61.2891V29.7235H62.0465C62.5681 29.7318 62.8827 30.0091 62.8827 30.423ZM62.6674 30.423C62.6674 30.096 62.4522 29.9098 62.0465 29.9098H61.5084V30.9239H62.0465C62.4522 30.9322 62.6674 30.75 62.6674 30.423Z" fill="white"/>
</g>
<g opacity="0.6">
<path d="M43.9666 49.0038L44.0493 48.8424C44.2351 49.0037 44.4739 49.0906 44.7199 49.0866C45.0966 49.0866 45.2621 48.9293 45.2621 48.7265C45.2621 48.1718 44.0204 48.5112 44.0204 47.762C44.0204 47.464 44.2522 47.2074 44.7654 47.2074C44.988 47.2044 45.2066 47.2662 45.3946 47.3854L45.3242 47.5551C45.1572 47.4485 44.9635 47.3912 44.7654 47.3895C44.397 47.3895 44.2315 47.5551 44.2315 47.7579C44.2315 48.3125 45.4732 47.9773 45.4732 48.714C45.4732 49.0162 45.2373 49.2687 44.7199 49.2687C44.4443 49.279 44.175 49.1843 43.9666 49.0038Z" fill="white"/>
<path d="M47.2158 48.5525H45.9409C45.9505 48.7023 46.0191 48.8421 46.1316 48.9414C46.2441 49.0407 46.3913 49.0914 46.5411 49.0823C46.6288 49.0852 46.7161 49.0689 46.7969 49.0346C46.8777 49.0002 46.95 48.9488 47.0088 48.8837L47.1247 49.0161C47.0519 49.0994 46.9612 49.1654 46.8595 49.2091C46.7578 49.2528 46.6476 49.2731 46.537 49.2686C46.432 49.275 46.3268 49.2594 46.2282 49.2229C46.1295 49.1864 46.0395 49.1297 45.964 49.0565C45.8884 48.9833 45.829 48.8951 45.7894 48.7977C45.7498 48.7002 45.7309 48.5956 45.734 48.4904C45.7289 48.3899 45.7444 48.2894 45.7797 48.1951C45.815 48.1008 45.8692 48.0147 45.939 47.9422C46.0088 47.8697 46.0927 47.8122 46.1856 47.7734C46.2785 47.7345 46.3784 47.7152 46.479 47.7164C46.5799 47.7139 46.6801 47.7324 46.7734 47.7709C46.8666 47.8093 46.9508 47.8668 47.0206 47.9397C47.0903 48.0125 47.1441 48.0992 47.1784 48.194C47.2127 48.2888 47.2269 48.3898 47.2199 48.4904C47.2199 48.4904 47.2158 48.5318 47.2158 48.5525ZM45.9409 48.3994H47.0213C47.0094 48.2643 46.9474 48.1385 46.8474 48.0469C46.7474 47.9553 46.6167 47.9045 46.4811 47.9045C46.3455 47.9045 46.2148 47.9553 46.1148 48.0469C46.0148 48.1385 45.9528 48.2643 45.9409 48.3994Z" fill="white"/>
<path d="M49.0494 48.3664V49.2522H48.8466V48.3871C48.8581 48.3231 48.8545 48.2574 48.8359 48.1951C48.8173 48.1328 48.7843 48.0757 48.7395 48.0286C48.6948 47.9814 48.6396 47.9455 48.5783 47.9236C48.5171 47.9018 48.4516 47.8947 48.3871 47.9028C48.3142 47.8976 48.2411 47.9084 48.1728 47.9345C48.1045 47.9606 48.0428 48.0012 47.9919 48.0537C47.941 48.1062 47.9022 48.1691 47.8783 48.2382C47.8543 48.3072 47.8457 48.3806 47.8532 48.4533V49.2522H47.6296V47.729H47.8283V48.0104C47.89 47.9143 47.9762 47.8364 48.0781 47.7847C48.18 47.7331 48.2938 47.7095 48.4078 47.7166C48.4951 47.7072 48.5833 47.7177 48.666 47.7472C48.7486 47.7767 48.8236 47.8244 48.8852 47.8868C48.9469 47.9493 48.9937 48.0249 49.0221 48.1079C49.0505 48.1909 49.0598 48.2793 49.0494 48.3664Z" fill="white"/>
<path d="M51.0073 47.0998V49.2522H50.8086V48.95C50.748 49.0508 50.6616 49.1335 50.5582 49.1896C50.4548 49.2456 50.3383 49.2729 50.2208 49.2687C50.0248 49.2544 49.8414 49.1664 49.7076 49.0224C49.5738 48.8785 49.4994 48.6892 49.4994 48.4926C49.4994 48.2961 49.5738 48.1068 49.7076 47.9628C49.8414 47.8188 50.0248 47.7309 50.2208 47.7165C50.3353 47.7125 50.4489 47.7382 50.5504 47.7912C50.652 47.8441 50.7381 47.9225 50.8003 48.0187V47.0998H51.0073ZM50.8045 48.4906C50.7996 48.3796 50.7623 48.2725 50.6971 48.1826C50.6319 48.0926 50.5417 48.0238 50.4377 47.9847C50.3338 47.9456 50.2206 47.9378 50.1123 47.9624C50.004 47.987 49.9053 48.0429 49.8285 48.1231C49.7516 48.2033 49.7 48.3043 49.6801 48.4136C49.6601 48.5228 49.6727 48.6356 49.7163 48.7377C49.7598 48.8399 49.8324 48.9271 49.9251 48.9883C50.0177 49.0496 50.1263 49.0823 50.2374 49.0825C50.3143 49.0837 50.3907 49.0691 50.4617 49.0395C50.5328 49.0099 50.5969 48.9659 50.6502 48.9103C50.7034 48.8548 50.7446 48.7888 50.7711 48.7165C50.7977 48.6443 50.809 48.5674 50.8045 48.4906Z" fill="white"/>
<path d="M53.4908 48.3085V49.2523H53.2921V49.0164C53.2346 49.1011 53.1557 49.1692 53.0634 49.2135C52.971 49.2579 52.8686 49.277 52.7664 49.2688C52.4229 49.2688 52.2118 49.0867 52.2118 48.8218C52.2118 48.5569 52.3608 48.4079 52.7996 48.4079H53.2838V48.3168C53.2897 48.261 53.283 48.2046 53.2643 48.1518C53.2455 48.0989 53.2152 48.0508 53.1756 48.0112C53.1359 47.9715 53.0879 47.9412 53.035 47.9225C52.9821 47.9037 52.9257 47.8971 52.8699 47.9029C52.6838 47.9001 52.5029 47.9648 52.3608 48.085L52.2697 47.9319C52.4445 47.7923 52.6629 47.719 52.8865 47.7249C52.9663 47.7154 53.0473 47.7238 53.1235 47.7495C53.1997 47.7752 53.2693 47.8175 53.3271 47.8733C53.385 47.9292 53.4297 47.9972 53.458 48.0725C53.4863 48.1478 53.4975 48.2284 53.4908 48.3085ZM53.2838 48.7928V48.5445H52.8037C52.5098 48.5445 52.4146 48.6604 52.4146 48.8177C52.4146 48.975 52.5553 49.1033 52.7996 49.1033C52.9029 49.1101 53.0056 49.0836 53.0928 49.0277C53.1799 48.9719 53.2469 48.8895 53.2838 48.7928Z" fill="white"/>
<path d="M55.4651 47.729V49.0494C55.4814 49.1531 55.4729 49.2592 55.4404 49.359C55.4079 49.4589 55.3522 49.5496 55.278 49.6239C55.2037 49.6981 55.113 49.7538 55.0132 49.7863C54.9133 49.8188 54.8072 49.8273 54.7035 49.811C54.4461 49.8211 54.1937 49.7389 53.9916 49.5792L54.095 49.4219C54.2647 49.5591 54.4771 49.6323 54.6952 49.6289C55.0843 49.6289 55.2581 49.455 55.2581 49.0784V48.8838C55.1927 48.9792 55.104 49.0562 55.0004 49.1076C54.8968 49.1591 54.7818 49.1832 54.6662 49.1777C54.5646 49.1853 54.4624 49.1719 54.3662 49.1382C54.2699 49.1045 54.1817 49.0513 54.1069 48.982C54.0322 48.9126 53.9726 48.8286 53.9318 48.7351C53.891 48.6417 53.87 48.5408 53.87 48.4389C53.87 48.3369 53.891 48.236 53.9318 48.1426C53.9726 48.0491 54.0322 47.9651 54.1069 47.8957C54.1817 47.8264 54.2699 47.7732 54.3662 47.7395C54.4624 47.7059 54.5646 47.6924 54.6662 47.7C54.7838 47.6944 54.9009 47.7192 55.0061 47.7722C55.1112 47.8251 55.2009 47.9043 55.2664 48.0022V47.7124L55.4651 47.729ZM55.2664 48.4533C55.2706 48.3379 55.2401 48.2239 55.179 48.1259C55.1179 48.028 55.0289 47.9505 54.9234 47.9034C54.818 47.8564 54.7009 47.8419 54.5871 47.8619C54.4734 47.8818 54.3682 47.9354 54.2851 48.0155C54.2019 48.0957 54.1447 48.1988 54.1206 48.3118C54.0965 48.4247 54.1067 48.5423 54.1499 48.6494C54.1931 48.7565 54.2673 48.8482 54.363 48.9128C54.4586 48.9775 54.5715 49.0121 54.6869 49.0121C54.7625 49.0167 54.8382 49.0056 54.9092 48.9794C54.9802 48.9533 55.045 48.9126 55.0995 48.8601C55.154 48.8075 55.1969 48.7443 55.2257 48.6742C55.2544 48.6042 55.2683 48.529 55.2664 48.4533Z" fill="white"/>
<path d="M57.1912 48.3086V49.2523H56.9967V49.0164C56.9389 49.1008 56.8599 49.1686 56.7677 49.213C56.6754 49.2573 56.5731 49.2766 56.471 49.2688C56.1233 49.2688 55.9122 49.0867 55.9122 48.8218C55.9122 48.5569 56.0654 48.4079 56.5041 48.4079H56.9843V48.3168C56.9843 48.0561 56.8394 47.9029 56.5704 47.9029C56.3856 47.9007 56.2062 47.9654 56.0654 48.085L55.9702 47.9319C56.1465 47.7923 56.3662 47.7191 56.5911 47.7249C56.6706 47.7161 56.7511 47.725 56.8268 47.751C56.9025 47.7769 56.9715 47.8193 57.0289 47.8751C57.0862 47.9309 57.1306 47.9987 57.1586 48.0736C57.1867 48.1486 57.1978 48.2288 57.1912 48.3086ZM56.9843 48.7928V48.5445H56.5083C56.2103 48.5445 56.1151 48.6604 56.1151 48.8177C56.1151 48.975 56.2599 49.1033 56.5041 49.1033C56.607 49.1105 56.7094 49.0842 56.796 49.0282C56.8826 48.9722 56.9487 48.8896 56.9843 48.7928Z" fill="white"/>
<path d="M57.7045 47.2448C57.7104 47.209 57.7289 47.1765 57.7565 47.153C57.7842 47.1296 57.8193 47.1167 57.8556 47.1167C57.8918 47.1167 57.9269 47.1296 57.9546 47.153C57.9822 47.1765 58.0007 47.209 58.0066 47.2448C58.0007 47.2805 57.9822 47.313 57.9546 47.3365C57.9269 47.3599 57.8918 47.3728 57.8556 47.3728C57.8193 47.3728 57.7842 47.3599 57.7565 47.3365C57.7289 47.313 57.7104 47.2805 57.7045 47.2448ZM57.75 47.729H57.957V49.2523H57.75V47.729Z" fill="white"/>
<path d="M59.9314 48.3665V49.2522H59.7286V48.3872C59.7401 48.3232 59.7365 48.2574 59.7179 48.1951C59.6993 48.1328 59.6663 48.0758 59.6215 48.0286C59.5768 47.9815 59.5216 47.9455 59.4604 47.9236C59.3991 47.9018 59.3336 47.8947 59.2691 47.9029C59.1962 47.8977 59.1231 47.9085 59.0548 47.9345C58.9865 47.9606 58.9248 48.0013 58.8739 48.0537C58.823 48.1062 58.7842 48.1692 58.7603 48.2382C58.7363 48.3072 58.7277 48.3807 58.7352 48.4534V49.2522H58.5323V47.729H58.7269V48.0105C58.7886 47.9144 58.8748 47.8364 58.9767 47.7848C59.0786 47.7331 59.1924 47.7096 59.3064 47.7166C59.3923 47.7099 59.4787 47.7223 59.5593 47.753C59.6398 47.7836 59.7126 47.8318 59.7724 47.8939C59.8321 47.956 59.8774 48.0306 59.9049 48.1124C59.9324 48.1941 59.9414 48.2808 59.9314 48.3665Z" fill="white"/>
</g>
<path opacity="0.4" d="M63.549 59.6002H40.4813C39.5698 59.5991 38.6959 59.2362 38.0518 58.5912C37.4076 57.9463 37.0458 57.072 37.0458 56.1605C37.0458 55.2489 37.4076 54.3747 38.0518 53.7297C38.6959 53.0848 39.5698 52.7219 40.4813 52.7208H63.549C64.4613 52.7208 65.3361 53.0832 65.9812 53.7283C66.6263 54.3733 66.9887 55.2482 66.9887 56.1605C66.9887 57.0727 66.6263 57.9476 65.9812 58.5927C65.3361 59.2378 64.4613 59.6002 63.549 59.6002Z" fill="white"/>
<path d="M43.0185 55.9864C43.0166 55.8253 43.0478 55.6655 43.1102 55.5169C43.1726 55.3683 43.2649 55.2341 43.3813 55.1227C43.4978 55.0113 43.6359 54.9251 43.7871 54.8693C43.9383 54.8135 44.0994 54.7894 44.2603 54.7985C44.4247 54.7926 44.5885 54.8221 44.7406 54.885C44.8927 54.9478 45.0296 55.0425 45.1419 55.1627L44.9267 55.3697C44.8435 55.2801 44.7421 55.2094 44.6293 55.1623C44.5165 55.1152 44.3949 55.0928 44.2727 55.0965C44.1257 55.0979 43.9814 55.1357 43.8526 55.2065C43.7238 55.2773 43.6145 55.3789 43.5346 55.5022C43.4546 55.6255 43.4064 55.7667 43.3943 55.9131C43.3822 56.0596 43.4066 56.2068 43.4652 56.3416C43.5239 56.4763 43.615 56.5945 43.7304 56.6854C43.8459 56.7764 43.9821 56.8373 44.1268 56.8628C44.2715 56.8883 44.4204 56.8776 44.5599 56.8316C44.6995 56.7855 44.8255 56.7056 44.9267 56.599L45.1419 56.806C45.0289 56.9265 44.8914 57.0214 44.7386 57.0843C44.5858 57.1471 44.4212 57.1764 44.2561 57.1702C44.0958 57.1793 43.9353 57.1554 43.7846 57.0998C43.6339 57.0442 43.4962 56.9583 43.3801 56.8472C43.2641 56.7362 43.1721 56.6025 43.1099 56.4544C43.0476 56.3063 43.0166 56.1471 43.0185 55.9864Z" fill="white"/>
<path d="M45.3655 55.9868C45.3539 55.7391 45.4168 55.4936 45.546 55.2819C45.6752 55.0702 45.8649 54.9021 46.0905 54.7991C46.3162 54.6962 46.5674 54.6632 46.812 54.7044C47.0566 54.7455 47.2832 54.859 47.4627 55.0301C47.6422 55.2012 47.7664 55.4222 47.8192 55.6645C47.872 55.9069 47.851 56.1594 47.759 56.3897C47.6669 56.62 47.508 56.8175 47.3028 56.9567C47.0975 57.0958 46.8553 57.1704 46.6072 57.1706C46.4468 57.1791 46.2864 57.1547 46.1357 57.099C45.9851 57.0432 45.8474 56.9573 45.7312 56.8464C45.6149 56.7356 45.5225 56.6022 45.4596 56.4544C45.3967 56.3066 45.3647 56.1475 45.3655 55.9868ZM47.4972 55.9868C47.4996 55.8077 47.4487 55.6319 47.3509 55.4818C47.2531 55.3317 47.1128 55.2141 46.9479 55.144C46.783 55.0739 46.601 55.0545 46.425 55.0882C46.249 55.122 46.0871 55.2073 45.9598 55.3334C45.8325 55.4595 45.7457 55.6207 45.7103 55.7963C45.675 55.972 45.6927 56.1542 45.7612 56.3197C45.8298 56.4852 45.9461 56.6266 46.0953 56.7258C46.2445 56.825 46.4198 56.8776 46.599 56.8768C46.7173 56.8807 46.8352 56.8605 46.9454 56.8173C47.0556 56.7741 47.1559 56.7088 47.24 56.6255C47.3241 56.5422 47.3903 56.4425 47.4345 56.3327C47.4787 56.2229 47.5001 56.1052 47.4972 55.9868Z" fill="white"/>
<path d="M50.3283 54.8444V57.1624H50.0552L48.6644 55.4322V57.1624H48.3333V54.8444H48.6064L49.9972 56.5705V54.8444H50.3283Z" fill="white"/>
<path d="M51.4832 55.1135H50.6885V54.8444H52.5966V55.13H51.8102V57.1624H51.4832V55.1135Z" fill="white"/>
<path d="M52.9651 54.8444H53.2962V57.1624H52.9651V54.8444Z" fill="white"/>
<path d="M55.9867 54.8444V57.1624H55.7135L54.3227 55.4322V57.1624H53.9916V54.8444H54.2523L55.6431 56.5705V54.8444H55.9867Z" fill="white"/>
<path d="M56.6614 56.1441V54.8444H56.9925V56.1483C56.9925 56.6615 57.2284 56.8933 57.6465 56.8933C58.0646 56.8933 58.3005 56.6615 58.3005 56.1483V54.8444H58.6233V56.1607C58.6233 56.4209 58.52 56.6704 58.336 56.8543C58.1521 57.0383 57.9025 57.1417 57.6424 57.1417C57.3822 57.1417 57.1327 57.0383 56.9487 56.8543C56.7647 56.6704 56.6614 56.4209 56.6614 56.1607V56.1441Z" fill="white"/>
<path d="M60.9826 56.8561V57.1458H59.3021V54.8444H60.9578V55.13H59.6333V55.842H60.7922V56.1234H59.6333V56.8726L60.9826 56.8561Z" fill="white"/>
<path opacity="0.1" d="M92.1218 2.49188C78.5825 16.056 43.8092 46.2472 4.40833 44.0121V2.49188H92.1218Z" fill="white"/>
<path opacity="0.1" d="M102.325 27.4219V67.4686H43.3746C45.6346 59.3806 50.1546 48.3041 58.9214 40.39C74.6917 26.1512 92.9952 26.1926 102.325 27.4219Z" fill="white"/>
</svg>
