<svg width="21" height="21" viewBox="0 0 21 21" fill="none" xmlns="http://www.w3.org/2000/svg">
<path d="M8.57336 9.33333C7.65038 9.33333 6.74812 9.05964 5.98069 8.54686C5.21327 8.03408 4.61513 7.30525 4.26192 6.45252C3.90871 5.5998 3.81629 4.66149 3.99636 3.75625C4.17642 2.851 4.62088 2.01948 5.27352 1.36684C5.92617 0.714192 6.75769 0.269735 7.66293 0.0896708C8.56818 -0.0903936 9.50649 0.00202199 10.3592 0.355231C11.2119 0.70844 11.9408 1.30658 12.4535 2.07401C12.9663 2.84144 13.24 3.74369 13.24 4.66667C13.24 5.90435 12.7484 7.09133 11.8732 7.9665C10.998 8.84167 9.81103 9.33333 8.57336 9.33333ZM8.57336 1.38667C7.91409 1.38667 7.26962 1.58217 6.72146 1.94844C6.17329 2.31471 5.74605 2.8353 5.49376 3.44439C5.24147 4.05348 5.17545 4.7237 5.30407 5.3703C5.43269 6.01691 5.75016 6.61085 6.21633 7.07702C6.68251 7.5432 7.27645 7.86067 7.92306 7.98929C8.56966 8.1179 9.23988 8.05189 9.84897 7.7996C10.4581 7.54731 10.9787 7.12007 11.3449 6.5719C11.7112 6.02374 11.9067 5.37927 11.9067 4.72C11.9067 4.28226 11.8205 3.84881 11.653 3.44439C11.4854 3.03997 11.2399 2.67251 10.9304 2.36298C10.6208 2.05345 10.2534 1.80792 9.84897 1.6404C9.44455 1.47289 9.0111 1.38667 8.57336 1.38667ZM12.2867 10.14C8.67897 9.32819 4.90471 9.7192 1.54002 11.2533C1.07729 11.4744 0.686864 11.8223 0.414222 12.2567C0.14158 12.691 -0.00206201 13.1939 2.23662e-05 13.7067V17.6733C2.23644e-05 17.7609 0.0172663 17.8476 0.0507694 17.9285C0.0842726 18.0093 0.133379 18.0828 0.195284 18.1447C0.25719 18.2066 0.330683 18.2558 0.411567 18.2893C0.49245 18.3228 0.579141 18.34 0.666689 18.34C0.754237 18.34 0.840928 18.3228 0.921811 18.2893C1.0027 18.2558 1.07619 18.2066 1.13809 18.1447C1.2 18.0828 1.24911 18.0093 1.28261 17.9285C1.31611 17.8476 1.33336 17.7609 1.33336 17.6733V13.7067C1.32755 13.4471 1.39764 13.1916 1.53501 12.9713C1.67238 12.751 1.87107 12.5756 2.10669 12.4667C4.13353 11.5308 6.3409 11.0506 8.57336 11.06C9.82423 11.0584 11.0708 11.2061 12.2867 11.5V10.14ZM12.38 16.48H16.4734V17.4133H12.38V16.48Z" fill="#808080"/>
<path d="M19.7333 12.5202H16.2867V13.8535H19.0667V19.4335H9.62002V13.8535H13.82V14.1335C13.82 14.3103 13.8903 14.4799 14.0153 14.6049C14.1403 14.73 14.3099 14.8002 14.4867 14.8002C14.6635 14.8002 14.8331 14.73 14.9581 14.6049C15.0831 14.4799 15.1533 14.3103 15.1533 14.1335V11.5402C15.1533 11.3634 15.0831 11.1938 14.9581 11.0688C14.8331 10.9438 14.6635 10.8735 14.4867 10.8735C14.3099 10.8735 14.1403 10.9438 14.0153 11.0688C13.8903 11.1938 13.82 11.3634 13.82 11.5402V12.5202H8.95335C8.77654 12.5202 8.60697 12.5904 8.48194 12.7155C8.35692 12.8405 8.28668 13.0101 8.28668 13.1869V20.1002C8.28668 20.277 8.35692 20.4466 8.48194 20.5716C8.60697 20.6966 8.77654 20.7669 8.95335 20.7669H19.7333C19.9102 20.7669 20.0797 20.6966 20.2048 20.5716C20.3298 20.4466 20.4 20.277 20.4 20.1002V13.1869C20.4 13.0101 20.3298 12.8405 20.2048 12.7155C20.0797 12.5904 19.9102 12.5202 19.7333 12.5202Z" fill="#808080"/>
</svg>
