<svg width="174" height="161" viewBox="0 0 174 161" fill="none" xmlns="http://www.w3.org/2000/svg">
<path d="M85.9029 160.485C133.346 160.485 171.806 158.239 171.806 155.469C171.806 152.699 133.346 150.454 85.9029 150.454C38.46 150.454 0 152.699 0 155.469C0 158.239 38.46 160.485 85.9029 160.485Z" fill="#F5F5F5"/>
<path d="M72.9082 79.6015C72.5034 79.5273 72.1387 79.3104 71.8803 78.9901L69.5986 76.2477C69.3801 75.9875 69.2409 75.6701 69.1977 75.3331C69.1545 74.9961 69.2091 74.6538 69.3549 74.347L70.6132 71.6134C71.8433 68.9558 73.6309 66.5941 75.8545 64.6885L76.6121 64.0505C77.2061 63.5377 77.9795 63.2819 78.7622 63.3392C79.5448 63.3965 80.2726 63.7623 80.7856 64.3562C80.8076 64.3802 80.8283 64.4053 80.8477 64.4315L83.1692 67.267C83.6091 67.8146 83.84 68.5007 83.8205 69.2028C83.801 69.9049 83.5325 70.5771 83.0629 71.0994L80.2274 74.3248C80.2274 74.3248 76.5988 80.2617 72.9082 79.6015Z" fill="#EBB376"/>
<path d="M97.9317 91.9671C96.5494 89.3531 94.3873 87.8423 91.4321 87.7315C89.3454 87.6518 87.6042 88.591 86.0535 89.9468C82.9522 92.6715 79.7578 95.3254 76.1868 97.452C75.1267 98.0873 74.0255 98.6512 72.8905 99.1401C72.6646 99.2331 72.4475 99.366 72.2481 99.2863C71.4417 98.9584 71.9557 95.959 72.1949 94.5988C72.5804 92.419 73.6038 87.8157 76.7805 79.1718L68.7524 74.9097C65.6557 79.5109 63.2119 84.5193 61.4908 89.7917C59.5857 95.6532 59.3996 99.4192 59.8161 102.41C60.4098 106.654 62.1687 108.852 62.7137 109.499C64.5656 111.678 66.9891 112.821 69.767 113.233C72.4253 113.632 75.026 113.149 77.5691 112.387C82.6908 110.854 87.1478 108.107 91.3036 104.855C93.0024 103.516 94.6292 102.087 96.1772 100.576C97.4522 99.398 98.2961 97.8272 98.5741 96.114C98.5933 96.0171 98.6215 95.9222 98.6583 95.8305V94.426C98.5153 93.5803 98.2713 92.7547 97.9317 91.9671Z" fill="#FF5050"/>
<path opacity="0.2" d="M87.0282 91.7899C85.4083 98.8556 82.719 105.633 79.0533 111.887C79.8065 111.612 80.8255 111.213 82.0129 110.673C84.0282 109.734 85.9647 108.635 87.8036 107.385C89.5064 106.266 91.1439 105.05 92.7081 103.743L87.0282 91.7899Z" fill="black"/>
<path opacity="0.2" d="M74.0646 66.4031C74.239 67.6802 74.577 68.9295 75.0703 70.1203C75.9876 72.2998 77.3944 74.2387 79.1818 75.7869C79.5185 75.3128 79.873 74.8299 80.2584 74.3426C81.0293 73.3501 81.8091 72.4507 82.5667 71.6399L77.0773 63.7005C76.3764 64.216 75.7076 64.7738 75.0747 65.3708C74.707 65.7208 74.3836 66.0664 74.0646 66.4031Z" fill="black"/>
<path d="M151.629 141.628C145.87 127.269 142.263 117.309 138.147 90.7309C137.133 84.196 131.059 79.9205 124.825 80.4743C123.053 80.6338 117.133 79.8984 106.85 82.3706C99.3406 84.1782 86.1466 90.0531 86.1466 90.0531C86.1466 90.0531 91.6626 117.385 107.927 141.628H151.629Z" fill="#FF5050"/>
<path opacity="0.7" d="M151.629 141.628C145.87 127.269 142.263 117.309 138.147 90.7309C137.133 84.196 131.059 79.9205 124.825 80.4743C123.053 80.6338 117.133 79.8984 106.85 82.3706C99.3406 84.1782 86.1466 90.0531 86.1466 90.0531C86.1466 90.0531 91.6626 117.385 107.927 141.628H151.629Z" fill="white"/>
<path d="M123.048 118.475C124.705 122.484 127.31 127.415 129.938 132.041C131.958 135.585 133.992 138.97 135.617 141.611H152.613L146.1 126.033L145.152 123.774L143.942 117.527L138.488 89.4993C137.385 83.8282 131.949 79.3977 126.526 79.7522L119.171 80.2218L119.105 80.5408C118.587 83.0573 115.53 100.066 122.995 118.311L123.048 118.475Z" fill="#FF5050"/>
<path d="M101.738 134.504C103.625 138.62 104.901 141.283 104.901 141.283C104.901 141.283 104.901 141.398 104.848 141.611H111.4C111.369 139.201 111.193 136.795 110.873 134.407C110.246 129.672 109.272 124.99 107.958 120.398C107.515 118.789 107.01 117.23 106.496 115.768C102.212 103.575 100.067 85.9682 99.89 84.5106C99.89 84.4441 99.89 84.4131 99.89 84.4131C99.89 84.4131 86.5143 88.3075 86.1555 90.031C85.2029 94.6254 90.7233 109.144 96.0177 121.567C98.0868 126.45 100.134 130.995 101.738 134.504Z" fill="#FF5050"/>
<path d="M99.9963 82.5832C101.955 84.7143 102.726 86.3403 102.951 87.5188C103.284 89.2467 102.451 90.022 102.451 90.022C103.488 94.2576 109.203 93.4025 109.203 93.4025C115.623 85.9947 115.033 80.9307 115.033 80.9307C110.944 80.8332 108.153 78.2325 106.354 75.5653C105.162 73.7828 104.242 71.8327 103.625 69.7791L96.3589 79.2072C97.6511 80.2435 98.8667 81.3718 99.9963 82.5832V82.5832Z" fill="#EBB376"/>
<path opacity="0.2" d="M96.3722 79.2072C97.6598 80.244 98.871 81.3723 99.9963 82.5832C101.955 84.7143 102.726 86.3403 102.951 87.5188C106.084 83.8105 106.651 79.3268 106.354 75.5565C105.163 73.7767 104.243 71.8296 103.625 69.7791L96.3722 79.2072Z" fill="black"/>
<path d="M98.6184 45.0127C98.6184 43.9981 98.7868 41.0828 100.913 38.7479C103.665 35.7263 108.379 35.1459 111.573 36.5327C115.623 38.2739 114.714 42.0708 120.093 50.2672C124.324 56.7003 126.269 56.4699 127.682 60.9802C128.072 62.2207 130.412 69.726 125.946 74.6394C123.505 77.3243 120.164 77.949 118.653 78.1306C119.389 76.8015 120.173 74.852 119.739 72.752C119.194 70.1203 117.049 68.8044 115.463 67.4354C108.224 61.2061 111.476 52.961 104.263 47.5956C102.578 46.3571 100.657 45.4779 98.6184 45.0127V45.0127Z" fill="#263238"/>
<path d="M78.6191 70.7406C77.99 69.8545 72.9924 62.5264 75.7526 54.4186C77.6444 48.8451 82.1723 45.9253 83.9578 44.7779C85.7433 43.6304 89.1415 41.4018 93.2973 41.4284C103.851 41.4949 111.87 54.3389 111.405 62.0789C111.152 66.3411 110.098 71.6134 106.31 74.5419C104.79 75.716 104.201 71.1526 104.201 71.1526C104.201 71.1526 89.4827 78.0376 78.6191 70.7406Z" fill="#263238"/>
<path d="M103.479 54.4939C106.421 64.2986 107.865 68.3746 104.981 75.2951C100.643 85.7067 88.3441 87.7403 82.6288 79.154C77.485 71.4228 73.5462 56.687 81.2287 48.9824C88.796 41.3841 100.524 44.6936 103.479 54.4939Z" fill="#EBB376"/>
<path d="M92.2783 55.0433C99.9608 59.0618 93.3283 70.7716 103.053 65.8094C112.778 60.8473 102.336 48.6944 94.9898 48.2115C87.644 47.7286 92.2783 55.0433 92.2783 55.0433Z" fill="#263238"/>
<path d="M90.0232 63.1201C90.3289 63.922 90.1738 64.7594 89.6776 64.9898C89.1814 65.2202 88.5345 64.7549 88.2288 63.9486C87.9231 63.1422 88.0738 62.3093 88.57 62.0789C89.0662 61.8485 89.7175 62.3226 90.0232 63.1201Z" fill="#263238"/>
<path d="M80.7458 67.5772C81.056 68.3835 80.9009 69.2209 80.4047 69.4468C79.9085 69.6728 79.2572 69.212 78.9515 68.4101C78.6458 67.6082 78.8008 66.7708 79.297 66.5404C79.7933 66.31 80.4401 66.7752 80.7458 67.5772Z" fill="#263238"/>
<path d="M79.5319 66.4828L77.485 66.7531C77.485 66.7531 79.0091 67.843 79.5319 66.4828Z" fill="#263238"/>
<path d="M83.7895 67.6835C83.7895 67.6835 83.7009 71.7374 82.8502 74.0369C84.2148 74.604 85.7788 73.4122 85.7788 73.4122L83.7895 67.6835Z" fill="#D58745"/>
<path d="M92.4998 73.6913C92.9501 73.5437 93.4127 73.4369 93.8822 73.3723C93.9139 73.3672 93.9464 73.369 93.9774 73.3775C94.0084 73.386 94.0373 73.401 94.062 73.4216C94.0868 73.4421 94.1069 73.4677 94.1209 73.4967C94.135 73.5256 94.1427 73.5572 94.1436 73.5893C94.1479 73.6567 94.1272 73.7233 94.0855 73.7765C94.0439 73.8296 93.9841 73.8655 93.9176 73.8773C92.8576 74.0207 91.8435 74.401 90.9507 74.9901C90.0579 75.5792 89.3093 76.3618 88.7605 77.2799C88.7325 77.3401 88.682 77.3869 88.6198 77.4101C88.5576 77.4334 88.4888 77.4311 88.4282 77.404C88.3707 77.3722 88.3281 77.3189 88.3098 77.2558C88.2916 77.1927 88.2991 77.1249 88.3307 77.0673C89.2561 75.4659 90.7411 74.2634 92.4998 73.6913V73.6913Z" fill="#263238"/>
<path d="M108.8 62.6638C108.842 63.6413 108.679 64.6169 108.322 65.5279C107.965 66.4388 107.421 67.2652 106.726 67.9538C104.932 69.5798 102.796 67.6658 102.26 64.9233C101.777 62.46 102.127 58.6453 104.427 58.1137C106.726 57.582 108.764 60.0276 108.8 62.6638Z" fill="#EBB376"/>
<path d="M75.8323 64.3163C75.8614 64.2577 75.9031 64.2062 75.9544 64.1656C76.0057 64.125 76.0654 64.0963 76.1292 64.0815C76.7239 63.9556 77.2781 63.6841 77.7421 63.2913C78.2061 62.8985 78.5653 62.3967 78.7875 61.8308C78.8032 61.7679 78.8325 61.7093 78.8733 61.6589C78.9142 61.6086 78.9655 61.5679 79.0238 61.5395C79.0821 61.5112 79.1459 61.4961 79.2107 61.4951C79.2755 61.4941 79.3398 61.5074 79.3989 61.534C79.523 61.5862 79.6234 61.6826 79.6807 61.8045C79.7379 61.9264 79.748 62.0652 79.709 62.1941C79.4408 62.9166 78.995 63.5599 78.4128 64.0648C77.8305 64.5696 77.1305 64.9197 76.3773 65.0828C76.2467 65.1054 76.1123 65.0772 76.0019 65.0038C75.8915 64.9305 75.8134 64.8176 75.7836 64.6885C75.7541 64.5626 75.7714 64.4303 75.8323 64.3163V64.3163Z" fill="#263238"/>
<path d="M89.5225 58.4459C89.6397 58.4885 89.7363 58.574 89.7928 58.6852C89.8183 58.7454 89.8316 58.81 89.832 58.8754C89.8324 58.9407 89.8199 59.0055 89.7952 59.066C89.7705 59.1266 89.7341 59.1816 89.6881 59.228C89.642 59.2744 89.5873 59.3113 89.527 59.3364C88.8057 59.7018 88.0097 59.8956 87.2012 59.9025C86.3927 59.9094 85.5935 59.7293 84.8661 59.3763C84.8092 59.3463 84.7594 59.3043 84.7204 59.2531C84.6813 59.202 84.6539 59.143 84.64 59.0801C84.6261 59.0173 84.626 58.9522 84.6398 58.8893C84.6536 58.8265 84.6809 58.7674 84.7199 58.7162C84.7958 58.6049 84.9099 58.5253 85.0406 58.4926C85.1713 58.46 85.3094 58.4764 85.4288 58.539C86.0083 58.8103 86.6425 58.945 87.2823 58.9327C87.9221 58.9204 88.5506 58.7614 89.1194 58.4681C89.2468 58.4127 89.3898 58.4048 89.5225 58.4459V58.4459Z" fill="#263238"/>
<path d="M88.8048 62.0258L86.7889 62.3226C86.7889 62.3226 88.282 63.3859 88.8048 62.0258Z" fill="#263238"/>
<path d="M84.2946 52.2299C89.8548 57.6307 95.7917 59.8548 98.8487 59.5447C100.29 59.4102 101.702 59.0546 103.036 58.4902C104.25 57.9143 106.031 56.78 106.031 56.78C105.697 55.0752 105.077 53.4392 104.196 51.9419C102.279 48.811 99.3685 46.4122 95.929 45.1278C94.5556 44.605 90.289 43.2227 85.9737 44.5917C79.8153 46.5412 75.3804 53.5148 75.212 61.9194C75.5869 61.6192 75.9789 61.3411 76.3861 61.0865C77.5645 60.3486 78.8562 59.8097 80.2096 59.4915C80.3191 58.5282 80.5606 57.5845 80.9274 56.687C81.6492 54.9372 82.8087 53.4024 84.2946 52.2299V52.2299Z" fill="#263238"/>
<path d="M97.0234 60.0276C96.9915 60.2424 96.8854 60.4393 96.7236 60.5842C96.5618 60.729 96.3544 60.8127 96.1373 60.8207C95.8171 60.838 95.4977 60.7735 95.2094 60.6332C94.921 60.4929 94.6731 60.2814 94.4892 60.0187C94.3847 59.8715 94.326 59.6966 94.3205 59.5161C94.315 59.3356 94.3629 59.1575 94.4582 59.0041L94.8658 58.344L94.9056 58.282C95.8272 57.003 96.474 56.4359 96.8462 56.5807C97.2804 56.749 97.3424 57.8921 97.0234 60.0276Z" fill="#FF5050"/>
<path opacity="0.7" d="M96.731 59.7219C96.7076 59.8804 96.6298 60.0258 96.511 60.1333C96.3922 60.2408 96.2398 60.3037 96.0797 60.3112C95.8392 60.3231 95.5996 60.2727 95.3841 60.165C95.1771 60.0629 94.9989 59.9106 94.8658 59.7219C94.7889 59.6131 94.7458 59.4841 94.7419 59.3509C94.7379 59.2177 94.7733 59.0863 94.8436 58.9732L95.1405 58.4858C95.1523 58.4721 95.1627 58.4573 95.1715 58.4415C95.8479 57.4993 96.3249 57.0814 96.6025 57.1877C96.926 57.3073 96.9791 58.1535 96.731 59.7219Z" fill="white"/>
<path opacity="0.2" d="M96.3101 71.1438C95.5156 67.747 95.5292 64.2112 96.35 60.8207C96.5626 61.8973 96.7709 62.9739 96.9835 64.0505L106.425 66.2658C107.081 64.4138 107.735 62.5604 108.388 60.7055C108.495 60.994 108.581 61.2902 108.645 61.5916C108.676 61.7334 109.331 64.9322 107.284 67.3911C107.059 67.6417 106.813 67.8729 106.549 68.0823C106.549 68.3599 106.536 68.6435 106.509 68.9329C106.451 69.8722 106.354 70.7672 106.226 71.5912L96.3101 71.1438Z" fill="black"/>
<path d="M98.5031 71.095C98.8528 71.3676 99.2872 71.5088 99.7304 71.4937L103.585 71.3874C103.951 71.3806 104.308 71.2683 104.612 71.064C104.916 70.8597 105.155 70.572 105.3 70.2355L106.629 67.2626C107.904 64.3694 108.542 61.2354 108.498 58.0738V57.0016C108.491 56.154 108.148 55.3438 107.544 54.749C106.94 54.1542 106.125 53.8235 105.277 53.8294H105.171L101.219 53.9667C100.461 53.9982 99.7386 54.2986 99.1817 54.8141C98.6248 55.3296 98.2696 56.0265 98.1797 56.7801L97.5772 61.3834C97.5772 61.3834 95.3088 68.5741 98.5031 71.095Z" fill="#EBB376"/>
<path opacity="0.2" d="M132.702 81.6263C133.178 81.8701 133.624 82.1674 134.031 82.5124C137 84.9935 136.867 89.1581 136.858 89.4151C136.69 93.0614 133.854 95.4361 131.457 97.4431C127.829 100.415 123.456 102.335 118.813 102.995C123.441 95.8674 128.071 88.7446 132.702 81.6263Z" fill="black"/>
<path opacity="0.2" d="M103.341 104.855C101.38 104.477 99.5488 103.599 98.0246 102.308C95.579 100.199 94.7904 97.6027 94.1214 95.4096C93.2584 92.5263 93.0108 89.4938 93.3948 86.5087L96.3942 85.503L103.341 104.855Z" fill="black"/>
<path d="M132.84 81.7326C130.624 79.9604 128.019 80.1686 127.08 80.2484C123.243 80.5585 120.332 83.1193 117.395 85.7289C115.955 87.0093 114.422 88.1922 113.009 89.5081C111.7 90.6573 110.145 91.4897 108.463 91.9405C108.366 91.9585 108.267 91.9585 108.171 91.9405C108.097 91.9303 108.027 91.9062 107.962 91.8696C107.883 91.8278 107.812 91.77 107.756 91.6999C107.7 91.6297 107.658 91.5488 107.634 91.462C107.311 90.3233 107.032 89.1581 106.81 87.9929C106.102 84.2757 106.093 81.2718 106.079 77.8027C106.079 75.4147 106.146 72.9824 106.305 70.5766V70.3639L96.6114 69.4114L96.5715 69.6063C95.416 75.4473 94.7594 81.376 94.6088 87.3283C94.5512 90.2436 94.6088 93.6772 96.2259 97.5184C96.7517 98.9803 97.5316 100.338 98.5298 101.528C99.7214 102.85 101.182 103.901 102.813 104.612C104.445 105.323 106.21 105.676 107.989 105.648C108.623 105.649 109.257 105.606 109.885 105.52C116.008 104.736 121.289 101.891 123.221 100.784C129.743 97.0488 132.618 93.3981 133.486 92.2329C134.669 90.6467 135.471 89.1803 135.498 87.3593C135.524 83.9656 132.946 81.8168 132.84 81.7326Z" fill="#FF5050"/>
<path d="M156.007 18.5803C156.007 16.2897 154.815 14.2251 152.905 12.7365C152.969 12.4364 153.002 12.1306 153.003 11.8238C153.003 8.77119 149.901 6.29455 146.051 6.22366C144.886 3.27738 141.391 1.13745 137.261 1.13745C133.969 1.13745 131.081 2.49761 129.455 4.5445C129.042 4.48556 128.626 4.45595 128.21 4.45589C124.28 4.45589 121.09 6.96355 121.09 10.056C121.091 10.582 121.184 11.1038 121.365 11.5979C118.861 12.927 117.209 15.1422 117.209 17.7031C117.209 20.1531 118.742 22.3241 121.094 23.6577C121.092 23.6842 121.092 23.7109 121.094 23.7374C121.094 26.7369 124.098 29.1869 127.869 29.3287C129.951 31.3623 133.136 32.6604 136.73 32.6604C139.077 32.6794 141.39 32.0854 143.437 30.937C143.752 30.968 144.075 30.9901 144.403 30.9901C148.338 30.9901 151.523 28.4825 151.523 25.39V25.3324C154.217 23.857 156.007 21.3804 156.007 18.5803Z" fill="#FF5050"/>
<path d="M108.906 25.5716C108.906 26.2495 108.122 26.7989 107.134 26.7989C106.146 26.7989 105.362 26.2495 105.362 25.5716C105.362 24.8937 106.146 24.3444 107.134 24.3444C108.122 24.3444 108.906 24.8937 108.906 25.5716Z" fill="#FF5050"/>
<path d="M114.909 21.088C114.909 22.1203 113.709 22.9577 112.225 22.9577C110.74 22.9577 109.54 22.1203 109.54 21.088C109.54 20.0557 110.745 19.2183 112.225 19.2183C113.704 19.2183 114.909 20.0557 114.909 21.088Z" fill="#FF5050"/>
<path opacity="0.6" d="M156.007 18.5803C156.007 16.2897 154.815 14.2251 152.905 12.7365C152.969 12.4364 153.002 12.1306 153.003 11.8238C153.003 8.77119 149.901 6.29455 146.051 6.22366C144.886 3.27738 141.391 1.13745 137.261 1.13745C133.969 1.13745 131.081 2.49761 129.455 4.5445C129.042 4.48556 128.626 4.45595 128.21 4.45589C124.28 4.45589 121.09 6.96355 121.09 10.056C121.091 10.582 121.184 11.1038 121.365 11.5979C118.861 12.927 117.209 15.1422 117.209 17.7031C117.209 20.1531 118.742 22.3241 121.094 23.6577C121.092 23.6842 121.092 23.7109 121.094 23.7374C121.094 26.7369 124.098 29.1869 127.869 29.3287C129.951 31.3623 133.136 32.6604 136.73 32.6604C139.077 32.6794 141.39 32.0854 143.437 30.937C143.752 30.968 144.075 30.9901 144.403 30.9901C148.338 30.9901 151.523 28.4825 151.523 25.39V25.3324C154.217 23.857 156.007 21.3804 156.007 18.5803Z" fill="white"/>
<path opacity="0.6" d="M108.906 25.5716C108.906 26.2495 108.122 26.7989 107.134 26.7989C106.146 26.7989 105.362 26.2495 105.362 25.5716C105.362 24.8937 106.146 24.3444 107.134 24.3444C108.122 24.3444 108.906 24.8937 108.906 25.5716Z" fill="white"/>
<path opacity="0.6" d="M114.909 21.088C114.909 22.1203 113.709 22.9577 112.225 22.9577C110.74 22.9577 109.54 22.1203 109.54 21.088C109.54 20.0557 110.745 19.2183 112.225 19.2183C113.704 19.2183 114.909 20.0557 114.909 21.088Z" fill="white"/>
<path d="M131.861 10.8712H124.639V14.3359H131.861V10.8712Z" fill="#FF5050"/>
<path opacity="0.8" d="M131.861 10.8712H124.639V14.3359H131.861V10.8712Z" fill="white"/>
<path d="M139.946 10.8712H132.724V14.3359H139.946V10.8712Z" fill="#FF5050"/>
<path opacity="0.8" d="M139.946 10.8712H132.724V14.3359H139.946V10.8712Z" fill="white"/>
<path d="M148.036 10.8712H140.815V14.3359H148.036V10.8712Z" fill="#FF5050"/>
<path opacity="0.8" d="M148.036 10.8712H140.815V14.3359H148.036V10.8712Z" fill="white"/>
<path d="M128.068 15.0093H120.846V18.474H128.068V15.0093Z" fill="#FF5050"/>
<path opacity="0.8" d="M128.068 15.0093H120.846V18.474H128.068V15.0093Z" fill="white"/>
<path d="M136.149 15.0093H128.927V18.474H136.149V15.0093Z" fill="#FF5050"/>
<path opacity="0.8" d="M136.149 15.0093H128.927V18.474H136.149V15.0093Z" fill="white"/>
<path d="M144.244 15.0093H137.022V18.474H144.244V15.0093Z" fill="#FF5050"/>
<path opacity="0.8" d="M144.244 15.0093H137.022V18.474H144.244V15.0093Z" fill="white"/>
<path d="M152.369 15.0093H145.148V18.474H152.369V15.0093Z" fill="#FF5050"/>
<path opacity="0.8" d="M152.369 15.0093H145.148V18.474H152.369V15.0093Z" fill="white"/>
<path d="M131.861 19.3557H124.639V22.8203H131.861V19.3557Z" fill="#FF5050"/>
<path opacity="0.8" d="M131.861 19.3557H124.639V22.8203H131.861V19.3557Z" fill="white"/>
<path d="M139.946 19.3557H132.724V22.8203H139.946V19.3557Z" fill="#FF5050"/>
<path opacity="0.8" d="M139.946 19.3557H132.724V22.8203H139.946V19.3557Z" fill="white"/>
<path d="M148.036 19.3557H140.815V22.8203H148.036V19.3557Z" fill="#FF5050"/>
<path opacity="0.8" d="M148.036 19.3557H140.815V22.8203H148.036V19.3557Z" fill="white"/>
<path d="M135.715 6.73315H128.493V10.1978H135.715V6.73315Z" fill="#FF5050"/>
<path opacity="0.8" d="M135.715 6.73315H128.493V10.1978H135.715V6.73315Z" fill="white"/>
<path d="M143.81 6.73315H136.588V10.1978H143.81V6.73315Z" fill="#FF5050"/>
<path opacity="0.8" d="M143.81 6.73315H136.588V10.1978H143.81V6.73315Z" fill="white"/>
<path d="M136.149 23.4937H128.927V26.9584H136.149V23.4937Z" fill="#FF5050"/>
<path opacity="0.8" d="M136.149 23.4937H128.927V26.9584H136.149V23.4937Z" fill="white"/>
<path d="M144.244 23.4937H137.022V26.9584H144.244V23.4937Z" fill="#FF5050"/>
<path opacity="0.8" d="M144.244 23.4937H137.022V26.9584H144.244V23.4937Z" fill="white"/>
<path d="M138.821 13.6757C138.785 12.2713 137.58 11.3364 135.688 11.3675C133.872 11.394 132.565 12.1118 131.741 13.3523L129.322 11.8149C130.651 9.8921 132.822 8.71358 135.892 8.66042C139.499 8.61168 141.953 10.2554 142.033 13.1308C142.148 17.2157 137.961 17.6499 138.045 20.605L134.944 20.6493C134.811 16.941 138.892 16.179 138.821 13.6757ZM134.638 24.6855C134.627 24.429 134.668 24.1729 134.76 23.933C134.851 23.6931 134.991 23.4746 135.17 23.2909C135.35 23.1073 135.565 22.9625 135.803 22.8656C136.041 22.7686 136.296 22.7215 136.552 22.7272C136.809 22.7178 137.065 22.7598 137.305 22.8507C137.545 22.9417 137.764 23.0799 137.95 23.257C138.136 23.4342 138.284 23.6468 138.387 23.8822C138.489 24.1176 138.543 24.3712 138.546 24.6279C138.559 24.8835 138.519 25.139 138.43 25.3788C138.341 25.6186 138.204 25.8378 138.027 26.0231C137.851 26.2083 137.638 26.3557 137.403 26.4563C137.168 26.5569 136.915 26.6087 136.659 26.6084C136.399 26.6178 136.14 26.5753 135.897 26.4832C135.654 26.3912 135.432 26.2515 135.244 26.0723C135.055 25.8932 134.905 25.6782 134.801 25.4401C134.697 25.2019 134.642 24.9454 134.638 24.6855Z" fill="#FF5050"/>
<path d="M166.015 145.009H6.44189V155.323H166.015V145.009Z" fill="#263238"/>
<path opacity="0.3" d="M166.015 145.009H6.44189V155.323H166.015V145.009Z" fill="white"/>
<path d="M166.609 141.571H5.84379C4.93599 141.571 4.20007 142.307 4.20007 143.215V146.803C4.20007 147.711 4.93599 148.447 5.84379 148.447H166.609C167.517 148.447 168.252 147.711 168.252 146.803V143.215C168.252 142.307 167.517 141.571 166.609 141.571Z" fill="#263238"/>
<path opacity="0.4" d="M166.609 141.571H5.84379C4.93599 141.571 4.20007 142.307 4.20007 143.215V146.803C4.20007 147.711 4.93599 148.447 5.84379 148.447H166.609C167.517 148.447 168.252 147.711 168.252 146.803V143.215C168.252 142.307 167.517 141.571 166.609 141.571Z" fill="white"/>
<path d="M45.9707 134.004H14.5984V140.654H45.9707V134.004Z" fill="#263238"/>
<path opacity="0.8" d="M45.9707 134.004H14.5984V140.654H45.9707V134.004Z" fill="white"/>
<path opacity="0.5" d="M45.5277 135.311H14.5984V135.612H45.5277V135.311Z" fill="white"/>
<path opacity="0.5" d="M45.5277 137.025H14.5984V137.326H45.5277V137.025Z" fill="white"/>
<path opacity="0.5" d="M45.5277 138.82H14.5984V139.121H45.5277V138.82Z" fill="white"/>
<path d="M45.705 133.086H13.8719C13.836 133.086 13.8004 133.092 13.7671 133.106C13.7338 133.119 13.7035 133.139 13.6779 133.164C13.6523 133.189 13.632 133.219 13.6182 133.252C13.6043 133.285 13.5972 133.321 13.5972 133.357V134.194C13.5972 134.267 13.6261 134.337 13.6776 134.388C13.7291 134.44 13.799 134.469 13.8719 134.469H44.3049C44.3765 134.469 44.4474 134.483 44.5135 134.51C44.5796 134.538 44.6397 134.578 44.6903 134.628C44.7409 134.679 44.781 134.739 44.8084 134.805C44.8358 134.871 44.8499 134.942 44.8499 135.014V139.737C44.8499 139.881 44.7925 140.02 44.6903 140.122C44.5881 140.224 44.4495 140.282 44.3049 140.282H13.8364C13.805 140.282 13.7739 140.288 13.7449 140.3C13.7158 140.312 13.6895 140.329 13.6672 140.352C13.645 140.374 13.6274 140.4 13.6154 140.429C13.6034 140.458 13.5972 140.489 13.5972 140.521V141.332C13.5972 141.363 13.6034 141.394 13.6154 141.423C13.6274 141.452 13.645 141.479 13.6672 141.501C13.6895 141.523 13.7158 141.541 13.7449 141.553C13.7739 141.565 13.805 141.571 13.8364 141.571H45.736C45.971 141.571 46.1964 141.478 46.3626 141.311C46.5287 141.145 46.6221 140.92 46.6221 140.685V134.039C46.625 133.916 46.6036 133.794 46.559 133.679C46.5144 133.565 46.4475 133.46 46.3622 133.371C46.2769 133.283 46.1749 133.212 46.0621 133.163C45.9493 133.114 45.8279 133.088 45.705 133.086Z" fill="#FF5050"/>
<path d="M45.9707 125.493H14.5984V132.143H45.9707V125.493Z" fill="#263238"/>
<path opacity="0.9" d="M45.9707 125.493H14.5984V132.143H45.9707V125.493Z" fill="white"/>
<path opacity="0.7" d="M45.5277 126.525H14.5984V126.826H45.5277V126.525Z" fill="white"/>
<path opacity="0.7" d="M45.5277 127.752H14.5984V128.053H45.5277V127.752Z" fill="white"/>
<path opacity="0.7" d="M45.5277 129.108H14.5984V129.409H45.5277V129.108Z" fill="white"/>
<path opacity="0.7" d="M45.5277 130.335H14.5984V130.636H45.5277V130.335Z" fill="white"/>
<path d="M45.705 124.576H13.8719C13.799 124.576 13.7291 124.604 13.6776 124.656C13.6261 124.707 13.5972 124.777 13.5972 124.85V125.679C13.5972 125.715 13.6043 125.75 13.6182 125.783C13.632 125.816 13.6523 125.846 13.6779 125.871C13.7035 125.897 13.7338 125.916 13.7671 125.93C13.8004 125.943 13.836 125.95 13.8719 125.949H44.3049C44.4495 125.949 44.5881 126.006 44.6903 126.109C44.7925 126.211 44.8499 126.349 44.8499 126.494V131.221C44.8499 131.366 44.7925 131.504 44.6903 131.607C44.5881 131.709 44.4495 131.766 44.3049 131.766H13.8364C13.805 131.766 13.7739 131.772 13.7449 131.784C13.7158 131.796 13.6895 131.814 13.6672 131.836C13.645 131.858 13.6274 131.885 13.6154 131.914C13.6034 131.943 13.5972 131.974 13.5972 132.005V132.812C13.5972 132.843 13.6034 132.874 13.6154 132.903C13.6274 132.932 13.645 132.959 13.6672 132.981C13.6895 133.003 13.7158 133.021 13.7449 133.033C13.7739 133.045 13.805 133.051 13.8364 133.051H45.736C45.971 133.051 46.1964 132.958 46.3626 132.791C46.5287 132.625 46.6221 132.4 46.6221 132.165V125.519C46.6245 125.273 46.5294 125.035 46.3577 124.859C46.1859 124.682 45.9514 124.58 45.705 124.576V124.576Z" fill="#FF5050"/>
<path opacity="0.3" d="M45.705 124.576H13.8719C13.799 124.576 13.7291 124.604 13.6776 124.656C13.6261 124.707 13.5972 124.777 13.5972 124.85V125.679C13.5972 125.715 13.6043 125.75 13.6182 125.783C13.632 125.816 13.6523 125.846 13.6779 125.871C13.7035 125.897 13.7338 125.916 13.7671 125.93C13.8004 125.943 13.836 125.95 13.8719 125.949H44.3049C44.4495 125.949 44.5881 126.006 44.6903 126.109C44.7925 126.211 44.8499 126.349 44.8499 126.494V131.221C44.8499 131.366 44.7925 131.504 44.6903 131.607C44.5881 131.709 44.4495 131.766 44.3049 131.766H13.8364C13.805 131.766 13.7739 131.772 13.7449 131.784C13.7158 131.796 13.6895 131.814 13.6672 131.836C13.645 131.858 13.6274 131.885 13.6154 131.914C13.6034 131.943 13.5972 131.974 13.5972 132.005V132.812C13.5972 132.843 13.6034 132.874 13.6154 132.903C13.6274 132.932 13.645 132.959 13.6672 132.981C13.6895 133.003 13.7158 133.021 13.7449 133.033C13.7739 133.045 13.805 133.051 13.8364 133.051H45.736C45.971 133.051 46.1964 132.958 46.3626 132.791C46.5287 132.625 46.6221 132.4 46.6221 132.165V125.519C46.6245 125.273 46.5294 125.035 46.3577 124.859C46.1859 124.682 45.9514 124.58 45.705 124.576V124.576Z" fill="white"/>
<path d="M45.9707 119.476H14.5984V123.658H45.9707V119.476Z" fill="#263238"/>
<path opacity="0.8" d="M45.9707 119.476H14.5984V123.658H45.9707V119.476Z" fill="white"/>
<path opacity="0.5" d="M45.5277 120.362H14.5984V120.663H45.5277V120.362Z" fill="white"/>
<path opacity="0.5" d="M45.5277 122.094H14.5984V122.396H45.5277V122.094Z" fill="white"/>
<path d="M13.5971 118.337V119.392C13.5965 119.414 13.6003 119.435 13.6083 119.455C13.6164 119.475 13.6284 119.494 13.6438 119.509C13.6591 119.524 13.6774 119.536 13.6976 119.544C13.7178 119.553 13.7393 119.556 13.761 119.556H44.6992C44.7427 119.556 44.7844 119.573 44.8151 119.604C44.8458 119.634 44.8631 119.676 44.8631 119.72V122.852C44.8631 122.97 44.8164 123.082 44.7334 123.165C44.6503 123.248 44.5376 123.295 44.4201 123.295H13.761C13.7397 123.294 13.7185 123.298 13.6986 123.306C13.6788 123.314 13.6607 123.325 13.6454 123.34C13.6301 123.355 13.618 123.373 13.6097 123.392C13.6014 123.412 13.5971 123.433 13.5971 123.455V124.42C13.5971 124.442 13.6014 124.463 13.6097 124.482C13.618 124.502 13.6301 124.52 13.6454 124.535C13.6607 124.55 13.6788 124.561 13.6986 124.569C13.7185 124.577 13.7397 124.581 13.761 124.58H45.8467C46.0558 124.58 46.2564 124.497 46.4043 124.349C46.5522 124.201 46.6353 124 46.6353 123.791V118.342C46.6353 118.299 46.6187 118.258 46.5889 118.227C46.5591 118.197 46.5185 118.179 46.4758 118.178H13.761C13.7183 118.178 13.6773 118.194 13.6467 118.224C13.616 118.254 13.5983 118.295 13.5971 118.337Z" fill="#FF5050"/>
<path d="M129.419 135.988C130.031 134.733 130.643 133.481 131.258 132.231C129.331 131.405 127.293 130.864 125.21 130.628L125.153 132.568L126.039 132.945L125.72 135.226H127.607L129.419 135.988Z" fill="#263238"/>
<path d="M125.153 132.568L125.892 133.857C125.932 133.556 125.977 133.25 126.017 132.945L125.153 132.568Z" fill="#263238"/>
<path d="M125.698 135.226L129.007 138.975L129.419 135.988L127.585 135.244L125.698 135.226Z" fill="#263238"/>
<path d="M129.007 138.97L130.974 138.496L129.419 135.984L129.007 138.97Z" fill="#263238"/>
<path d="M131.258 132.231L134.293 133.919L132.237 136.826L129.419 135.988C130.031 134.727 130.643 133.475 131.258 132.231Z" fill="#263238"/>
<path d="M129.007 138.97L130.478 140.596L131.887 141.013C131.581 140.171 131.28 139.333 130.974 138.496L129.007 138.97Z" fill="#263238"/>
<path d="M131.887 141.017L132.587 140.131L131.829 138.084L130.974 138.527C131.28 139.338 131.581 140.175 131.887 141.017Z" fill="#263238"/>
<path d="M131.829 138.084L129.419 135.997L130.974 138.509L131.829 138.084Z" fill="#263238"/>
<path d="M132.237 136.826C132.569 137.575 132.897 138.328 133.225 139.077L131.829 138.084L129.419 135.997L132.237 136.826Z" fill="#263238"/>
<path d="M133.225 139.076L136.574 137.792L135.369 134.814L135.542 133.352L134.293 133.919L132.237 136.826C132.569 137.575 132.897 138.328 133.225 139.076Z" fill="#263238"/>
<path d="M128.232 131.195L129.561 130.176L131.595 129.223L133.597 131.722L131.245 132.231C130.833 132.054 130.389 131.881 129.915 131.713C129.328 131.506 128.766 131.333 128.232 131.195Z" fill="#263238"/>
<path d="M133.61 131.722L135.542 133.352L134.275 133.924L131.258 132.231L133.61 131.722Z" fill="#263238"/>
<path d="M132.587 140.149L135.006 141.699C134.82 141.123 134.638 140.543 134.457 139.967L131.829 138.084L132.587 140.149Z" fill="#263238"/>
<path d="M135.006 141.699L136.402 138.802L136.574 137.792L133.225 139.077L134.457 139.963C134.638 140.543 134.82 141.123 135.006 141.699Z" fill="#263238"/>
<path d="M125.698 135.226L124.887 135.594L125.985 136.644L127.811 141.265L129.007 138.975L125.698 135.226Z" fill="#263238"/>
<path d="M127.811 141.265L129.486 141.735L131.887 141.017L130.478 140.601L129.007 138.97L127.811 141.265Z" fill="#263238"/>
<path d="M124.891 135.594C124.636 135.978 124.432 136.394 124.284 136.83C124.115 137.331 124.018 137.853 123.996 138.381L127.151 139.564C126.765 138.589 126.375 137.619 125.99 136.644L124.891 135.594Z" fill="#263238"/>
<path opacity="0.9" d="M129.419 135.988C130.031 134.733 130.643 133.481 131.258 132.231C129.331 131.405 127.293 130.864 125.21 130.628L125.153 132.568L126.039 132.945L125.72 135.226H127.607L129.419 135.988Z" fill="white"/>
<path opacity="0.8" d="M125.153 132.568L125.892 133.857C125.932 133.556 125.977 133.25 126.017 132.945L125.153 132.568Z" fill="white"/>
<path opacity="0.8" d="M125.698 135.226L129.007 138.975L129.419 135.988L127.585 135.244L125.698 135.226Z" fill="white"/>
<path opacity="0.9" d="M129.007 138.97L130.974 138.496L129.419 135.984L129.007 138.97Z" fill="white"/>
<path opacity="0.8" d="M131.258 132.231L134.293 133.919L132.237 136.826L129.419 135.988C130.031 134.727 130.643 133.475 131.258 132.231Z" fill="white"/>
<path opacity="0.7" d="M129.007 138.97L130.478 140.596L131.887 141.013C131.581 140.171 131.28 139.333 130.974 138.496L129.007 138.97Z" fill="white"/>
<path opacity="0.5" d="M131.887 141.017L132.587 140.131L131.829 138.084L130.974 138.527C131.28 139.338 131.581 140.175 131.887 141.017Z" fill="white"/>
<path opacity="0.5" d="M131.829 138.084L129.419 135.997L130.974 138.509L131.829 138.084Z" fill="white"/>
<path opacity="0.9" d="M132.237 136.826C132.569 137.575 132.897 138.328 133.225 139.077L131.829 138.084L129.419 135.997L132.237 136.826Z" fill="white"/>
<path opacity="0.8" d="M133.225 139.076L136.574 137.792L135.369 134.814L135.542 133.352L134.293 133.919L132.237 136.826C132.569 137.575 132.897 138.328 133.225 139.076Z" fill="white"/>
<path d="M128.232 131.195L129.561 130.176L131.595 129.223L133.597 131.722L131.245 132.231C130.833 132.054 130.389 131.881 129.915 131.713C129.328 131.506 128.766 131.333 128.232 131.195Z" fill="white"/>
<path opacity="0.9" d="M133.61 131.722L135.542 133.352L134.275 133.924L131.258 132.231L133.61 131.722Z" fill="white"/>
<path opacity="0.9" d="M132.587 140.149L135.006 141.699C134.82 141.123 134.638 140.543 134.457 139.967L131.829 138.084L132.587 140.149Z" fill="white"/>
<path opacity="0.8" d="M135.006 141.699L136.402 138.802L136.574 137.792L133.225 139.077L134.457 139.963C134.638 140.543 134.82 141.123 135.006 141.699Z" fill="white"/>
<path opacity="0.7" d="M125.698 135.226L124.887 135.594L125.985 136.644L127.811 141.265L129.007 138.975L125.698 135.226Z" fill="white"/>
<path opacity="0.5" d="M127.811 141.265L129.486 141.735L131.887 141.017L130.478 140.601L129.007 138.97L127.811 141.265Z" fill="white"/>
<path opacity="0.9" d="M124.891 135.594C124.636 135.978 124.432 136.394 124.284 136.83C124.115 137.331 124.018 137.853 123.996 138.381L127.151 139.564C126.765 138.589 126.375 137.619 125.99 136.644L124.891 135.594Z" fill="white"/>
<path d="M153.366 135.027L156.653 137.614C157.367 136.606 157.994 135.539 158.528 134.424C158.893 133.648 159.214 132.85 159.489 132.036L157.606 131.593C157.42 131.85 157.238 132.107 157.052 132.36L154.894 131.571C154.753 132.183 154.615 132.798 154.478 133.41L153.366 135.027Z" fill="#263238"/>
<path d="M157.606 131.576L156.188 132.019L157.052 132.333C157.234 132.09 157.42 131.833 157.606 131.576Z" fill="#263238"/>
<path d="M154.894 131.554L150.53 133.999L153.366 135.027L154.478 133.392C154.615 132.767 154.753 132.165 154.894 131.554Z" fill="#263238"/>
<path d="M150.53 133.999L150.584 136.024L153.366 135.027L150.53 133.999Z" fill="#263238"/>
<path d="M156.653 137.614L154.363 140.228L151.957 137.61L153.366 135.027L156.653 137.614Z" fill="#263238"/>
<path d="M150.53 133.999L148.634 135.098C148.399 135.541 148.165 135.957 147.934 136.387L150.593 136.024L150.53 133.999Z" fill="#263238"/>
<path d="M147.93 136.387L148.63 137.273L150.814 136.968C150.734 136.657 150.659 136.347 150.579 136.042L147.93 136.387Z" fill="#263238"/>
<path d="M150.818 136.95L153.366 135.027L150.588 136.024C150.663 136.312 150.739 136.64 150.818 136.95Z" fill="#263238"/>
<path d="M151.957 137.61L149.547 138.106L150.818 136.95L153.366 135.027L151.957 137.61Z" fill="#263238"/>
<path d="M149.547 138.106C149.733 139.285 149.915 140.468 150.101 141.651L153.264 141.097L154.655 141.575L154.363 140.246L151.957 137.628L149.547 138.106Z" fill="#263238"/>
<path d="M158.302 134.876L159.006 136.4L159.511 138.589L156.649 140.025C156.649 139.223 156.649 138.416 156.649 137.614C156.909 137.251 157.17 136.857 157.433 136.431C157.765 135.891 158.053 135.368 158.302 134.876Z" fill="#263238"/>
<path d="M156.658 140.025L154.655 141.571L154.363 140.211L156.653 137.614C156.653 138.416 156.653 139.223 156.658 140.025Z" fill="#263238"/>
<path d="M148.634 137.256L146.609 139.294L148.417 139.116L150.818 136.95L148.634 137.256Z" fill="#263238"/>
<path d="M146.601 139.294L149.139 141.27L150.092 141.646C149.906 140.468 149.724 139.285 149.538 138.102L148.408 139.112L146.601 139.294Z" fill="#263238"/>
<path d="M154.894 131.554C154.828 131.261 154.766 130.969 154.704 130.667L153.446 131.518L148.541 132.333L150.53 133.986L154.894 131.554Z" fill="#263238"/>
<path d="M148.541 132.347L147.735 133.888L147.934 136.387C148.165 135.944 148.399 135.528 148.634 135.098L150.531 133.999L148.541 132.347Z" fill="#263238"/>
<path d="M154.704 130.681C154.005 129.975 153.128 129.471 152.165 129.223L150.344 132.059L153.446 131.531L154.704 130.681Z" fill="#263238"/>
<path opacity="0.9" d="M153.366 135.027L156.653 137.614C157.367 136.606 157.994 135.539 158.528 134.424C158.893 133.648 159.214 132.85 159.489 132.036L157.606 131.593C157.42 131.85 157.238 132.107 157.052 132.36L154.894 131.571C154.753 132.183 154.615 132.798 154.478 133.41L153.366 135.027Z" fill="white"/>
<path opacity="0.9" d="M157.606 131.576L156.188 132.019L157.052 132.333C157.234 132.09 157.42 131.833 157.606 131.576Z" fill="white"/>
<path opacity="0.8" d="M154.894 131.554L150.53 133.999L153.366 135.027L154.478 133.392C154.615 132.767 154.753 132.165 154.894 131.554Z" fill="white"/>
<path opacity="0.8" d="M150.53 133.999L150.584 136.024L153.366 135.027L150.53 133.999Z" fill="white"/>
<path opacity="0.8" d="M156.653 137.614L154.363 140.228L151.957 137.61L153.366 135.027L156.653 137.614Z" fill="white"/>
<path opacity="0.7" d="M150.53 133.999L148.634 135.098C148.399 135.541 148.165 135.957 147.934 136.387L150.593 136.024L150.53 133.999Z" fill="white"/>
<path opacity="0.5" d="M147.93 136.387L148.63 137.273L150.814 136.968C150.734 136.657 150.659 136.347 150.579 136.042L147.93 136.387Z" fill="white"/>
<path opacity="0.5" d="M150.818 136.95L153.366 135.027L150.588 136.024C150.663 136.312 150.739 136.64 150.818 136.95Z" fill="white"/>
<path opacity="0.9" d="M151.957 137.61L149.547 138.106L150.818 136.95L153.366 135.027L151.957 137.61Z" fill="white"/>
<path opacity="0.7" d="M149.547 138.106C149.733 139.285 149.915 140.468 150.101 141.651L153.264 141.097L154.655 141.575L154.363 140.246L151.957 137.628L149.547 138.106Z" fill="white"/>
<path opacity="0.7" d="M158.302 134.876L159.006 136.4L159.511 138.589L156.649 140.025C156.649 139.223 156.649 138.416 156.649 137.614C156.909 137.251 157.17 136.857 157.433 136.431C157.765 135.891 158.053 135.368 158.302 134.876Z" fill="white"/>
<path opacity="0.5" d="M156.658 140.025L154.655 141.571L154.363 140.211C155.129 139.347 155.891 138.478 156.653 137.614C156.653 138.416 156.653 139.223 156.658 140.025Z" fill="white"/>
<path opacity="0.9" d="M148.634 137.256L146.609 139.294L148.417 139.116L150.818 136.95L148.634 137.256Z" fill="white"/>
<path opacity="0.7" d="M146.601 139.294L149.139 141.27L150.092 141.646C149.906 140.468 149.724 139.285 149.538 138.102L148.408 139.112L146.601 139.294Z" fill="white"/>
<path opacity="0.9" d="M154.894 131.554C154.828 131.261 154.766 130.969 154.704 130.667L153.446 131.518L148.541 132.333L150.53 133.986L154.894 131.554Z" fill="white"/>
<path opacity="0.9" d="M148.541 132.347L147.735 133.888L147.934 136.387C148.165 135.944 148.399 135.528 148.634 135.098L150.531 133.999L148.541 132.347Z" fill="white"/>
<path d="M154.704 130.681C154.005 129.975 153.128 129.471 152.165 129.223L150.344 132.059L153.446 131.531L154.704 130.681Z" fill="white"/>
<path d="M78.814 141.589H98.4987C98.5361 141.588 98.573 141.579 98.6066 141.563C98.6402 141.546 98.6697 141.523 98.693 141.494C98.7163 141.464 98.7329 141.43 98.7414 141.394C98.75 141.357 98.7503 141.319 98.7424 141.283C98.5416 140.361 98.3392 139.443 98.1354 138.527C98.1234 138.471 98.0927 138.421 98.0485 138.385C98.0042 138.349 97.949 138.328 97.8918 138.328H76.8469C76.8003 138.328 76.7547 138.342 76.715 138.366C76.6753 138.391 76.6431 138.425 76.6217 138.467C76.6003 138.508 76.5906 138.555 76.5935 138.601C76.5965 138.648 76.6121 138.693 76.6387 138.731L78.6102 141.482C78.6334 141.515 78.6639 141.541 78.6993 141.56C78.7348 141.578 78.7741 141.588 78.814 141.589V141.589Z" fill="#FF5050"/>
<path opacity="0.2" d="M78.814 141.589H98.5031C98.5402 141.589 98.5769 141.581 98.6104 141.565C98.6439 141.549 98.6733 141.525 98.6964 141.496C98.7195 141.467 98.7356 141.433 98.7436 141.397C98.7516 141.361 98.7511 141.323 98.7424 141.287C98.5386 140.361 98.3303 139.44 98.1221 138.514C98.1085 138.459 98.0773 138.41 98.0332 138.375C97.9892 138.34 97.9348 138.32 97.8784 138.319H76.8203C76.7746 138.319 76.7298 138.332 76.6909 138.356C76.652 138.38 76.6206 138.414 76.5999 138.455C76.5793 138.496 76.5704 138.541 76.5741 138.587C76.5778 138.633 76.594 138.676 76.6209 138.713L78.5969 141.478C78.6205 141.513 78.6529 141.542 78.6909 141.562C78.7289 141.581 78.7713 141.59 78.814 141.589V141.589Z" fill="black"/>
<path d="M70.0594 107.917H32.9628C32.7666 107.917 32.573 107.961 32.3957 108.045L30.7875 108.816C33.8357 119.745 36.8853 130.663 39.9365 141.571L77.0817 141.668L79.1641 141.589C76.2842 130.512 73.5373 119.436 70.6619 108.36C70.6234 108.231 70.5437 108.117 70.435 108.037C70.3262 107.957 70.1944 107.915 70.0594 107.917Z" fill="#FF5050"/>
<path opacity="0.2" d="M77.0817 141.668L39.9365 141.571C36.8853 130.642 33.8357 119.724 30.7875 108.816H68.6638L77.0817 141.668Z" fill="black"/>
<path opacity="0.2" d="M32.2939 108.098L30.7964 108.816H68.6727L70.1791 108.094C70.1986 108.085 70.2144 108.069 70.2237 108.05C70.233 108.03 70.2352 108.008 70.23 107.987C70.2247 107.966 70.2124 107.948 70.195 107.935C70.1776 107.922 70.1563 107.916 70.1348 107.917H33.0958C32.8183 107.916 32.5442 107.978 32.2939 108.098V108.098Z" fill="white"/>
<path d="M55.7754 123.906C55.8458 124.657 55.692 125.411 55.3336 126.074C54.9752 126.737 54.4281 127.279 53.7617 127.631C53.0953 127.983 52.3395 128.13 51.5898 128.052C50.8401 127.975 50.1302 127.677 49.55 127.195C48.9698 126.714 48.5453 126.072 48.3301 125.35C48.115 124.627 48.1189 123.858 48.3414 123.137C48.5639 122.417 48.995 121.779 49.5801 121.304C50.1652 120.829 50.8781 120.538 51.6285 120.468C52.1266 120.421 52.6291 120.473 53.1072 120.621C53.5853 120.768 54.0297 121.008 54.4149 121.328C54.8 121.647 55.1185 122.039 55.3519 122.482C55.5854 122.924 55.7293 123.408 55.7754 123.906Z" fill="#FF5050"/>
<path opacity="0.4" d="M70.6575 108.364L79.1641 141.593L77.0818 141.673L68.6638 108.821L70.1259 108.121C70.1762 108.097 70.2312 108.084 70.287 108.084C70.3428 108.083 70.398 108.095 70.4487 108.118C70.4994 108.141 70.5444 108.175 70.5805 108.218C70.6166 108.261 70.6429 108.31 70.6575 108.364V108.364Z" fill="black"/>
</svg>
