<svg width="176" height="148" viewBox="0 0 176 148" fill="none" xmlns="http://www.w3.org/2000/svg">
<path d="M91.9133 65.4959C91.9133 65.4959 71.0617 65.772 70.412 67.2566C69.7624 68.7411 66.7966 86.7211 66.6114 92.919C66.4262 99.117 66.3353 103.207 66.9817 103.947C67.6282 104.688 77.734 110.529 77.734 110.529C77.734 110.529 73.0075 127.118 74.4856 127.677C75.9636 128.236 85.0526 130.549 90.89 130.643C96.7274 130.737 102.477 130.734 102.942 130.734C103.406 130.734 118.326 131.289 123.517 130.084C128.708 128.879 130.28 128.785 130.28 126.748C130.28 124.711 128.981 122.2 128.89 121.745C128.799 121.291 132.414 86.1526 130.374 77.5345C128.334 68.9165 125.648 65.5771 123.608 65.0217C121.568 64.4662 107.018 64.8365 107.018 64.8365L91.9133 65.4959Z" fill="#FF5050"/>
<path d="M110.942 131.043C108.669 131.043 106.132 131.007 103.396 130.929H102.945C101.905 130.929 96.4481 130.929 90.8933 130.838C84.9585 130.744 75.8759 128.402 74.4336 127.859C74.1088 127.742 73.3714 127.463 75.4081 118.89C76.2982 115.116 77.3572 111.357 77.5521 110.639C76.3989 109.973 67.4982 104.808 66.8713 104.087C66.1859 103.304 66.2638 99.5394 66.4587 92.9484C66.6472 86.6692 69.6617 68.6145 70.2724 67.2145C70.9221 65.7105 88.4148 65.4019 91.9198 65.3564L107.025 64.7067C107.623 64.6905 121.643 64.3429 123.663 64.8984C124.917 65.2232 128.091 67.1528 130.547 77.5282C132.226 84.6292 130.115 109.278 129.319 118.556C129.166 120.339 129.056 121.629 129.065 121.755C129.138 121.981 129.223 122.204 129.319 122.421C129.715 123.396 130.456 125.228 130.456 126.781C130.456 128.73 129.134 129.016 125.203 129.902L123.579 130.276C121.337 130.789 116.955 131.043 110.942 131.043ZM116.254 64.8984C111.839 64.8984 107.109 65.0153 107.025 65.0185L91.9198 65.6682C83.8962 65.7754 71.0065 66.3179 70.5647 67.3314C69.9573 68.7185 66.9655 86.6887 66.7771 92.9451C66.6147 98.4122 66.4717 103.135 67.1019 103.863C67.6184 104.454 75.0086 108.788 77.8217 110.409C77.853 110.427 77.8773 110.455 77.8909 110.488C77.9044 110.522 77.9063 110.559 77.8964 110.594C75.5868 118.679 73.706 127.216 74.5473 127.541C75.9798 128.077 85.0007 130.403 90.8965 130.497C96.4546 130.584 101.905 130.588 102.945 130.588H103.406C113.317 130.867 120.447 130.636 123.481 129.938C124.076 129.798 124.622 129.678 125.122 129.564C128.961 128.697 130.121 128.434 130.121 126.758C130.121 125.27 129.397 123.48 129.007 122.519C128.901 122.28 128.81 122.035 128.734 121.785C128.718 121.69 128.763 121.119 128.987 118.504C129.78 109.239 131.888 84.6325 130.219 77.5737C127.805 67.3671 124.764 65.5091 123.569 65.181C122.715 64.9666 119.574 64.8984 116.254 64.8984Z" fill="#263238"/>
<path d="M100.853 74.2148C100.821 74.2153 100.79 74.2063 100.763 74.189C100.737 74.1716 100.716 74.1467 100.703 74.1174C100.695 74.0977 100.69 74.0766 100.69 74.0552C100.689 74.0338 100.693 74.0125 100.701 73.9926C100.709 73.9727 100.721 73.9545 100.736 73.9391C100.75 73.9237 100.768 73.9114 100.788 73.903C101.527 73.5875 102.245 73.2262 102.938 72.8212C102.957 72.8106 102.977 72.8037 102.999 72.8009C103.02 72.7982 103.041 72.7996 103.062 72.8052C103.083 72.8108 103.102 72.8204 103.119 72.8334C103.136 72.8465 103.15 72.8628 103.161 72.8813C103.172 72.8999 103.178 72.9204 103.181 72.9416C103.184 72.9628 103.183 72.9844 103.177 73.005C103.171 73.0257 103.162 73.0451 103.149 73.062C103.136 73.079 103.119 73.0932 103.101 73.1039C102.396 73.5149 101.665 73.8816 100.915 74.2018C100.895 74.2108 100.874 74.2152 100.853 74.2148Z" fill="#263238"/>
<path d="M104.001 72.5192C103.974 72.5189 103.948 72.5123 103.924 72.4999C103.9 72.4875 103.88 72.4696 103.864 72.4477C103.841 72.4115 103.833 72.3676 103.842 72.3255C103.851 72.2835 103.877 72.2468 103.913 72.2235C106.495 70.5036 108.762 68.3521 110.614 65.8632C110.627 65.8456 110.642 65.8306 110.661 65.8192C110.679 65.8077 110.699 65.7999 110.72 65.7963C110.741 65.7927 110.763 65.7933 110.784 65.798C110.805 65.8028 110.824 65.8117 110.842 65.8242C110.859 65.8362 110.874 65.8516 110.886 65.8694C110.897 65.8872 110.905 65.9072 110.908 65.9281C110.912 65.9489 110.911 65.9703 110.907 65.991C110.902 66.0116 110.893 66.0311 110.881 66.0483C109.004 68.5696 106.707 70.7496 104.092 72.4932C104.065 72.511 104.033 72.5201 104.001 72.5192Z" fill="#263238"/>
<path d="M105.911 73.4287C105.882 73.4284 105.853 73.4205 105.828 73.4057C105.803 73.3908 105.782 73.3696 105.768 73.3442C105.757 73.3255 105.751 73.3049 105.749 73.2836C105.746 73.2623 105.748 73.2408 105.754 73.2203C105.76 73.1998 105.77 73.1806 105.784 73.164C105.797 73.1473 105.814 73.1335 105.833 73.1233C107.457 72.2528 109.357 69.5988 109.377 69.5728C109.388 69.5534 109.404 69.5367 109.422 69.5236C109.44 69.5104 109.461 69.5013 109.483 69.4966C109.505 69.492 109.528 69.492 109.55 69.4966C109.572 69.5013 109.593 69.5104 109.611 69.5235C109.629 69.5366 109.645 69.5534 109.656 69.5728C109.668 69.5921 109.675 69.6137 109.678 69.636C109.68 69.6584 109.679 69.6811 109.672 69.7026C109.665 69.7242 109.655 69.7441 109.64 69.7612C109.562 69.8717 107.691 72.5029 105.985 73.4092C105.963 73.4221 105.937 73.4289 105.911 73.4287Z" fill="#263238"/>
<path d="M96.2597 99.5261C96.2255 99.5257 96.1923 99.5144 96.1649 99.494C96.1375 99.4736 96.1173 99.4451 96.107 99.4124L95.5613 97.7168C95.5542 97.6965 95.5513 97.6751 95.5528 97.6537C95.5542 97.6323 95.5599 97.6114 95.5697 97.5923C95.5794 97.5732 95.5928 97.5563 95.6093 97.5425C95.6257 97.5287 95.6447 97.5184 95.6652 97.5121C95.7061 97.4988 95.7507 97.5023 95.789 97.5218C95.8274 97.5413 95.8565 97.5752 95.8699 97.6161L96.4156 99.3117C96.4289 99.3527 96.4255 99.3972 96.406 99.4356C96.3865 99.4739 96.3526 99.503 96.3116 99.5164C96.2951 99.5228 96.2774 99.5261 96.2597 99.5261Z" fill="#263238"/>
<path d="M99.2352 108.765C99.2009 108.765 99.1675 108.754 99.14 108.733C99.1125 108.713 99.0924 108.684 99.0826 108.651L96.6657 101.151C96.6524 101.107 96.6567 101.061 96.6777 101.021C96.6987 100.981 96.7347 100.951 96.7778 100.938C96.8209 100.924 96.8675 100.929 96.9074 100.95C96.9473 100.971 96.9772 101.007 96.9906 101.05L99.4074 108.554C99.4198 108.595 99.416 108.639 99.3966 108.677C99.3772 108.715 99.3439 108.744 99.3035 108.758L99.2352 108.765Z" fill="#263238"/>
<path d="M99.9791 108.95C99.9478 108.951 99.9169 108.942 99.8914 108.924C99.8732 108.913 99.8575 108.898 99.845 108.881C99.8326 108.863 99.8237 108.844 99.8189 108.823C99.814 108.802 99.8134 108.78 99.8169 108.759C99.8204 108.738 99.8281 108.718 99.8394 108.7L102.25 104.902C102.261 104.884 102.275 104.868 102.293 104.855C102.31 104.842 102.33 104.833 102.351 104.829C102.372 104.824 102.393 104.823 102.415 104.827C102.436 104.831 102.456 104.839 102.474 104.85C102.51 104.874 102.535 104.91 102.545 104.952C102.555 104.994 102.548 105.038 102.526 105.075L100.116 108.875C100.101 108.898 100.08 108.917 100.057 108.93C100.033 108.943 100.006 108.95 99.9791 108.95Z" fill="#263238"/>
<path d="M105.446 106.725C105.414 106.726 105.383 106.718 105.356 106.701C105.329 106.684 105.308 106.659 105.295 106.63C105.282 106.602 105.278 106.569 105.284 106.538C105.289 106.507 105.304 106.478 105.326 106.455L111.173 99.8739C111.202 99.8415 111.243 99.822 111.286 99.8196C111.329 99.8172 111.371 99.832 111.404 99.8609C111.436 99.8897 111.456 99.9302 111.458 99.9735C111.46 100.017 111.446 100.059 111.417 100.091L105.57 106.673C105.554 106.69 105.535 106.703 105.514 106.712C105.492 106.721 105.469 106.726 105.446 106.725Z" fill="#263238"/>
<path d="M102.945 130.916H102.899L90.3183 127.248C90.2979 127.242 90.2788 127.232 90.2621 127.219C90.2455 127.206 90.2317 127.189 90.2214 127.171C90.2111 127.152 90.2047 127.131 90.2023 127.11C90.2 127.089 90.2019 127.067 90.2079 127.047C90.2135 127.026 90.2232 127.007 90.2364 126.99C90.2497 126.973 90.2662 126.959 90.285 126.949C90.3039 126.938 90.3246 126.932 90.3459 126.93C90.3673 126.928 90.3888 126.93 90.4093 126.937L102.987 130.597C103.03 130.604 103.069 130.626 103.095 130.661C103.122 130.696 103.133 130.74 103.127 130.783C103.121 130.826 103.098 130.865 103.063 130.891C103.028 130.917 102.985 130.928 102.942 130.922L102.945 130.916Z" fill="#263238"/>
<path d="M88.8825 126.819H88.8371L86.6801 126.189C86.637 126.177 86.6005 126.148 86.5786 126.11C86.5566 126.071 86.5511 126.024 86.5632 125.981C86.5752 125.938 86.6039 125.902 86.6429 125.88C86.6819 125.858 86.728 125.852 86.7711 125.864L88.928 126.495C88.9485 126.501 88.9676 126.511 88.9842 126.524C89.0008 126.537 89.0147 126.554 89.0249 126.572C89.0352 126.591 89.0417 126.612 89.044 126.633C89.0463 126.654 89.0444 126.676 89.0385 126.696C89.0298 126.731 89.0098 126.762 88.9816 126.784C88.9534 126.807 88.9185 126.819 88.8825 126.819Z" fill="#263238"/>
<path d="M91.7834 24.2834C91.7834 24.2834 85.2378 22.7793 83.9872 24.462C82.7365 26.1447 85.2281 27.7364 84.874 28.0905C84.5199 28.4446 76.9089 32.3362 77.5261 36.1433C78.1433 39.9504 83.279 43.842 83.4577 44.914C83.6364 45.986 77.5261 46.3303 76.7302 47.922C75.9344 49.5138 74.7812 57.0371 81.4209 59.5156C88.0607 61.9942 96.3636 57.833 98.6765 57.833C100.989 57.833 103.28 62.3482 105.933 62.0819C107.55 61.8969 109.037 61.1065 110.095 59.8697C110.095 59.8697 112.836 63.6768 116.819 62.0819C120.801 60.4869 125.404 54.9126 123.459 53.2332C121.513 51.5538 119.297 51.021 120.714 49.517C122.13 48.013 125.05 44.0304 124.612 40.5774C124.173 37.1243 120.097 36.8612 118.505 35.799C116.913 34.7367 120.275 32.9664 120.187 30.046C120.1 27.1257 117.972 22.2499 107.178 19.0014C96.3831 15.753 91.072 17.3188 90.5392 20.0637C90.3727 20.8148 90.3995 21.596 90.6171 22.334C90.8347 23.072 91.236 23.7427 91.7834 24.2834Z" fill="#263238"/>
<path d="M114.896 62.6211C112.365 62.6211 110.579 60.6948 110.101 60.1166C109.027 61.3088 107.554 62.0667 105.959 62.2476C104.481 62.397 103.143 61.1659 101.853 59.9737C100.749 58.9537 99.703 57.9922 98.6862 57.9922C98.0658 57.9922 96.9516 58.317 95.5418 58.7328C91.8223 59.821 86.1993 61.4647 81.3755 59.6651C79.0691 58.8043 77.4774 57.2743 76.6198 55.1173C75.4828 52.2197 76.0416 48.9453 76.5938 47.8474C77.0486 46.9411 78.9846 46.4343 80.6933 45.9893C81.8855 45.6644 83.3667 45.2909 83.292 44.9368C83.2173 44.5827 82.5579 43.8811 81.7685 43.03C80.18 41.3116 77.7762 38.7161 77.3637 36.1758C76.8212 32.8462 82.1551 29.5848 84.1658 28.3569C84.4452 28.1847 84.7116 28.0321 84.7538 27.9801C84.6483 27.802 84.5288 27.6325 84.3965 27.4733C83.8572 26.7717 82.9542 25.5925 83.854 24.3711C84.9455 22.8898 89.7011 23.7214 91.2994 24.0235C90.8579 23.4664 90.5468 22.8174 90.3889 22.1244C90.2309 21.4313 90.2301 20.7116 90.3866 20.0182C90.4838 19.6002 90.6691 19.2078 90.9301 18.8672C91.1912 18.5266 91.5219 18.2457 91.9003 18.0432C94.6062 16.419 100.197 16.6984 107.23 18.8326C118.456 22.2369 120.272 27.3174 120.356 30.0461C120.399 31.5144 119.613 32.687 118.979 33.6193C118.547 34.269 118.177 34.8147 118.255 35.2143C118.28 35.3077 118.323 35.395 118.383 35.471C118.443 35.5469 118.517 35.6099 118.602 35.6561C119.144 35.9693 119.718 36.2241 120.314 36.4162C122.156 37.0984 124.446 37.9495 124.777 40.5514C125.213 43.946 122.504 47.8506 120.84 49.621C120.718 49.7226 120.619 49.8495 120.55 49.9931C120.481 50.1366 120.444 50.2934 120.441 50.4526C120.493 50.9269 121.133 51.3589 121.945 51.9014C122.51 52.2692 123.052 52.6706 123.569 53.1033C123.789 53.3125 123.95 53.5765 124.034 53.8681C124.119 54.1599 124.124 54.4688 124.05 54.7632C123.641 57.206 120.025 60.9709 116.887 62.2346C116.254 62.4887 115.578 62.6199 114.896 62.6211ZM110.104 59.6976C110.129 59.6979 110.154 59.7043 110.176 59.7162C110.198 59.7281 110.217 59.7451 110.231 59.7658C110.26 59.8015 112.95 63.4495 116.767 61.9227C119.82 60.7013 123.335 57.0501 123.728 54.708C123.829 54.1038 123.706 53.6458 123.358 53.3469C122.85 52.9256 122.317 52.5351 121.763 52.1775C120.883 51.5863 120.187 51.1185 120.116 50.4981C120.113 50.2908 120.155 50.0854 120.24 49.8962C120.324 49.7071 120.45 49.5388 120.607 49.4034C122.12 47.7792 124.878 43.8811 124.456 40.5969C124.147 38.1931 121.958 37.381 120.2 36.7281C119.581 36.5275 118.984 36.2618 118.42 35.9354C118.3 35.8654 118.195 35.7717 118.112 35.66C118.029 35.5484 117.969 35.4211 117.936 35.2858C117.832 34.7563 118.219 34.1781 118.709 33.4472C119.317 32.5441 120.071 31.4202 120.032 30.0558C119.95 27.4149 118.17 22.4903 107.135 19.1444C100.19 17.0362 94.6972 16.7373 92.0692 18.3226C91.73 18.5017 91.4328 18.7511 91.1976 19.0542C90.9623 19.3572 90.7944 19.7069 90.7049 20.08C90.5417 20.8068 90.5648 21.5632 90.7721 22.2787C90.9793 22.9943 91.3641 23.6459 91.8906 24.1729C91.9175 24.1974 91.9359 24.2299 91.9429 24.2656C91.9499 24.3013 91.9453 24.3383 91.9295 24.3711C91.9131 24.4035 91.8862 24.4294 91.8532 24.4448C91.8202 24.4601 91.783 24.4639 91.7476 24.4556C89.9545 24.043 85.0916 23.2634 84.1269 24.5693C83.3732 25.5958 84.1269 26.5703 84.6661 27.2849C84.9909 27.6975 85.2151 27.9996 84.9909 28.2172C84.7852 28.3749 84.568 28.5172 84.3413 28.6428C82.5709 29.7245 77.1948 33.0151 77.6918 36.1304C78.0881 38.5732 80.4497 41.1264 82.0154 42.8156C82.9412 43.8161 83.5519 44.4755 83.6201 44.8913C83.7273 45.541 82.4864 45.8658 80.7713 46.3109C79.2088 46.7169 77.2662 47.2237 76.8732 48C76.3599 49.0265 75.8207 52.2392 76.9089 55.0036C77.3054 56.0202 77.9198 56.9376 78.7089 57.6913C79.4979 58.445 80.4425 59.0167 81.4762 59.3662C86.1993 61.1301 91.7574 59.5027 95.4443 58.4274C96.8801 58.0084 98.0106 57.6738 98.6927 57.6738C99.8362 57.6738 100.928 58.6776 102.081 59.7398C103.318 60.88 104.598 62.0559 105.933 61.9227C107.504 61.7384 108.949 60.9709 109.981 59.7723C109.995 59.7513 110.013 59.7337 110.034 59.7208C110.056 59.7078 110.08 59.6999 110.104 59.6976Z" fill="#263238"/>
<path d="M92.9626 52.6778C92.9626 52.6778 90.7504 66.4835 90.6627 66.9253C90.575 67.3671 94.5608 71.3497 99.9531 70.6415C103.112 70.2618 106.015 68.7165 108.094 66.3081L106.414 52.5901C106.414 52.5901 101.811 54.8023 98.9786 54.7145C96.146 54.6268 92.9626 52.6778 92.9626 52.6778Z" fill="#FFDCDC"/>
<path d="M98.6797 70.8884C95.7816 70.841 93.0134 69.6774 90.9518 67.6399C90.4548 67.1104 90.4905 66.9415 90.5035 66.8766C90.5879 66.4445 92.7774 52.7752 92.8001 52.6355C92.8048 52.6093 92.8158 52.5845 92.8321 52.5634C92.8485 52.5423 92.8696 52.5254 92.8939 52.5143C92.9181 52.5031 92.9447 52.498 92.9714 52.4993C92.998 52.5006 93.024 52.5083 93.047 52.5218C93.0795 52.5413 96.2304 54.4481 98.9851 54.5358C101.74 54.6236 106.297 52.4504 106.343 52.4276C106.366 52.4157 106.391 52.4094 106.417 52.4094C106.443 52.4094 106.469 52.4157 106.492 52.4276C106.514 52.4405 106.533 52.4584 106.547 52.4798C106.561 52.5012 106.57 52.5256 106.573 52.5511L108.256 66.2659C108.259 66.287 108.257 66.3086 108.252 66.3292C108.246 66.3498 108.237 66.3691 108.224 66.3861C106.111 68.8193 103.174 70.3858 99.9759 70.7844C99.5466 70.8475 99.1136 70.8822 98.6797 70.8884ZM93.086 52.9376C92.7839 54.8185 90.903 66.5452 90.8121 66.9578C90.8803 67.3606 94.655 71.1807 99.9076 70.4823C102.996 70.0925 105.837 68.5913 107.899 66.2594L106.281 52.8272C105.345 53.2592 101.509 54.9516 98.9753 54.8737C96.5163 54.799 93.8429 53.3729 93.086 52.9376Z" fill="#263238"/>
<path d="M92.053 60.0841L101.373 58.2812L92.9625 52.6777L92.053 60.0841Z" fill="#263238"/>
<path d="M92.053 60.2467C92.0124 60.2456 91.9735 60.2307 91.9425 60.2045C91.9243 60.1864 91.9105 60.1644 91.9021 60.1402C91.8936 60.116 91.8908 60.0902 91.8938 60.0648L92.8001 52.6584C92.8034 52.6309 92.8139 52.6048 92.8304 52.5825C92.8469 52.5603 92.8689 52.5428 92.8943 52.5317C92.9189 52.5189 92.9462 52.5122 92.9739 52.5122C93.0016 52.5122 93.0289 52.5189 93.0535 52.5317L101.46 58.1385C101.488 58.1556 101.509 58.1806 101.522 58.2102C101.535 58.2398 101.538 58.2725 101.532 58.3041C101.525 58.3358 101.509 58.3647 101.486 58.3873C101.463 58.4099 101.434 58.425 101.402 58.4308L92.0855 60.2337L92.053 60.2467ZM93.0925 52.9605L92.2414 59.8829L100.95 58.1969L93.0925 52.9605Z" fill="#263238"/>
<path d="M88.0444 40.5061C88.0444 40.5061 86.4852 38.531 85.7705 41.0258C85.0559 43.5206 88.1614 46.5481 88.1614 46.5481L88.0444 40.5061Z" fill="#FFDCDC"/>
<path d="M88.1484 46.6974C88.1099 46.6956 88.0733 46.6807 88.0444 46.6552C87.9145 46.5285 84.8642 43.5432 85.6114 40.9834C85.8485 40.1713 86.2058 39.7133 86.6736 39.6223C87.4337 39.4762 88.1516 40.3695 88.1809 40.4085C88.2036 40.4359 88.2162 40.4703 88.2166 40.5059L88.3206 46.535C88.3205 46.567 88.3113 46.5984 88.294 46.6255C88.2768 46.6525 88.2522 46.6741 88.2231 46.6876C88.1988 46.6946 88.1736 46.6978 88.1484 46.6974ZM86.849 39.9277C86.8123 39.9243 86.7753 39.9243 86.7386 39.9277C86.4137 39.9927 86.1246 40.3857 85.9265 41.0614C85.3645 42.9909 87.2518 45.3038 87.9925 46.1127L87.895 40.5546C87.6969 40.3467 87.2486 39.9277 86.836 39.9277H86.849Z" fill="#263238"/>
<path d="M110.384 40.5061C110.384 40.5061 111.943 38.531 112.658 41.0258C113.372 43.5206 110.267 46.5481 110.267 46.5481L110.384 40.5061Z" fill="#FFDCDC"/>
<path d="M110.28 46.6976C110.258 46.7009 110.236 46.7009 110.215 46.6976C110.185 46.685 110.16 46.6637 110.142 46.6364C110.125 46.6092 110.116 46.5772 110.117 46.5449L110.221 40.5158C110.222 40.4808 110.234 40.4469 110.254 40.4184C110.286 40.3794 111.007 39.4828 111.761 39.6323C112.232 39.7232 112.589 40.1812 112.827 40.9933C113.57 43.5531 110.52 46.5384 110.39 46.6651C110.359 46.6893 110.319 46.7009 110.28 46.6976ZM110.543 40.5646L110.458 46.1226C111.196 45.3137 113.086 43.0009 112.524 41.0713C112.326 40.3956 112.044 40.0026 111.709 39.9376C111.261 39.8532 110.748 40.3274 110.543 40.5646Z" fill="#263238"/>
<path d="M92.9431 28.0256C92.9431 28.0256 88.4797 32.3623 87.8333 33.6616C87.1869 34.961 87.4467 49.7673 88.1581 51.203C88.8695 52.6388 95.9836 58.1904 97.1465 58.6419C98.3094 59.0934 100.963 59.5482 103.033 58.512C105.102 57.4757 110.082 52.1743 110.601 50.8165C111.121 49.4587 110.471 33.9247 110.147 32.4467C109.822 30.9687 102.013 25.6316 98.6992 25.3749C95.3859 25.1183 92.9431 28.0256 92.9431 28.0256Z" fill="#FFDCDC"/>
<path d="M100.064 59.2786C99.0466 59.284 98.0365 59.1125 97.0783 58.7718C95.8277 58.2846 88.7234 52.6941 88.0022 51.255C87.2811 49.816 87.0017 34.9317 87.6774 33.5804C88.3271 32.281 92.55 28.1588 92.8131 27.9152C92.9755 27.7235 95.4119 24.9526 98.7025 25.2125C101.915 25.4659 109.932 30.7088 110.296 32.3882C110.598 33.7851 111.271 49.4586 110.741 50.8522C110.186 52.314 105.144 57.6122 103.094 58.6484C102.146 59.0879 101.109 59.3035 100.064 59.2786ZM98.277 25.5211C95.3014 25.5211 93.0795 28.1036 93.0568 28.1198C93.0113 28.1621 88.6064 32.45 87.9795 33.7038C87.3526 34.9577 87.6287 49.738 88.3043 51.0861C88.98 52.4342 96.0226 57.9825 97.2082 58.4437C98.4556 58.9278 101.015 59.2948 102.964 58.3203C105.053 57.2776 109.974 51.9664 110.452 50.7125C110.975 49.3417 110.293 33.8208 109.991 32.437C109.689 31.0531 101.948 25.7907 98.6863 25.5406C98.5531 25.5406 98.4199 25.5211 98.2867 25.5211H98.277Z" fill="#263238"/>
<path d="M96.4513 25.3749C96.4513 25.3749 103.137 31.4754 107.944 31.7093L112.755 31.9432C112.755 31.9432 102.198 30.5366 98.9136 23.3836C98.9136 23.3836 95.2787 20.3431 96.4513 25.3749Z" fill="#263238"/>
<path d="M112.755 32.1055L107.947 31.8717C103.137 31.6378 96.6268 25.7484 96.3506 25.495C96.3271 25.473 96.3102 25.4449 96.3019 25.4138C95.9153 23.7506 95.9998 22.7761 96.5618 22.4318C97.3934 21.9218 98.8649 23.1204 99.0273 23.2569C99.0469 23.2725 99.0625 23.2925 99.0728 23.3153C102.282 30.3059 112.68 31.7612 112.784 31.784C112.826 31.7889 112.865 31.8099 112.891 31.8427C112.918 31.8754 112.931 31.9173 112.927 31.9594C112.922 32.001 112.902 32.0392 112.87 32.0663C112.838 32.0935 112.797 32.1075 112.755 32.1055ZM96.5975 25.2839C97.1432 25.7711 103.442 31.3194 107.967 31.5403L110.683 31.6735C107.434 30.8549 101.194 28.6557 98.7967 23.4778C98.3744 23.1302 97.2602 22.3798 96.7339 22.7014C96.4351 22.8833 96.185 23.4745 96.5975 25.2904V25.2839Z" fill="#263238"/>
<path d="M100.713 44.1638C100.672 44.164 100.633 44.1486 100.603 44.1209C100.573 44.0932 100.554 44.0552 100.551 44.0144L100.034 37.4818C100.033 37.4605 100.035 37.4391 100.042 37.4187C100.048 37.3983 100.059 37.3795 100.073 37.3632C100.087 37.3469 100.104 37.3335 100.123 37.3238C100.142 37.314 100.162 37.3081 100.184 37.3064C100.205 37.3047 100.227 37.3072 100.247 37.3138C100.267 37.3204 100.286 37.3309 100.302 37.3448C100.319 37.3587 100.332 37.3756 100.342 37.3947C100.352 37.4137 100.357 37.4345 100.359 37.4559L100.876 43.9884C100.877 44.0098 100.875 44.0312 100.868 44.0516C100.862 44.072 100.851 44.0909 100.837 44.1072C100.824 44.1235 100.807 44.1369 100.788 44.1466C100.768 44.1563 100.748 44.1622 100.726 44.1638H100.713Z" fill="#263238"/>
<path d="M99.2157 47.2692C98.3127 47.2692 97.4486 46.2946 97.4129 46.2427C97.3977 46.2269 97.3858 46.2081 97.3781 46.1876C97.3703 46.1671 97.3668 46.1453 97.3677 46.1234C97.3686 46.1014 97.374 46.08 97.3834 46.0602C97.3929 46.0404 97.4062 46.0227 97.4227 46.0082C97.4392 45.9937 97.4584 45.9827 97.4792 45.9759C97.5 45.969 97.522 45.9665 97.5439 45.9683C97.5657 45.9702 97.587 45.9765 97.6063 45.9868C97.6257 45.9971 97.6427 46.0112 97.6565 46.0283C97.6565 46.0283 98.4621 46.9443 99.2157 46.9443C99.8362 46.9443 100.775 45.7359 101.087 45.2714C101.098 45.2534 101.113 45.2379 101.131 45.2259C101.149 45.2138 101.168 45.2054 101.189 45.2012C101.21 45.1969 101.232 45.1969 101.253 45.2012C101.274 45.2054 101.293 45.2139 101.311 45.2259C101.347 45.2497 101.371 45.2867 101.38 45.3286C101.388 45.3706 101.38 45.4143 101.356 45.4501C101.233 45.6352 100.119 47.2692 99.2157 47.2692Z" fill="#263238"/>
<path d="M98.1892 50.2642C97.9911 50.2642 97.7897 50.2642 97.5883 50.2447C95.5873 50.1115 94.0962 47.6817 94.0313 47.5778C94.0202 47.5594 94.0128 47.5391 94.0096 47.5179C94.0064 47.4967 94.0073 47.4751 94.0125 47.4543C94.0176 47.4334 94.0268 47.4138 94.0395 47.3966C94.0522 47.3793 94.0682 47.3647 94.0865 47.3536C94.1048 47.3425 94.1252 47.3352 94.1464 47.3319C94.1676 47.3287 94.1892 47.3297 94.21 47.3348C94.2308 47.3399 94.2504 47.3491 94.2677 47.3618C94.2849 47.3745 94.2995 47.3905 94.3106 47.4089C94.3106 47.4348 95.7789 49.7964 97.611 49.9199C98.9436 49.965 100.276 49.814 101.564 49.4716C101.607 49.4595 101.654 49.4651 101.693 49.487C101.731 49.5089 101.76 49.5455 101.772 49.5885C101.784 49.6316 101.779 49.6777 101.757 49.7167C101.735 49.7557 101.698 49.7844 101.655 49.7964C100.523 50.0913 99.3592 50.2484 98.1892 50.2642Z" fill="#263238"/>
<path d="M100.963 36.4355C100.963 36.4355 103.237 34.7528 104.131 34.1616C105.024 33.5704 107.947 34.6781 107.947 34.6781C107.947 34.6781 105.748 33.4502 104.585 33.2553C103.422 33.0604 101.028 34.7431 100.833 35.5292C100.639 36.3153 100.064 36.1107 100.963 36.4355Z" fill="#263238"/>
<path d="M100.963 36.5852C100.945 36.5883 100.926 36.5883 100.908 36.5852C100.479 36.4325 100.353 36.387 100.314 36.2603C100.307 36.2098 100.312 36.1582 100.331 36.1105C100.349 36.0628 100.379 36.0204 100.418 35.9875C100.545 35.8514 100.634 35.6846 100.678 35.5034C100.889 34.6556 103.341 32.9047 104.611 33.1191C105.791 33.314 107.938 34.5094 108.029 34.5582C108.064 34.5787 108.091 34.6116 108.103 34.6506C108.116 34.6896 108.114 34.7319 108.097 34.7693C108.08 34.8067 108.049 34.8361 108.011 34.8518C107.973 34.8675 107.931 34.8682 107.892 34.8538C107.103 34.5549 104.907 33.8792 104.222 34.321C103.328 34.8927 101.084 36.5624 101.061 36.5787C101.03 36.5895 100.996 36.5918 100.963 36.5852ZM100.687 36.1466L100.937 36.2408C101.324 35.9517 103.234 34.5419 104.043 34.0222C104.507 33.7233 105.394 33.811 106.213 33.9897C105.686 33.7335 105.131 33.5395 104.559 33.4115C103.484 33.2361 101.165 34.8668 100.986 35.5554C100.94 35.7791 100.837 35.9872 100.687 36.1596V36.1466Z" fill="#263238"/>
<path d="M96.3051 36.7445C96.1863 36.4627 95.9891 36.2211 95.7368 36.0483C95.4845 35.8755 95.1879 35.7789 94.8823 35.7699C93.7844 35.705 88.9312 37.0011 89.7726 37.0011C90.6139 37.0011 94.106 36.9361 95.0123 36.9361C95.4519 36.9634 95.8923 36.8981 96.3051 36.7445Z" fill="#263238"/>
<path d="M89.7726 37.1666C89.7273 37.1729 89.6812 37.1665 89.6393 37.1482C89.5974 37.1298 89.5615 37.1002 89.5355 37.0626C89.5204 37.0353 89.5125 37.0045 89.5125 36.9733C89.5125 36.9421 89.5204 36.9113 89.5355 36.884C89.7336 36.5591 93.9858 35.5554 94.8856 35.6106C95.2229 35.6196 95.5504 35.7263 95.8283 35.9178C96.1062 36.1092 96.3226 36.3771 96.4513 36.6891C96.4646 36.7264 96.464 36.7673 96.4497 36.8042C96.4354 36.8412 96.4083 36.8718 96.3734 36.8905C95.9369 37.0544 95.4713 37.1262 95.0058 37.1016C94.5445 37.1016 93.4141 37.1016 92.3031 37.1341C91.1921 37.1666 90.1851 37.1666 89.7726 37.1666ZM94.7881 35.9354C93.9695 35.9354 91.6892 36.4844 90.51 36.8352L92.3064 36.8093C93.4173 36.793 94.551 36.7768 95.0123 36.7768C95.3725 36.7847 95.7321 36.7432 96.081 36.6533C95.9574 36.4392 95.7807 36.2606 95.5678 36.1348C95.355 36.0091 95.1133 35.9404 94.8661 35.9354H94.7881Z" fill="#263238"/>
<path d="M107.431 40.4441C106.455 40.6655 105.456 40.7745 104.455 40.7689C103.156 40.704 101.996 40.3142 102.506 40.8956C103.016 41.4771 104.059 41.9968 105.674 41.672C107.288 41.3471 107.882 41.0256 107.431 40.4441Z" fill="#263238"/>
<path d="M95.7237 40.4441C94.7475 40.6655 93.7491 40.7745 92.7482 40.7689C91.4488 40.704 90.2924 40.3142 90.7991 40.8956C91.3059 41.4771 92.3519 41.9968 93.9696 41.672C95.5873 41.3471 96.1655 41.0256 95.7237 40.4441Z" fill="#263238"/>
<path d="M74.1997 77.7231C74.1997 77.7231 76.1488 67.0033 77.0323 65.9541C77.9159 64.9048 87.5637 57.0144 88.0932 56.485C88.6227 55.9555 92.4298 50.1993 92.6085 50.9074C92.7871 51.6156 92.1667 54.7146 91.0135 56.394C89.8603 58.0734 88.2718 60.1134 88.2718 60.1134C88.2718 60.1134 94.2164 61.6174 94.5413 61.9715C94.8661 62.3256 96.9126 66.7304 97.0198 67.2794C97.2082 68.228 96.9353 69.2447 96.1362 69.3162C95.4086 69.3779 90.6497 66.9253 90.6497 66.9253L86.8555 67.4451C86.8555 67.4451 84.1139 70.8072 82.2525 71.4276C81.4177 71.733 80.5595 71.9698 79.6863 72.1358L79.7772 78.6846L74.1997 77.7231Z" fill="#FFDCDC"/>
<path d="M79.7772 78.8599H79.748L74.1737 77.8854C74.1305 77.8775 74.092 77.853 74.0665 77.8172C74.0431 77.7818 74.0338 77.7389 74.0405 77.697C74.1217 77.2585 76.0058 66.935 76.9089 65.8533C77.5001 65.1419 81.8075 61.5492 84.952 58.9277C86.5437 57.5991 87.8041 56.5499 87.9795 56.3712C88.1549 56.1925 88.6519 55.4974 89.2464 54.669C91.5592 51.4466 92.2446 50.628 92.5857 50.693C92.6297 50.7021 92.67 50.7239 92.7017 50.7557C92.7334 50.7874 92.7552 50.8277 92.7644 50.8716C92.956 51.6383 92.3161 54.786 91.1402 56.4914C90.2046 57.8525 88.9702 59.4669 88.5414 60.0192C89.9253 60.3732 94.3171 61.5167 94.6615 61.8578C95.0058 62.1988 97.0685 66.6752 97.1822 67.2534C97.2584 67.5571 97.2732 67.8731 97.2258 68.1826C97.1784 68.4922 97.0697 68.7892 96.9061 69.0562C96.8178 69.1765 96.705 69.2767 96.5751 69.3501C96.4451 69.4234 96.3011 69.4683 96.1525 69.4818C95.4118 69.5467 91.2799 67.4418 90.6302 67.0974L86.94 67.6074C86.5794 68.046 84.0846 71.002 82.3045 71.5932C81.5028 71.8767 80.6836 72.1078 79.8519 72.2852L79.9397 78.6943C79.9393 78.7183 79.9339 78.742 79.9238 78.7638C79.9138 78.7856 79.8992 78.8051 79.8812 78.821C79.8516 78.8447 79.8151 78.8583 79.7772 78.8599ZM74.4011 77.5898L79.5986 78.4896L79.5109 72.1357C79.5113 72.096 79.5259 72.0578 79.5522 72.028C79.5784 71.9982 79.6145 71.9788 79.6538 71.9733C80.5171 71.8086 81.3656 71.574 82.1908 71.2717C83.9807 70.6739 86.6899 67.3736 86.7158 67.3411C86.7422 67.3096 86.7792 67.2888 86.8198 67.2826L90.6432 66.7661C90.6755 66.76 90.709 66.7658 90.7374 66.7824C92.563 67.7211 95.649 69.2024 96.1362 69.1537C96.2398 69.1445 96.3402 69.1131 96.4304 69.0615C96.5207 69.0099 96.5988 68.9394 96.6592 68.8548C96.7955 68.6247 96.8849 68.3699 96.9222 68.1051C96.9596 67.8403 96.9442 67.5707 96.8769 67.3118C96.7599 66.7271 94.7362 62.3775 94.4438 62.0851C94.1677 61.8415 90.4872 60.841 88.2361 60.2693C88.2101 60.2625 88.1861 60.2494 88.1664 60.2312C88.1467 60.2129 88.1318 60.19 88.1232 60.1646C88.1145 60.1391 88.1122 60.112 88.1166 60.0854C88.121 60.0589 88.1319 60.0339 88.1484 60.0127C88.1484 59.9899 89.7499 57.9597 90.8836 56.303C92.0173 54.6463 92.55 51.8624 92.472 51.0568C91.9783 51.4206 90.393 53.6328 89.5127 54.8574C88.8858 55.7313 88.392 56.4199 88.2134 56.5986C88.0347 56.7772 86.823 57.7875 85.1631 59.1746C82.2038 61.6401 77.734 65.3693 77.159 66.058C76.4671 66.8863 74.9533 74.5103 74.4011 77.5898Z" fill="#263238"/>
<path d="M97.0328 67.4451C97.0063 67.4458 96.9801 67.4396 96.9567 67.427C96.9334 67.4145 96.9137 67.3961 96.8996 67.3737C95.8699 65.8567 94.1547 63.3814 93.9371 63.2092C93.7194 63.037 90.9745 62.6245 88.5349 62.2964C88.4919 62.2904 88.453 62.2675 88.4268 62.2327C88.4006 62.198 88.3892 62.1543 88.3953 62.1112C88.4013 62.0682 88.4242 62.0292 88.4589 62.003C88.4936 61.9769 88.5373 61.9655 88.5804 61.9716C89.8018 62.1372 93.8169 62.6927 94.1417 62.9461C94.4665 63.1995 96.8931 66.776 97.166 67.169C97.1783 67.1867 97.187 67.2066 97.1915 67.2276C97.196 67.2487 97.1963 67.2704 97.1924 67.2915C97.1885 67.3127 97.1804 67.3329 97.1686 67.3509C97.1568 67.3689 97.1416 67.3843 97.1237 67.3964C97.0987 67.4209 97.0671 67.4378 97.0328 67.4451Z" fill="#263238"/>
<path d="M96.8152 68.7865C96.7915 68.7865 96.7682 68.7813 96.7469 68.7712C96.7255 68.761 96.7067 68.7463 96.6917 68.728C95.9966 67.9257 94.6062 66.3437 94.3171 66.1C94.0832 65.9116 91.3416 65.21 88.876 64.6448C88.8343 64.6347 88.7983 64.6086 88.7758 64.5721C88.7532 64.5356 88.7461 64.4916 88.7559 64.4499C88.7604 64.429 88.7691 64.4092 88.7815 64.3918C88.7939 64.3744 88.8096 64.3596 88.8278 64.3484C88.846 64.3372 88.8662 64.3297 88.8874 64.3265C88.9085 64.3233 88.9301 64.3244 88.9508 64.3297C89.8116 64.5246 94.1482 65.5283 94.525 65.8532C94.9018 66.178 96.8541 68.4194 96.9386 68.5169C96.9527 68.5327 96.9635 68.5513 96.9704 68.5714C96.9772 68.5915 96.9799 68.6128 96.9784 68.634C96.9769 68.6552 96.9712 68.6758 96.9615 68.6948C96.9519 68.7137 96.9386 68.7305 96.9224 68.7443C96.8933 68.7715 96.855 68.7866 96.8152 68.7865Z" fill="#263238"/>
<path d="M96.9191 109.622C96.9191 109.622 89.9675 108.323 89.6914 108.232C89.4153 108.141 84.4939 106.657 83.8443 106.377C83.1946 106.098 75.3172 104.711 74.9468 105.266C74.5765 105.822 74.2062 109.067 74.112 109.343C74.0178 109.619 73.2772 110.918 73.4623 111.662C73.5623 112.338 73.5623 113.024 73.4623 113.699C73.4623 113.699 73.3681 118.055 74.4791 118.149C75.59 118.244 76.6133 114.069 76.6133 114.069C76.6133 114.069 78.1888 114.998 81.4307 115.184C84.6726 115.369 87.8268 113.793 87.8268 113.793L96.4546 115.846L96.9191 109.622Z" fill="#FFDCDC"/>
<path d="M74.5245 118.312H74.4758C73.2739 118.211 73.2934 114.449 73.3064 113.696C73.4046 113.035 73.4046 112.363 73.3064 111.701C73.144 111.052 73.5955 110.077 73.8391 109.567C73.8943 109.444 73.9398 109.346 73.9593 109.294C73.9788 109.242 74.0405 108.843 74.099 108.44C74.3264 106.942 74.5505 105.565 74.8104 105.175C75.2977 104.448 83.4317 106.023 83.9059 106.228C84.3802 106.432 87.4305 107.371 88.889 107.819L89.7303 108.076C89.9415 108.144 94.1579 108.943 96.9386 109.463C96.9781 109.47 97.0137 109.492 97.0383 109.524C97.0629 109.555 97.0748 109.595 97.0718 109.635L96.617 115.846C96.6158 115.87 96.6093 115.893 96.598 115.914C96.5868 115.934 96.5711 115.953 96.552 115.966C96.5333 115.981 96.5116 115.991 96.4885 115.995C96.4654 116 96.4415 115.999 96.4188 115.992L87.856 113.969C87.4207 114.173 84.4517 115.521 81.4307 115.349C78.78 115.197 77.2402 114.563 76.7302 114.313C76.4703 115.317 75.6063 118.312 74.5245 118.312ZM75.616 105.292C75.4339 105.273 75.2499 105.299 75.08 105.367C74.8461 105.718 74.5733 107.521 74.4303 108.489C74.3491 109.038 74.3069 109.304 74.2777 109.395C74.2484 109.486 74.2062 109.564 74.1412 109.704C73.9333 110.152 73.4915 111.091 73.6312 111.623C73.7365 112.319 73.7365 113.026 73.6312 113.722C73.5955 115.45 73.8424 117.945 74.505 117.987C75.2197 118.032 76.0838 115.593 76.4541 114.034C76.4606 114.009 76.4724 113.986 76.4886 113.966C76.5049 113.947 76.5253 113.931 76.5483 113.92C76.571 113.909 76.596 113.903 76.6214 113.903C76.6467 113.903 76.6717 113.909 76.6945 113.92C76.6945 113.92 78.2829 114.83 81.4404 115.011C84.5979 115.193 87.7228 113.654 87.7553 113.637C87.7901 113.626 87.8277 113.626 87.8625 113.637L96.3084 115.632L96.7469 109.759C95.5775 109.541 89.9058 108.479 89.6394 108.388L88.8045 108.131C87.2258 107.647 84.2925 106.747 83.7858 106.53C83.1523 106.254 77.4481 105.292 75.616 105.292Z" fill="#263238"/>
<path d="M72.8776 75.8325L82.1973 77.5379L81.8497 83.3623C81.8497 83.3623 83.9124 84.3369 84.5394 90.0898C85.1663 95.8427 86.9627 109.168 86.5144 110.155C86.0661 111.143 83.2855 115.45 76.8244 115.72C70.3633 115.989 66.8648 110.068 66.2378 108.18C65.6109 106.293 68.9308 93.9489 69.1094 92.8737C69.2881 91.7985 70.1847 84.4278 70.9935 83.1837C71.492 82.4148 72.0956 81.7194 72.7866 81.1177L72.8776 75.8325Z" fill="#FF5050"/>
<path d="M76.3956 115.895C69.967 115.895 66.6504 109.889 66.0852 108.239C65.5784 106.722 67.456 99.0392 68.463 94.9202C68.7229 93.8548 68.9113 93.0849 68.9503 92.8575C68.9893 92.6301 69.0347 92.289 69.1062 91.7823C69.4505 89.3135 70.1717 84.1745 70.8571 83.109C71.3501 82.3466 71.9459 81.6558 72.6275 81.056L72.7152 75.8358C72.7152 75.8122 72.7204 75.7889 72.7305 75.7675C72.7406 75.7462 72.7554 75.7273 72.7737 75.7124C72.7923 75.6978 72.8138 75.6873 72.8367 75.6817C72.8597 75.6761 72.8836 75.6755 72.9068 75.6799L82.2363 77.3821C82.2759 77.3892 82.3114 77.4107 82.336 77.4425C82.3606 77.4743 82.3725 77.5141 82.3695 77.5542L82.0186 83.2844C82.4507 83.5638 84.1431 84.9639 84.7018 90.0866C84.8578 91.5224 85.0916 93.4585 85.3515 95.5082C86.3033 103.408 87.005 109.512 86.6769 110.237C86.6509 110.288 84.1593 115.59 76.8439 115.892L76.3956 115.895ZM73.0368 76.0275L72.9491 81.1275C72.9491 81.1511 72.9439 81.1744 72.9338 81.1958C72.9236 81.2171 72.9089 81.236 72.8906 81.2509C72.213 81.8421 71.6205 82.5243 71.13 83.2779C70.4803 84.2817 69.7429 89.5669 69.4278 91.8213C69.3563 92.3313 69.3011 92.7146 69.2686 92.9062C69.2296 93.1466 69.0412 93.9197 68.7781 94.9885C67.8491 98.7924 65.9163 106.705 66.3938 108.138C66.9395 109.762 70.3081 115.837 76.8179 115.561C82.7235 115.317 85.7121 111.533 86.3683 110.094C86.6931 109.395 85.7186 101.388 85.0169 95.5407C84.77 93.4877 84.5362 91.5516 84.3672 90.1158C83.7565 84.5286 81.7848 83.5248 81.7685 83.5151C81.7399 83.5007 81.7161 83.4783 81.6999 83.4506C81.6838 83.4229 81.676 83.3911 81.6776 83.3591L82.0284 77.6712L73.0368 76.0275Z" fill="#263238"/>
<path d="M80.2482 82.8131C79.7205 82.8109 79.1933 82.7772 78.6695 82.7124C78.6269 82.7075 78.588 82.686 78.5613 82.6525C78.5345 82.6191 78.522 82.5764 78.5266 82.5338C78.5323 82.4909 78.5545 82.452 78.5885 82.4253C78.6225 82.3986 78.6655 82.3862 78.7085 82.3908C79.2194 82.453 79.7335 82.4856 80.2482 82.4883C80.2913 82.4883 80.3326 82.5054 80.3631 82.5359C80.3936 82.5663 80.4107 82.6076 80.4107 82.6507C80.4107 82.6938 80.3936 82.7351 80.3631 82.7656C80.3326 82.796 80.2913 82.8131 80.2482 82.8131Z" fill="#263238"/>
<path d="M76.4963 82.3391H76.4606C75.1979 82.0592 73.9527 81.7056 72.7314 81.2801C72.6921 81.2646 72.6603 81.2344 72.6429 81.1958C72.6255 81.1573 72.6238 81.1135 72.6382 81.0737C72.6526 81.034 72.6819 81.0014 72.72 80.9829C72.758 80.9644 72.8017 80.9615 72.8419 80.9747C74.0492 81.3956 75.2803 81.7449 76.5288 82.0207C76.5498 82.0253 76.5696 82.034 76.5872 82.0463C76.6047 82.0587 76.6197 82.0743 76.6311 82.0925C76.6426 82.1106 76.6504 82.1308 76.654 82.1519C76.6576 82.1731 76.657 82.1947 76.6522 82.2156C76.6441 82.2509 76.6243 82.2823 76.5959 82.3047C76.5676 82.3271 76.5325 82.3393 76.4963 82.3391Z" fill="#263238"/>
<path d="M124.167 78.7593L123.241 102.671C123.241 102.671 122.221 102.765 121.851 103.226C121.604 103.546 121.387 103.888 121.201 104.246C121.201 104.246 111.842 104.617 107.392 105.916C104.838 106.642 102.356 107.604 99.9791 108.788L95.8991 108.7L95.0643 119.449L100.535 119.634C100.535 119.634 103.221 121.21 115.455 122.324C127.688 123.438 133.344 123.714 134.64 122.23C135.936 120.745 136.495 118.429 136.68 117.227C136.865 116.025 139.09 108.606 139.09 97.8534C139.09 87.1012 128.987 71.5413 126.762 68.0103C124.537 64.4793 122.214 64.7619 120.646 65.1387" fill="#FF5050"/>
<path d="M129.452 123.406C126.35 123.406 121.808 123.061 115.442 122.483C103.923 121.434 100.863 119.991 100.499 119.793L95.0708 119.608C95.0485 119.608 95.0265 119.604 95.0062 119.595C94.9859 119.586 94.9678 119.572 94.953 119.556C94.9382 119.539 94.9272 119.52 94.9206 119.498C94.914 119.477 94.912 119.455 94.9148 119.433L95.7367 108.7C95.7392 108.658 95.758 108.619 95.789 108.591C95.8199 108.563 95.8607 108.549 95.9023 108.551L99.9401 108.642C102.317 107.465 104.796 106.506 107.347 105.776C111.524 104.558 120.106 104.152 121.1 104.104C121.279 103.761 121.488 103.435 121.724 103.129C122.049 102.723 122.776 102.577 123.085 102.531L124.004 78.7562C124.004 78.7345 124.009 78.7131 124.017 78.6933C124.026 78.6735 124.039 78.6557 124.055 78.641C124.07 78.6264 124.089 78.6152 124.11 78.6082C124.13 78.6011 124.152 78.5984 124.173 78.6002C124.195 78.6011 124.216 78.6061 124.235 78.6151C124.254 78.624 124.272 78.6367 124.286 78.6524C124.301 78.6681 124.312 78.6864 124.319 78.7065C124.327 78.7265 124.33 78.7478 124.329 78.7691L123.403 102.681C123.402 102.72 123.386 102.757 123.36 102.786C123.333 102.815 123.296 102.833 123.257 102.837C122.991 102.859 122.247 102.996 121.977 103.33C121.739 103.642 121.528 103.973 121.347 104.321C121.335 104.348 121.315 104.37 121.29 104.386C121.266 104.402 121.237 104.411 121.207 104.412C121.117 104.412 111.816 104.795 107.437 106.075C104.895 106.803 102.423 107.759 100.054 108.934C100.029 108.946 100.001 108.953 99.9726 108.953L96.0485 108.866L95.2397 119.293L100.538 119.472C100.565 119.474 100.592 119.482 100.616 119.494C100.642 119.494 103.455 121.07 115.471 122.161C127.652 123.269 133.292 123.526 134.519 122.122C135.92 120.524 136.404 117.951 136.52 117.201C136.55 116.996 136.634 116.646 136.758 116.11C138.196 110.131 138.925 104.003 138.928 97.8536C138.928 90.9864 134.87 81.1048 126.873 68.4847L126.626 68.0981C124.316 64.4404 121.86 65.0186 120.684 65.2947C120.642 65.3046 120.598 65.2975 120.561 65.2751C120.524 65.2526 120.497 65.2165 120.486 65.1745C120.482 65.1536 120.481 65.132 120.485 65.1108C120.488 65.0897 120.496 65.0695 120.507 65.0514C120.519 65.0333 120.534 65.0176 120.551 65.0053C120.569 64.993 120.589 64.9842 120.61 64.9796C122.517 64.5314 124.758 64.5314 126.902 67.9227L127.146 68.3125C135.179 80.9813 139.252 90.9247 139.252 97.8536C139.248 104.028 138.518 110.181 137.076 116.184C136.956 116.691 136.871 117.058 136.842 117.25C136.722 118.023 136.222 120.67 134.763 122.337C134.11 123.081 132.457 123.406 129.452 123.406Z" fill="#263238"/>
<path d="M123.241 102.833C123.212 102.834 123.184 102.826 123.16 102.812C123.135 102.798 123.115 102.777 123.101 102.752C123.082 102.72 123.075 102.683 123.08 102.646C123.086 102.61 123.103 102.576 123.131 102.551L128.507 97.548C128.521 97.5329 128.539 97.5209 128.559 97.5127C128.578 97.5045 128.599 97.5002 128.62 97.5002C128.642 97.5002 128.662 97.5045 128.682 97.5127C128.702 97.5209 128.719 97.5329 128.734 97.548C128.749 97.5631 128.761 97.5811 128.77 97.6009C128.778 97.6207 128.782 97.6419 128.782 97.6633C128.782 97.6848 128.778 97.706 128.77 97.7258C128.761 97.7456 128.749 97.7636 128.734 97.7787L123.861 102.326L128.893 100.865C128.936 100.853 128.982 100.858 129.021 100.88C129.06 100.902 129.089 100.939 129.101 100.982C129.113 101.025 129.108 101.071 129.086 101.11C129.064 101.149 129.027 101.177 128.984 101.189L123.296 102.84L123.241 102.833Z" fill="#263238"/>
<path d="M130.709 100.667C130.666 100.672 130.622 100.66 130.588 100.634C130.554 100.607 130.531 100.568 130.526 100.525C130.52 100.482 130.532 100.439 130.558 100.404C130.585 100.37 130.624 100.347 130.667 100.342L132.463 99.822C132.484 99.8156 132.505 99.8134 132.527 99.8155C132.548 99.8176 132.569 99.824 132.587 99.8343C132.606 99.8446 132.623 99.8586 132.636 99.8755C132.649 99.8924 132.659 99.9118 132.665 99.9325C132.677 99.9738 132.672 100.018 132.651 100.056C132.63 100.094 132.596 100.122 132.554 100.134L130.755 100.654C130.741 100.661 130.725 100.666 130.709 100.667Z" fill="#263238"/>
<path d="M129.543 105.799H129.484C127.126 104.889 121.25 104.422 121.188 104.418C121.167 104.417 121.146 104.411 121.127 104.401C121.108 104.391 121.091 104.378 121.077 104.362C121.063 104.345 121.053 104.326 121.046 104.306C121.039 104.286 121.037 104.264 121.039 104.243C121.04 104.222 121.046 104.201 121.056 104.182C121.066 104.163 121.079 104.146 121.095 104.132C121.112 104.118 121.13 104.108 121.151 104.101C121.171 104.094 121.193 104.092 121.214 104.094C121.458 104.113 127.198 104.571 129.601 105.494C129.623 105.497 129.643 105.505 129.661 105.517C129.68 105.529 129.695 105.544 129.708 105.562C129.72 105.58 129.729 105.6 129.733 105.621C129.738 105.642 129.738 105.664 129.735 105.685C129.731 105.707 129.723 105.727 129.711 105.745C129.699 105.763 129.684 105.779 129.666 105.792C129.648 105.804 129.628 105.813 129.607 105.817C129.586 105.822 129.564 105.822 129.543 105.818V105.799Z" fill="#263238"/>
<path d="M131.213 110.62C131.187 110.619 131.163 110.613 131.14 110.602C131.118 110.591 131.098 110.575 131.083 110.555C130.839 110.23 130.573 109.934 130.29 109.639C130.264 109.607 130.251 109.567 130.253 109.526C130.256 109.485 130.273 109.446 130.303 109.418C130.333 109.39 130.372 109.373 130.413 109.373C130.454 109.372 130.493 109.387 130.524 109.414C130.811 109.714 131.084 110.029 131.339 110.356C131.366 110.39 131.378 110.433 131.373 110.476C131.368 110.518 131.347 110.557 131.313 110.584C131.284 110.606 131.249 110.619 131.213 110.62Z" fill="#263238"/>
<path d="M129.273 108.641C129.236 108.641 129.199 108.628 129.169 108.606C127.52 107.27 125.617 106.282 123.576 105.702C123.554 105.697 123.534 105.688 123.516 105.675C123.498 105.662 123.483 105.646 123.472 105.628C123.46 105.609 123.452 105.588 123.449 105.567C123.445 105.545 123.446 105.523 123.45 105.502C123.455 105.481 123.464 105.46 123.477 105.443C123.49 105.425 123.506 105.41 123.524 105.398C123.543 105.386 123.564 105.378 123.585 105.375C123.607 105.371 123.629 105.372 123.65 105.377C125.74 105.967 127.689 106.976 129.377 108.343C129.404 108.364 129.423 108.393 129.432 108.425C129.441 108.458 129.44 108.492 129.428 108.524C129.417 108.556 129.396 108.584 129.368 108.603C129.34 108.622 129.307 108.632 129.273 108.632V108.641Z" fill="#263238"/>
<path d="M99.9791 118.961C99.936 118.961 99.8947 118.944 99.8642 118.914C99.8338 118.883 99.8167 118.842 99.8167 118.799L99.7387 109.811C99.7383 109.789 99.7421 109.768 99.7498 109.748C99.7576 109.728 99.7692 109.71 99.784 109.695C99.7988 109.679 99.8164 109.667 99.836 109.659C99.8555 109.65 99.8766 109.645 99.8979 109.645C99.941 109.645 99.9823 109.662 100.013 109.693C100.043 109.723 100.06 109.764 100.06 109.807L100.155 118.796C100.155 118.839 100.138 118.881 100.107 118.912C100.077 118.943 100.035 118.961 99.9921 118.961H99.9791Z" fill="#263238"/>
<path d="M99.3294 116.736H95.4313C95.3883 116.736 95.3469 116.719 95.3165 116.689C95.286 116.658 95.2689 116.617 95.2689 116.574C95.2689 116.531 95.286 116.49 95.3165 116.459C95.3469 116.429 95.3883 116.412 95.4313 116.412H99.3294C99.3725 116.412 99.4138 116.429 99.4443 116.459C99.4747 116.49 99.4919 116.531 99.4919 116.574C99.491 116.617 99.4736 116.658 99.4434 116.688C99.4131 116.718 99.3723 116.736 99.3294 116.736Z" fill="#263238"/>
<path d="M96.3636 111.451C96.3222 111.451 96.2823 111.436 96.2521 111.407C96.2219 111.379 96.2037 111.34 96.2012 111.299C96.1999 111.277 96.2028 111.256 96.2098 111.236C96.2168 111.216 96.2278 111.198 96.242 111.182C96.2562 111.166 96.2734 111.154 96.2926 111.145C96.3119 111.136 96.3327 111.13 96.3539 111.13L97.9294 111.035C97.9507 111.034 97.9721 111.037 97.9923 111.044C98.0125 111.051 98.0311 111.062 98.0471 111.076C98.0631 111.09 98.0762 111.107 98.0855 111.127C98.0948 111.146 98.1003 111.167 98.1015 111.188C98.1033 111.231 98.0884 111.273 98.06 111.305C98.0315 111.337 97.9916 111.357 97.9489 111.36L96.3734 111.451H96.3636Z" fill="#263238"/>
<path d="M126.954 94.4395C128.117 94.9462 130.953 94.8812 130.956 94.8812C130.959 94.8812 130.345 93.0232 130.29 92.9095C129.67 91.6101 127.691 89.4564 126.1 89.6611C125.834 89.7043 125.581 89.8028 125.357 89.9503C125.132 90.0978 124.942 90.2909 124.797 90.517C124.652 90.7431 124.556 90.9973 124.516 91.2628C124.475 91.5284 124.492 91.7995 124.563 92.0584C124.829 93.1823 125.966 94.0074 126.954 94.4395Z" fill="#263238"/>
<path d="M127.935 102.658C129.137 102.833 131.671 102.099 131.872 102.041C132.289 103.489 132.802 104.909 133.409 106.29C133.756 107.095 134.133 107.897 134.519 108.697C134.289 108.372 134.078 108.047 134.045 108.018C133.1 106.926 130.634 105.37 129.147 106.004C128.902 106.115 128.684 106.277 128.507 106.479C128.329 106.681 128.196 106.917 128.116 107.174C128.036 107.43 128.011 107.701 128.042 107.968C128.074 108.235 128.161 108.492 128.299 108.723C128.848 109.723 130.163 110.217 131.222 110.373C132.281 110.529 134.471 109.947 135.049 109.785C135.198 110.09 135.348 110.396 135.5 110.701C136.235 112.159 136.972 113.624 137.651 115.063C137.891 115.573 138.109 116.083 138.33 116.593C138.125 116.295 137.95 116.044 137.917 116.009C136.972 114.917 134.506 113.361 133.019 113.995C132.774 114.106 132.556 114.268 132.379 114.469C132.201 114.67 132.068 114.907 131.988 115.163C131.908 115.419 131.883 115.69 131.915 115.956C131.946 116.223 132.033 116.48 132.171 116.71C132.72 117.711 134.035 118.208 135.094 118.361C136.153 118.513 138.135 117.994 138.817 117.802C139.025 118.335 139.236 118.864 139.415 119.387C139.529 119.748 139.665 120.086 139.759 120.453C139.853 120.82 139.961 121.174 140.058 121.528C140.224 122.22 140.399 122.931 140.545 123.607C140.649 124.078 140.74 124.529 140.831 124.984C140.6 124.474 140.123 123.483 140.071 123.405C139.304 122.181 137.102 120.271 135.523 120.67C135.265 120.744 135.024 120.871 134.818 121.043C134.612 121.216 134.445 121.429 134.327 121.671C134.209 121.912 134.143 122.176 134.133 122.445C134.124 122.713 134.172 122.981 134.273 123.23C134.666 124.302 135.897 124.991 136.92 125.306C138.057 125.65 140.568 125.335 140.883 125.306C141.033 126.056 141.172 126.79 141.292 127.482C141.357 127.849 141.416 128.194 141.471 128.538H142.472C142.397 128.142 142.319 127.732 142.234 127.307C142.085 126.543 141.91 125.731 141.721 124.896C142.479 124.594 143.217 124.247 143.933 123.857C144.762 124.753 146.88 125.806 147.156 125.936C146.867 126.644 146.578 127.333 146.298 127.976C146.214 128.171 146.129 128.353 146.048 128.538H147.101L147.179 128.349C147.477 127.632 147.776 126.855 148.082 126.056C148.384 126.121 150.872 126.628 152.032 126.365C153.084 126.128 154.358 125.533 154.829 124.494C154.948 124.253 155.015 123.99 155.025 123.721C155.036 123.453 154.99 123.185 154.89 122.936C154.791 122.687 154.64 122.461 154.447 122.274C154.255 122.087 154.025 121.942 153.773 121.849C152.24 121.333 149.901 123.074 149.043 124.237C148.994 124.305 148.527 125.108 148.244 125.621C148.364 125.296 148.488 124.971 148.608 124.646C148.851 123.997 149.076 123.308 149.322 122.587C149.426 122.233 149.534 121.875 149.647 121.515C149.761 121.154 149.839 120.771 149.936 120.397C150.144 119.52 150.313 118.624 150.463 117.717C151.047 117.929 153.133 118.656 154.211 118.578C155.29 118.5 156.638 118.107 157.262 117.152C157.415 116.932 157.52 116.681 157.571 116.417C157.621 116.154 157.616 115.882 157.555 115.62C157.493 115.359 157.378 115.113 157.215 114.899C157.053 114.685 156.847 114.508 156.612 114.378C155.173 113.637 152.597 115.002 151.574 116.022C151.512 116.083 150.859 116.899 150.508 117.35C150.596 116.805 150.684 116.262 150.752 115.707C150.95 114.102 151.103 112.474 151.262 110.85C151.31 110.353 151.362 109.856 151.414 109.363C151.622 109.44 154.085 110.357 155.293 110.272C156.368 110.194 157.72 109.801 158.34 108.843C158.494 108.622 158.6 108.372 158.651 108.108C158.701 107.844 158.696 107.572 158.635 107.311C158.573 107.049 158.458 106.803 158.295 106.589C158.132 106.375 157.926 106.198 157.69 106.069C156.255 105.328 153.679 106.696 152.655 107.712C152.577 107.79 151.642 108.963 151.418 109.272C151.535 108.18 151.658 107.092 151.827 106.023C152.044 104.58 152.356 103.153 152.759 101.751C152.853 101.79 155.416 102.755 156.657 102.671C157.733 102.593 159.081 102.2 159.704 101.241C159.858 101.021 159.964 100.771 160.015 100.507C160.066 100.243 160.06 99.9711 159.999 99.7094C159.938 99.4476 159.822 99.2017 159.659 98.9877C159.496 98.7737 159.291 98.5964 159.055 98.4673C157.619 97.7267 155.043 99.0943 154.02 100.111C153.938 100.192 152.931 101.453 152.766 101.696C152.789 101.615 152.805 101.527 152.831 101.446C153.274 100.052 153.84 98.6993 154.523 97.4051C154.89 96.6872 155.28 96.0213 155.676 95.3781C156.138 95.6087 158.246 96.632 159.37 96.6775C160.494 96.7229 161.832 96.4761 162.557 95.5957C162.734 95.3944 162.868 95.1581 162.948 94.9019C163.029 94.6457 163.054 94.3755 163.024 94.1088C162.993 93.842 162.907 93.5847 162.77 93.3534C162.634 93.1222 162.45 92.9222 162.232 92.7664C160.884 91.8731 158.174 92.9483 157.034 93.8481C156.972 93.8968 156.404 94.462 155.998 94.8811C156.18 94.5952 156.362 94.2964 156.544 94.0235C157.219 93.0068 157.902 92.1167 158.512 91.3306C158.863 90.8888 159.188 90.4957 159.487 90.1287C160.055 90.1287 162.342 90.0507 163.343 89.5797C164.343 89.1087 165.435 88.2803 165.672 87.1499C165.736 86.8891 165.744 86.6178 165.696 86.3535C165.649 86.0892 165.546 85.838 165.395 85.6159C165.244 85.3939 165.048 85.206 164.82 85.0646C164.592 84.9231 164.336 84.8312 164.07 84.7948C162.466 84.6226 160.555 86.825 159.968 88.1439C159.916 88.2576 159.318 90.1319 159.357 90.1319H159.393C159.087 90.4762 158.766 90.8498 158.418 91.2656C157.788 92.0387 157.086 92.9158 156.385 93.9228C155.618 95.0011 154.914 96.1226 154.276 97.2817C153.557 98.5769 152.955 99.9336 152.477 101.336C152.477 101.352 152.477 101.371 152.477 101.388C152.477 100.913 152.477 99.588 152.451 99.4873C152.266 98.0548 151.067 95.3976 149.475 95.1052C149.21 95.0639 148.939 95.0789 148.68 95.1492C148.421 95.2195 148.179 95.3435 147.971 95.5133C147.763 95.683 147.593 95.8946 147.472 96.1344C147.351 96.3741 147.282 96.6367 147.269 96.9049C147.179 98.0418 148 99.1787 148.806 99.8999C149.712 100.709 152.23 101.492 152.431 101.553C151.98 102.992 151.624 104.459 151.366 105.945C151.213 106.812 151.083 107.686 150.966 108.567C150.966 108.157 150.966 107.79 150.947 107.742C150.758 106.309 149.56 103.652 147.971 103.356C147.706 103.314 147.434 103.329 147.175 103.399C146.915 103.469 146.673 103.593 146.465 103.763C146.256 103.933 146.086 104.144 145.965 104.384C145.844 104.624 145.775 104.887 145.762 105.156C145.671 106.293 146.496 107.43 147.299 108.151C148.101 108.872 150.248 109.593 150.813 109.775C150.775 110.1 150.729 110.451 150.687 110.789C150.492 112.413 150.307 114.037 150.076 115.616C149.995 116.171 149.894 116.72 149.793 117.266C149.793 116.902 149.793 116.597 149.774 116.548C149.589 115.119 148.39 112.461 146.802 112.166C146.536 112.124 146.265 112.139 146.005 112.209C145.746 112.279 145.504 112.403 145.295 112.573C145.087 112.742 144.917 112.954 144.796 113.194C144.675 113.434 144.605 113.697 144.593 113.966C144.502 115.102 145.324 116.239 146.129 116.961C146.935 117.682 148.871 118.331 149.543 118.549C149.426 119.104 149.309 119.663 149.17 120.199C149.066 120.563 148.991 120.917 148.868 121.278C148.744 121.638 148.637 121.989 148.523 122.34C148.28 123.009 148.033 123.698 147.779 124.344C147.607 124.792 147.435 125.218 147.263 125.644C147.351 125.091 147.497 124 147.5 123.909C147.483 122.639 147.14 121.395 146.503 120.297C146.509 120.154 146.5 120.012 146.477 119.871C146.444 119.604 146.355 119.348 146.216 119.118C146.077 118.887 145.891 118.689 145.671 118.536C145.45 118.383 145.199 118.278 144.935 118.228C144.671 118.178 144.399 118.185 144.138 118.247C142.576 118.663 141.585 121.404 141.51 122.847C141.51 122.931 141.562 123.86 141.608 124.445C141.53 124.104 141.455 123.772 141.37 123.425C141.208 122.733 141.023 122.048 140.828 121.31C140.721 120.959 140.613 120.602 140.503 120.241C140.393 119.881 140.25 119.517 140.123 119.15C139.814 118.305 139.473 117.464 139.087 116.623C139.691 116.48 141.832 115.934 142.689 115.275C143.547 114.615 144.453 113.543 144.443 112.403C144.45 112.135 144.4 111.869 144.297 111.622C144.193 111.375 144.039 111.152 143.845 110.968C143.65 110.784 143.418 110.644 143.166 110.555C142.913 110.466 142.644 110.432 142.377 110.454C140.769 110.629 139.376 113.189 139.083 114.602C139.067 114.69 138.97 115.729 138.928 116.301C138.7 115.798 138.473 115.294 138.223 114.794C137.505 113.345 136.735 111.906 135.968 110.464C135.734 110.022 135.507 109.577 135.276 109.135C135.494 109.086 138.05 108.485 139.012 107.755C139.87 107.105 140.776 106.023 140.766 104.883C140.773 104.615 140.723 104.349 140.619 104.102C140.516 103.855 140.362 103.632 140.167 103.448C139.973 103.264 139.741 103.124 139.488 103.035C139.236 102.946 138.967 102.912 138.7 102.934C137.095 103.109 135.699 105.669 135.406 107.082C135.387 107.189 135.25 108.684 135.234 109.064C134.727 108.089 134.234 107.115 133.785 106.14C133.17 104.818 132.642 103.456 132.207 102.063C132.307 102.041 134.977 101.433 135.965 100.68C136.819 100.03 137.729 98.9481 137.719 97.8079C137.725 97.5403 137.675 97.2744 137.571 97.0275C137.468 96.7805 137.314 96.558 137.119 96.3743C136.925 96.1906 136.693 96.0498 136.441 95.961C136.188 95.8722 135.92 95.8374 135.653 95.8589C134.045 96.031 132.652 98.594 132.359 100.007C132.337 100.118 132.194 101.725 132.187 102.018C132.161 101.937 132.129 101.855 132.103 101.774C131.704 100.367 131.43 98.9282 131.284 97.4733C131.196 96.671 131.154 95.8978 131.131 95.1442C131.641 95.0825 133.964 94.7739 134.926 94.1892C135.887 93.6045 136.875 92.6657 136.985 91.5287C137.022 91.2627 137.003 90.9918 136.928 90.7337C136.853 90.4757 136.725 90.2363 136.551 90.0312C136.378 89.8261 136.163 89.6599 135.921 89.5435C135.679 89.4271 135.415 89.363 135.146 89.3555C133.522 89.3555 131.862 91.7431 131.417 93.1172C131.394 93.1919 131.232 93.978 131.122 94.553C131.122 94.2119 131.105 93.8611 131.105 93.5362C131.105 92.3148 131.187 91.1941 131.261 90.2034C131.31 89.6414 131.365 89.1314 131.42 88.6571C131.888 88.3323 133.759 87.0329 134.344 86.0746C134.929 85.1164 135.364 83.8235 134.945 82.7613C134.855 82.5082 134.713 82.2768 134.527 82.0824C134.342 81.8879 134.118 81.7347 133.869 81.6327C133.621 81.5306 133.353 81.482 133.085 81.4901C132.816 81.4982 132.552 81.5627 132.311 81.6795C130.875 82.4234 130.498 85.3145 130.735 86.7373C130.755 86.8608 131.297 88.7481 131.323 88.7318L131.349 88.7124C131.287 89.1671 131.226 89.6576 131.167 90.1936C131.07 91.1844 130.966 92.3051 130.94 93.533C130.894 94.8547 130.925 96.178 131.034 97.4961C131.147 98.9736 131.393 100.438 131.768 101.872C131.772 101.889 131.778 101.907 131.784 101.924C131.528 101.524 130.781 100.429 130.712 100.351C129.77 99.2599 127.301 97.7072 125.814 98.3374C125.569 98.4492 125.351 98.6112 125.174 98.8128C124.996 99.0144 124.863 99.2512 124.783 99.5077C124.703 99.7642 124.678 100.035 124.71 100.301C124.741 100.568 124.828 100.825 124.966 101.056C125.554 102.008 126.869 102.502 127.935 102.658Z" fill="#263238"/>
<path d="M155.657 95.0567C155.683 95.0729 156.173 93.1694 156.19 93.0459C156.391 91.6166 155.933 88.7353 154.478 88.0336C154.233 87.9244 153.968 87.8677 153.7 87.8674C153.432 87.8671 153.167 87.9232 152.922 88.0319C152.677 88.1406 152.457 88.2996 152.278 88.4986C152.098 88.6975 151.962 88.932 151.879 89.1868C151.489 90.2588 151.983 91.5744 152.568 92.4807C153.253 93.5494 155.657 95.0567 155.657 95.0567Z" fill="#263238"/>
<path d="M85.9029 147.485C133.346 147.485 171.806 145.239 171.806 142.469C171.806 139.7 133.346 137.454 85.9029 137.454C38.46 137.454 0 139.7 0 142.469C0 145.239 38.46 147.485 85.9029 147.485Z" fill="#F5F5F5"/>
<path d="M175.645 17.4429C175.645 15.1523 174.453 13.0877 172.544 11.599C172.607 11.299 172.64 10.9931 172.641 10.6864C172.641 7.63374 169.54 5.1571 165.69 5.08621C164.524 2.13993 161.029 0 156.9 0C153.608 0 150.719 1.36016 149.093 3.40705C148.681 3.34811 148.265 3.3185 147.848 3.31844C143.918 3.31844 140.728 5.8261 140.728 8.91859C140.729 9.4446 140.822 9.96637 141.003 10.4604C138.5 11.7896 136.847 14.0048 136.847 16.5656C136.847 19.0157 138.38 21.1866 140.733 22.5202C140.73 22.5467 140.73 22.5734 140.733 22.6C140.733 25.5994 143.737 28.0495 147.507 28.1912C149.589 30.2248 152.775 31.523 156.368 31.523C158.716 31.542 161.028 30.9479 163.076 29.7995C163.39 29.8305 163.714 29.8527 164.042 29.8527C167.976 29.8527 171.161 27.345 171.161 24.2525V24.1949C173.855 22.7196 175.645 20.2429 175.645 17.4429Z" fill="#FF5050"/>
<path d="M128.544 24.4343C128.544 25.1121 127.76 25.6615 126.772 25.6615C125.784 25.6615 125 25.1121 125 24.4343C125 23.7564 125.784 23.207 126.772 23.207C127.76 23.207 128.544 23.7564 128.544 24.4343Z" fill="#FF5050"/>
<path d="M134.548 19.9505C134.548 20.9828 133.347 21.8202 131.863 21.8202C130.379 21.8202 129.178 20.9828 129.178 19.9505C129.178 18.9182 130.383 18.0808 131.863 18.0808C133.343 18.0808 134.548 18.9182 134.548 19.9505Z" fill="#FF5050"/>
<path opacity="0.6" d="M175.645 17.4429C175.645 15.1523 174.453 13.0877 172.544 11.599C172.607 11.299 172.64 10.9931 172.641 10.6864C172.641 7.63374 169.54 5.1571 165.69 5.08621C164.524 2.13993 161.029 0 156.9 0C153.608 0 150.719 1.36016 149.093 3.40705C148.681 3.34811 148.265 3.3185 147.848 3.31844C143.918 3.31844 140.728 5.8261 140.728 8.91859C140.729 9.4446 140.822 9.96637 141.003 10.4604C138.5 11.7896 136.847 14.0048 136.847 16.5656C136.847 19.0157 138.38 21.1866 140.733 22.5202C140.73 22.5467 140.73 22.5734 140.733 22.6C140.733 25.5994 143.737 28.0495 147.507 28.1912C149.589 30.2248 152.775 31.523 156.368 31.523C158.716 31.542 161.028 30.9479 163.076 29.7995C163.39 29.8305 163.714 29.8527 164.042 29.8527C167.976 29.8527 171.161 27.345 171.161 24.2525V24.1949C173.855 22.7196 175.645 20.2429 175.645 17.4429Z" fill="white"/>
<path opacity="0.6" d="M128.544 24.4343C128.544 25.1121 127.76 25.6615 126.772 25.6615C125.784 25.6615 125 25.1121 125 24.4343C125 23.7564 125.784 23.207 126.772 23.207C127.76 23.207 128.544 23.7564 128.544 24.4343Z" fill="white"/>
<path opacity="0.6" d="M134.548 19.9505C134.548 20.9828 133.347 21.8202 131.863 21.8202C130.379 21.8202 129.178 20.9828 129.178 19.9505C129.178 18.9182 130.383 18.0808 131.863 18.0808C133.343 18.0808 134.548 18.9182 134.548 19.9505Z" fill="white"/>
<path d="M151.499 9.73389H144.277V13.1985H151.499V9.73389Z" fill="#FF5050"/>
<path opacity="0.8" d="M151.499 9.73389H144.277V13.1985H151.499V9.73389Z" fill="white"/>
<path d="M159.584 9.73389H152.363V13.1985H159.584V9.73389Z" fill="#FF5050"/>
<path opacity="0.8" d="M159.584 9.73389H152.363V13.1985H159.584V9.73389Z" fill="white"/>
<path d="M167.675 9.73389H160.453V13.1985H167.675V9.73389Z" fill="#FF5050"/>
<path opacity="0.8" d="M167.675 9.73389H160.453V13.1985H167.675V9.73389Z" fill="white"/>
<path d="M147.706 13.8718H140.485V17.3365H147.706V13.8718Z" fill="#FF5050"/>
<path opacity="0.8" d="M147.706 13.8718H140.485V17.3365H147.706V13.8718Z" fill="white"/>
<path d="M155.788 13.8718H148.566V17.3365H155.788V13.8718Z" fill="#FF5050"/>
<path opacity="0.8" d="M155.788 13.8718H148.566V17.3365H155.788V13.8718Z" fill="white"/>
<path d="M163.882 13.8718H156.66V17.3365H163.882V13.8718Z" fill="#FF5050"/>
<path opacity="0.8" d="M163.882 13.8718H156.66V17.3365H163.882V13.8718Z" fill="white"/>
<path d="M172.008 13.8718H164.786V17.3365H172.008V13.8718Z" fill="#FF5050"/>
<path opacity="0.8" d="M172.008 13.8718H164.786V17.3365H172.008V13.8718Z" fill="white"/>
<path d="M151.499 18.2183H144.277V21.6829H151.499V18.2183Z" fill="#FF5050"/>
<path opacity="0.8" d="M151.499 18.2183H144.277V21.6829H151.499V18.2183Z" fill="white"/>
<path d="M159.584 18.2183H152.363V21.6829H159.584V18.2183Z" fill="#FF5050"/>
<path opacity="0.8" d="M159.584 18.2183H152.363V21.6829H159.584V18.2183Z" fill="white"/>
<path d="M167.675 18.2183H160.453V21.6829H167.675V18.2183Z" fill="#FF5050"/>
<path opacity="0.8" d="M167.675 18.2183H160.453V21.6829H167.675V18.2183Z" fill="white"/>
<path d="M155.353 5.5957H148.132V9.06035H155.353V5.5957Z" fill="#FF5050"/>
<path opacity="0.8" d="M155.353 5.5957H148.132V9.06035H155.353V5.5957Z" fill="white"/>
<path d="M163.448 5.5957H156.226V9.06035H163.448V5.5957Z" fill="#FF5050"/>
<path opacity="0.8" d="M163.448 5.5957H156.226V9.06035H163.448V5.5957Z" fill="white"/>
<path d="M155.788 22.3562H148.566V25.8208H155.788V22.3562Z" fill="#FF5050"/>
<path opacity="0.8" d="M155.788 22.3562H148.566V25.8208H155.788V22.3562Z" fill="white"/>
<path d="M163.882 22.3562H156.66V25.8208H163.882V22.3562Z" fill="#FF5050"/>
<path opacity="0.8" d="M163.882 22.3562H156.66V25.8208H163.882V22.3562Z" fill="white"/>
<path d="M158.459 12.5383C158.424 11.1339 157.219 10.199 155.327 10.2301C153.51 10.2566 152.203 10.9744 151.379 12.2149L148.96 10.6775C150.289 8.75471 152.46 7.57619 155.531 7.52303C159.137 7.47429 161.591 9.11801 161.671 11.9934C161.786 16.0783 157.6 16.5125 157.684 19.4676L154.582 19.512C154.449 15.8036 158.53 15.0416 158.459 12.5383ZM154.277 23.5481C154.265 23.2916 154.306 23.0355 154.398 22.7956C154.489 22.5557 154.629 22.3372 154.809 22.1535C154.988 21.9699 155.203 21.8251 155.441 21.7282C155.679 21.6312 155.934 21.5841 156.191 21.5899C156.447 21.5804 156.703 21.6224 156.943 21.7134C157.183 21.8043 157.403 21.9425 157.588 22.1196C157.774 22.2968 157.923 22.5094 158.025 22.7448C158.127 22.9803 158.182 23.2338 158.184 23.4905C158.197 23.7461 158.158 24.0016 158.068 24.2414C157.979 24.4813 157.842 24.7005 157.666 24.8857C157.489 25.0709 157.277 25.2183 157.041 25.3189C156.806 25.4196 156.553 25.4713 156.297 25.471C156.037 25.4804 155.778 25.4379 155.535 25.3458C155.292 25.2538 155.07 25.1141 154.882 24.9349C154.694 24.7558 154.543 24.5408 154.439 24.3027C154.335 24.0645 154.28 23.808 154.277 23.5481Z" fill="#FF5050"/>
<path d="M166.015 132.009H6.44189V142.323H166.015V132.009Z" fill="#263238"/>
<path opacity="0.3" d="M166.015 132.009H6.44189V142.323H166.015V132.009Z" fill="white"/>
<path d="M166.609 128.571H5.84379C4.93599 128.571 4.20007 129.307 4.20007 130.215V133.803C4.20007 134.711 4.93599 135.447 5.84379 135.447H166.609C167.517 135.447 168.252 134.711 168.252 133.803V130.215C168.252 129.307 167.517 128.571 166.609 128.571Z" fill="#263238"/>
<path opacity="0.4" d="M166.609 128.571H5.84379C4.93599 128.571 4.20007 129.307 4.20007 130.215V133.803C4.20007 134.711 4.93599 135.447 5.84379 135.447H166.609C167.517 135.447 168.252 134.711 168.252 133.803V130.215C168.252 129.307 167.517 128.571 166.609 128.571Z" fill="white"/>
<path d="M45.9707 121.003H14.5984V127.654H45.9707V121.003Z" fill="#263238"/>
<path opacity="0.8" d="M45.9707 121.003H14.5984V127.654H45.9707V121.003Z" fill="white"/>
<path opacity="0.5" d="M45.5277 122.311H14.5984V122.612H45.5277V122.311Z" fill="white"/>
<path opacity="0.5" d="M45.5277 124.025H14.5984V124.326H45.5277V124.025Z" fill="white"/>
<path opacity="0.5" d="M45.5277 125.819H14.5984V126.121H45.5277V125.819Z" fill="white"/>
<path d="M45.7049 120.086H13.8718C13.8359 120.086 13.8003 120.092 13.767 120.105C13.7337 120.119 13.7034 120.139 13.6778 120.164C13.6523 120.189 13.632 120.219 13.6181 120.252C13.6042 120.285 13.5971 120.321 13.5971 120.356V121.194C13.5971 121.267 13.626 121.337 13.6776 121.388C13.7291 121.44 13.7989 121.469 13.8718 121.469H44.3049C44.3764 121.469 44.4473 121.483 44.5134 121.51C44.5795 121.537 44.6396 121.578 44.6902 121.628C44.7408 121.679 44.781 121.739 44.8083 121.805C44.8357 121.871 44.8498 121.942 44.8498 122.013V126.736C44.8498 126.881 44.7924 127.02 44.6902 127.122C44.588 127.224 44.4494 127.281 44.3049 127.281H13.8364C13.8049 127.281 13.7738 127.288 13.7448 127.3C13.7158 127.312 13.6894 127.329 13.6672 127.351C13.645 127.374 13.6273 127.4 13.6153 127.429C13.6033 127.458 13.5971 127.489 13.5971 127.521V128.331C13.5971 128.363 13.6033 128.394 13.6153 128.423C13.6273 128.452 13.645 128.478 13.6672 128.501C13.6894 128.523 13.7158 128.54 13.7448 128.552C13.7738 128.564 13.8049 128.571 13.8364 128.571H45.7359C45.9709 128.571 46.1963 128.477 46.3625 128.311C46.5287 128.145 46.622 127.92 46.622 127.685V121.039C46.625 120.916 46.6035 120.794 46.5589 120.679C46.5143 120.564 46.4474 120.46 46.3621 120.371C46.2769 120.283 46.1749 120.212 46.0621 120.163C45.9492 120.114 45.8279 120.088 45.7049 120.086Z" fill="#FF5050"/>
<path d="M45.9707 112.492H14.5984V119.143H45.9707V112.492Z" fill="#263238"/>
<path opacity="0.9" d="M45.9707 112.492H14.5984V119.143H45.9707V112.492Z" fill="white"/>
<path opacity="0.7" d="M45.5277 113.525H14.5984V113.826H45.5277V113.525Z" fill="white"/>
<path opacity="0.7" d="M45.5277 114.752H14.5984V115.053H45.5277V114.752Z" fill="white"/>
<path opacity="0.7" d="M45.5277 116.108H14.5984V116.409H45.5277V116.108Z" fill="white"/>
<path opacity="0.7" d="M45.5277 117.335H14.5984V117.636H45.5277V117.335Z" fill="white"/>
<path d="M45.7049 111.575H13.8718C13.7989 111.575 13.7291 111.604 13.6776 111.656C13.626 111.707 13.5971 111.777 13.5971 111.85V112.679C13.5971 112.714 13.6042 112.75 13.6181 112.783C13.632 112.816 13.6523 112.846 13.6778 112.871C13.7034 112.896 13.7337 112.916 13.767 112.93C13.8003 112.943 13.8359 112.949 13.8718 112.949H44.3049C44.4494 112.949 44.588 113.006 44.6902 113.108C44.7924 113.211 44.8498 113.349 44.8498 113.494V118.221C44.8498 118.366 44.7924 118.504 44.6902 118.607C44.588 118.709 44.4494 118.766 44.3049 118.766H13.8364C13.8049 118.766 13.7738 118.772 13.7448 118.784C13.7158 118.796 13.6894 118.814 13.6672 118.836C13.645 118.858 13.6273 118.885 13.6153 118.914C13.6033 118.943 13.5971 118.974 13.5971 119.005V119.812C13.5971 119.843 13.6033 119.874 13.6153 119.903C13.6273 119.932 13.645 119.959 13.6672 119.981C13.6894 120.003 13.7158 120.021 13.7448 120.033C13.7738 120.045 13.8049 120.051 13.8364 120.051H45.7359C45.9709 120.051 46.1963 119.958 46.3625 119.791C46.5287 119.625 46.622 119.4 46.622 119.165V112.519C46.6244 112.273 46.5294 112.035 46.3576 111.859C46.1859 111.682 45.9513 111.58 45.7049 111.575Z" fill="#FF5050"/>
<path opacity="0.3" d="M45.7049 111.575H13.8718C13.7989 111.575 13.7291 111.604 13.6776 111.656C13.626 111.707 13.5971 111.777 13.5971 111.85V112.679C13.5971 112.714 13.6042 112.75 13.6181 112.783C13.632 112.816 13.6523 112.846 13.6778 112.871C13.7034 112.896 13.7337 112.916 13.767 112.93C13.8003 112.943 13.8359 112.949 13.8718 112.949H44.3049C44.4494 112.949 44.588 113.006 44.6902 113.108C44.7924 113.211 44.8498 113.349 44.8498 113.494V118.221C44.8498 118.366 44.7924 118.504 44.6902 118.607C44.588 118.709 44.4494 118.766 44.3049 118.766H13.8364C13.8049 118.766 13.7738 118.772 13.7448 118.784C13.7158 118.796 13.6894 118.814 13.6672 118.836C13.645 118.858 13.6273 118.885 13.6153 118.914C13.6033 118.943 13.5971 118.974 13.5971 119.005V119.812C13.5971 119.843 13.6033 119.874 13.6153 119.903C13.6273 119.932 13.645 119.959 13.6672 119.981C13.6894 120.003 13.7158 120.021 13.7448 120.033C13.7738 120.045 13.8049 120.051 13.8364 120.051H45.7359C45.9709 120.051 46.1963 119.958 46.3625 119.791C46.5287 119.625 46.622 119.4 46.622 119.165V112.519C46.6244 112.273 46.5294 112.035 46.3576 111.859C46.1859 111.682 45.9513 111.58 45.7049 111.575Z" fill="white"/>
<path d="M45.9707 106.476H14.5984V110.658H45.9707V106.476Z" fill="#263238"/>
<path opacity="0.8" d="M45.9707 106.476H14.5984V110.658H45.9707V106.476Z" fill="white"/>
<path opacity="0.5" d="M45.5277 107.362H14.5984V107.663H45.5277V107.362Z" fill="white"/>
<path opacity="0.5" d="M45.5277 109.094H14.5984V109.396H45.5277V109.094Z" fill="white"/>
<path d="M13.5971 105.337V106.392C13.5965 106.413 13.6003 106.435 13.6083 106.455C13.6164 106.475 13.6284 106.494 13.6438 106.509C13.6591 106.524 13.6774 106.536 13.6976 106.544C13.7178 106.552 13.7393 106.556 13.761 106.556H44.6992C44.7427 106.556 44.7844 106.573 44.8151 106.604C44.8458 106.634 44.8631 106.676 44.8631 106.72V109.852C44.8631 109.969 44.8164 110.082 44.7334 110.165C44.6503 110.248 44.5376 110.295 44.4201 110.295H13.761C13.7397 110.294 13.7185 110.298 13.6986 110.306C13.6788 110.314 13.6607 110.325 13.6454 110.34C13.6301 110.355 13.618 110.373 13.6097 110.392C13.6014 110.412 13.5971 110.433 13.5971 110.454V111.42C13.5971 111.442 13.6014 111.463 13.6097 111.482C13.618 111.502 13.6301 111.52 13.6454 111.535C13.6607 111.55 13.6788 111.561 13.6986 111.569C13.7185 111.577 13.7397 111.58 13.761 111.58H45.8467C46.0558 111.58 46.2564 111.497 46.4043 111.349C46.5522 111.201 46.6353 111 46.6353 110.791V105.342C46.6353 105.299 46.6187 105.258 46.5889 105.227C46.5591 105.197 46.5185 105.179 46.4758 105.178H13.761C13.7183 105.178 13.6773 105.194 13.6467 105.224C13.616 105.254 13.5983 105.295 13.5971 105.337Z" fill="#FF5050"/>
<path d="M78.814 128.589H98.4987C98.5361 128.588 98.573 128.579 98.6066 128.563C98.6402 128.547 98.6697 128.523 98.693 128.494C98.7163 128.464 98.7329 128.43 98.7414 128.394C98.75 128.357 98.7503 128.32 98.7424 128.283C98.5416 127.361 98.3392 126.443 98.1354 125.527C98.1234 125.471 98.0927 125.421 98.0485 125.385C98.0042 125.349 97.949 125.329 97.8918 125.328H76.8469C76.8003 125.328 76.7547 125.342 76.715 125.366C76.6753 125.391 76.6431 125.425 76.6217 125.467C76.6003 125.508 76.5906 125.555 76.5935 125.601C76.5965 125.648 76.6121 125.693 76.6387 125.731L78.6102 128.482C78.6334 128.515 78.6639 128.542 78.6993 128.56C78.7348 128.579 78.7741 128.588 78.814 128.589Z" fill="#FF5050"/>
<path opacity="0.2" d="M78.8141 128.589H98.5032C98.5403 128.589 98.577 128.581 98.6105 128.565C98.644 128.549 98.6734 128.525 98.6965 128.496C98.7196 128.467 98.7357 128.433 98.7437 128.397C98.7516 128.361 98.7512 128.323 98.7424 128.287C98.5386 127.361 98.3304 126.44 98.1222 125.514C98.1086 125.459 98.0773 125.41 98.0333 125.375C97.9893 125.34 97.9349 125.32 97.8785 125.319H76.8203C76.7746 125.319 76.7299 125.332 76.691 125.356C76.6521 125.38 76.6206 125.414 76.6 125.455C76.5794 125.496 76.5704 125.541 76.5741 125.587C76.5778 125.633 76.594 125.676 76.621 125.713L78.597 128.478C78.6206 128.513 78.6529 128.542 78.691 128.562C78.729 128.581 78.7714 128.59 78.8141 128.589Z" fill="black"/>
<path d="M70.0594 94.917H32.9628C32.7666 94.9175 32.573 94.9614 32.3957 95.0455L30.7875 95.8164C33.8357 106.745 36.8853 117.663 39.9365 128.571L77.0817 128.669L79.1641 128.589C76.2842 117.513 73.5373 106.436 70.6619 95.3601C70.6234 95.2307 70.5437 95.1175 70.435 95.0375C70.3262 94.9576 70.1944 94.9153 70.0594 94.917Z" fill="#FF5050"/>
<path opacity="0.2" d="M77.0817 128.668L39.9365 128.571C36.8853 117.642 33.8357 106.724 30.7875 95.8162H68.6638L77.0817 128.668Z" fill="black"/>
<path opacity="0.2" d="M32.2938 95.0985L30.7963 95.8163H68.6726L70.179 95.0941C70.1986 95.085 70.2144 95.0693 70.2237 95.0498C70.2329 95.0303 70.2352 95.0082 70.2299 94.9872C70.2247 94.9663 70.2123 94.9478 70.1949 94.935C70.1776 94.9221 70.1563 94.9157 70.1347 94.9169H33.0958C32.8182 94.9164 32.5441 94.9785 32.2938 95.0985Z" fill="white"/>
<path d="M55.7755 110.907C55.8458 111.657 55.6921 112.411 55.3336 113.074C54.9752 113.737 54.4282 114.279 53.7618 114.631C53.0954 114.983 52.3395 115.13 51.5898 115.052C50.8401 114.975 50.1303 114.677 49.55 114.196C48.9698 113.714 48.5453 113.072 48.3302 112.35C48.115 111.628 48.119 110.858 48.3415 110.137C48.564 109.417 48.995 108.779 49.5801 108.304C50.1652 107.829 50.8781 107.538 51.6285 107.468C52.1266 107.421 52.6291 107.473 53.1073 107.621C53.5854 107.768 54.0297 108.008 54.4149 108.328C54.8001 108.647 55.1185 109.039 55.352 109.482C55.5854 109.924 55.7293 110.408 55.7755 110.907Z" fill="#FF5050"/>
<path opacity="0.4" d="M70.6575 95.3643L79.1641 128.593L77.0817 128.673L68.6638 95.8206L70.1259 95.1206C70.1762 95.0966 70.2312 95.0839 70.287 95.0835C70.3428 95.0831 70.398 95.0949 70.4487 95.1181C70.4994 95.1414 70.5444 95.1755 70.5804 95.218C70.6165 95.2605 70.6428 95.3105 70.6575 95.3643Z" fill="black"/>
</svg>
