<svg width="35" height="34" viewBox="0 0 35 34" fill="none" xmlns="http://www.w3.org/2000/svg">
<g opacity="0.5" filter="url(#filter0_bd_192_6115)">
<path d="M16.1413 20.0711C18.942 20.8215 21.8208 19.1595 22.5712 16.3588C23.3216 13.5581 21.6596 10.6793 18.8589 9.92887C16.0582 9.17842 13.1794 10.8405 12.429 13.6412C11.6785 16.4419 13.3406 19.3206 16.1413 20.0711Z" stroke="black" stroke-width="2" stroke-linecap="round" stroke-linejoin="round"/>
<path d="M25.6631 16.411L26.9716 15.2611C27.0566 15.1872 27.1242 15.0955 27.1698 14.9925C27.2154 14.8895 27.2377 14.7777 27.2352 14.6651C27.2145 14.0381 27.1328 13.4146 26.9914 12.8034C26.9647 12.6942 26.9143 12.5923 26.8437 12.5048C26.7731 12.4174 26.684 12.3466 26.5829 12.2975L25.0198 11.5247L24.2699 10.2256L24.3821 8.48552C24.3901 8.3734 24.3734 8.26088 24.3329 8.156C24.2925 8.05112 24.2294 7.95645 24.1482 7.87877C23.6895 7.45071 23.1904 7.06827 22.6577 6.73684C22.5615 6.67838 22.4535 6.64183 22.3415 6.62979C22.2295 6.61775 22.1163 6.6305 22.0098 6.66715L20.3598 7.22533L18.9109 6.8371L17.761 5.5287C17.6871 5.44372 17.5954 5.37604 17.4924 5.33048C17.3894 5.28493 17.2777 5.2626 17.1651 5.2651C16.5381 5.28579 15.9146 5.36742 15.3034 5.50882C15.1942 5.53547 15.0922 5.5859 15.0047 5.65652C14.9173 5.72714 14.8465 5.8162 14.7974 5.91734L14.0246 7.48035L12.7255 8.2304L10.9855 8.11813C10.8734 8.11005 10.7609 8.12682 10.656 8.16726C10.5511 8.20769 10.4564 8.27078 10.3788 8.35202C9.95066 8.81063 9.56818 9.3098 9.23672 9.84246C9.17826 9.93872 9.14172 10.0467 9.12968 10.1586C9.11764 10.2706 9.1304 10.3839 9.16705 10.4904L9.72523 12.1404L9.337 13.5893L8.02859 14.7391C7.94361 14.813 7.87594 14.9047 7.83038 15.0077C7.78482 15.1107 7.7625 15.2225 7.76499 15.3351C7.78566 15.9621 7.86728 16.5856 8.0087 17.1968C8.03535 17.306 8.08579 17.408 8.1564 17.4954C8.22702 17.5829 8.31607 17.6537 8.4172 17.7027L9.98031 18.4756L10.7303 19.7747L10.618 21.5148C10.6099 21.6269 10.6267 21.7394 10.6671 21.8443C10.7076 21.9492 10.7706 22.0438 10.8519 22.1215C11.3105 22.5496 11.8096 22.932 12.3423 23.2634C12.4385 23.3219 12.5465 23.3584 12.6585 23.3705C12.7704 23.3825 12.8837 23.3698 12.9902 23.3331L14.6403 22.7749L16.0892 23.1632L17.2391 24.4717C17.313 24.5567 17.4047 24.6243 17.5077 24.6699C17.6107 24.7155 17.7224 24.7378 17.835 24.7353C18.462 24.7146 19.0855 24.633 19.6967 24.4916C19.8059 24.4649 19.9079 24.4145 19.9953 24.3439C20.0828 24.2732 20.1536 24.1842 20.2026 24.0831L20.9755 22.5199L22.2745 21.7699L24.0147 21.8822C24.1268 21.8902 24.2393 21.8735 24.3442 21.833C24.4491 21.7926 24.5437 21.7295 24.6214 21.6483C25.0495 21.1897 25.432 20.6906 25.7634 20.1579C25.8219 20.0617 25.8584 19.9537 25.8704 19.8417C25.8825 19.7298 25.8697 19.6165 25.8331 19.51L25.2748 17.8599L25.6631 16.411Z" stroke="black" stroke-width="2" stroke-linecap="round" stroke-linejoin="round"/>
</g>
<defs>
<filter id="filter0_bd_192_6115" x="-14.5" y="-17" width="64" height="64" filterUnits="userSpaceOnUse" color-interpolation-filters="sRGB">
<feFlood flood-opacity="0" result="BackgroundImageFix"/>
<feGaussianBlur in="BackgroundImageFix" stdDeviation="10"/>
<feComposite in2="SourceAlpha" operator="in" result="effect1_backgroundBlur_192_6115"/>
<feColorMatrix in="SourceAlpha" type="matrix" values="0 0 0 0 0 0 0 0 0 0 0 0 0 0 0 0 0 0 127 0" result="hardAlpha"/>
<feOffset dy="2"/>
<feGaussianBlur stdDeviation="3"/>
<feColorMatrix type="matrix" values="0 0 0 0 0 0 0 0 0 0 0 0 0 0 0 0 0 0 0.2 0"/>
<feBlend mode="normal" in2="effect1_backgroundBlur_192_6115" result="effect2_dropShadow_192_6115"/>
<feBlend mode="normal" in="SourceGraphic" in2="effect2_dropShadow_192_6115" result="shape"/>
</filter>
</defs>
</svg>
