<svg width="20" height="21" viewBox="0 0 20 21" fill="none" xmlns="http://www.w3.org/2000/svg">
<path d="M19.7493 0.242734C19.6368 0.130777 19.4947 0.0532625 19.3397 0.0193039C19.1846 -0.0146548 19.0231 -0.00364566 18.8742 0.0510369L0.53788 6.71877C0.379745 6.77875 0.243599 6.88542 0.147526 7.02462C0.0514537 7.16381 0 7.32894 0 7.49806C0 7.66719 0.0514537 7.83232 0.147526 7.97151C0.243599 8.1107 0.379745 8.21737 0.53788 8.27736L8.53916 11.4779L11.7397 19.4792C11.7998 19.6303 11.9029 19.7606 12.0362 19.8539C12.1695 19.9472 12.3272 19.9995 12.4898 20.0042C12.6582 20.0008 12.8217 19.9464 12.9585 19.8482C13.0954 19.75 13.1993 19.6126 13.2566 19.4541L19.9243 1.11787C19.9811 0.970415 19.9948 0.80985 19.9638 0.654903C19.9328 0.499956 19.8584 0.357011 19.7493 0.242734ZM12.4898 16.8371L10.1644 11.0028L14.1567 7.01049L12.9815 5.8353L8.9559 9.86094L3.15497 7.50223L17.7656 2.22639L12.4898 16.8371Z" fill="#808080"/>
</svg>
