<svg width="18" height="18" viewBox="0 0 18 18" fill="none" xmlns="http://www.w3.org/2000/svg">
<path d="M11.7 6L6 6C5.7875 6 5.6095 5.92825 5.466 5.78475C5.322 5.64075 5.25 5.4625 5.25 5.25C5.25 5.0375 5.322 4.85925 5.466 4.71525C5.6095 4.57175 5.7875 4.5 6 4.5L13.5 4.5C13.7125 4.5 13.8907 4.57175 14.0347 4.71525C14.1782 4.85925 14.25 5.0375 14.25 5.25L14.25 12.75C14.25 12.9625 14.1782 13.1405 14.0347 13.284C13.8907 13.428 13.7125 13.5 13.5 13.5C13.2875 13.5 13.1092 13.428 12.9652 13.284C12.8217 13.1405 12.75 12.9625 12.75 12.75L12.75 7.05L6.075 13.725C5.9375 13.8625 5.7625 13.9313 5.55 13.9313C5.3375 13.9313 5.1625 13.8625 5.025 13.725C4.8875 13.5875 4.81875 13.4125 4.81875 13.2C4.81875 12.9875 4.8875 12.8125 5.025 12.675L11.7 6Z" fill="#FF5050"/>
</svg>
