<svg width="18" height="18" viewBox="0 0 18 18" fill="none" xmlns="http://www.w3.org/2000/svg">
<path d="M14.25 13.275V14.625C14.25 14.725 14.2875 14.8125 14.3625 14.8875C14.4375 14.9625 14.525 15 14.625 15C14.725 15 14.8125 14.9625 14.8875 14.8875C14.9625 14.8125 15 14.725 15 14.625V12.375C15 12.275 14.9625 12.1875 14.8875 12.1125C14.8125 12.0375 14.725 12 14.625 12H12.375C12.275 12 12.1875 12.0375 12.1125 12.1125C12.0375 12.1875 12 12.275 12 12.375C12 12.475 12.0375 12.5625 12.1125 12.6375C12.1875 12.7125 12.275 12.75 12.375 12.75H13.725L11.8875 14.5875C11.8125 14.6625 11.775 14.75 11.775 14.85C11.775 14.95 11.8125 15.0375 11.8875 15.1125C11.9625 15.1875 12.05 15.225 12.15 15.225C12.25 15.225 12.3375 15.1875 12.4125 15.1125L14.25 13.275ZM3.75 15.75C3.3375 15.75 2.98425 15.6033 2.69025 15.3097C2.39675 15.0157 2.25 14.6625 2.25 14.25V3.75C2.25 3.3375 2.39675 2.98425 2.69025 2.69025C2.98425 2.39675 3.3375 2.25 3.75 2.25H14.25C14.6625 2.25 15.0157 2.39675 15.3097 2.69025C15.6033 2.98425 15.75 3.3375 15.75 3.75V8.775C15.5125 8.6625 15.2688 8.5655 15.0187 8.484C14.7687 8.403 14.5125 8.34375 14.25 8.30625V3.75H3.75V14.25H8.2875C8.325 14.525 8.3845 14.7875 8.466 15.0375C8.547 15.2875 8.64375 15.525 8.75625 15.75H3.75ZM3.75 13.5V14.25V3.75V8.30625V8.25V13.5ZM5.25 12C5.25 12.2125 5.32175 12.3905 5.46525 12.534C5.60925 12.678 5.7875 12.75 6 12.75H8.30625C8.34375 12.4875 8.403 12.2313 8.484 11.9813C8.5655 11.7312 8.65625 11.4875 8.75625 11.25H6C5.7875 11.25 5.60925 11.3217 5.46525 11.4653C5.32175 11.6093 5.25 11.7875 5.25 12ZM5.25 9C5.25 9.2125 5.32175 9.3905 5.46525 9.534C5.60925 9.678 5.7875 9.75 6 9.75H9.825C10.225 9.375 10.6718 9.0625 11.1652 8.8125C11.6593 8.5625 12.1875 8.39375 12.75 8.30625C12.6375 8.28125 12.5125 8.2655 12.375 8.259C12.2375 8.253 12.1125 8.25 12 8.25H6C5.7875 8.25 5.60925 8.32175 5.46525 8.46525C5.32175 8.60925 5.25 8.7875 5.25 9ZM5.25 6C5.25 6.2125 5.32175 6.3905 5.46525 6.534C5.60925 6.678 5.7875 6.75 6 6.75H12C12.2125 6.75 12.3905 6.678 12.534 6.534C12.678 6.3905 12.75 6.2125 12.75 6C12.75 5.7875 12.678 5.60925 12.534 5.46525C12.3905 5.32175 12.2125 5.25 12 5.25H6C5.7875 5.25 5.60925 5.32175 5.46525 5.46525C5.32175 5.60925 5.25 5.7875 5.25 6ZM13.5 17.25C12.4625 17.25 11.5782 16.8845 10.8472 16.1535C10.1158 15.422 9.75 14.5375 9.75 13.5C9.75 12.4625 10.1158 11.578 10.8472 10.8465C11.5782 10.1155 12.4625 9.75 13.5 9.75C14.5375 9.75 15.422 10.1155 16.1535 10.8465C16.8845 11.578 17.25 12.4625 17.25 13.5C17.25 14.5375 16.8845 15.422 16.1535 16.1535C15.422 16.8845 14.5375 17.25 13.5 17.25Z" fill="#FF5050"/>
</svg>
