<svg width="18" height="18" viewBox="0 0 18 18" fill="none" xmlns="http://www.w3.org/2000/svg">
<path d="M12 11.7L12 6C12 5.7875 12.0717 5.6095 12.2152 5.466C12.3592 5.322 12.5375 5.25 12.75 5.25C12.9625 5.25 13.1407 5.322 13.2847 5.466C13.4282 5.6095 13.5 5.7875 13.5 6L13.5 13.5C13.5 13.7125 13.4282 13.8907 13.2847 14.0347C13.1407 14.1782 12.9625 14.25 12.75 14.25L5.25 14.25C5.0375 14.25 4.8595 14.1783 4.716 14.0348C4.572 13.8908 4.5 13.7125 4.5 13.5C4.5 13.2875 4.572 13.1093 4.716 12.9653C4.8595 12.8218 5.0375 12.75 5.25 12.75L10.95 12.75L4.275 6.075C4.1375 5.9375 4.06875 5.7625 4.06875 5.55C4.06875 5.3375 4.1375 5.1625 4.275 5.025C4.4125 4.8875 4.5875 4.81875 4.8 4.81875C5.0125 4.81875 5.1875 4.8875 5.325 5.025L12 11.7Z" fill="#008000"/>
</svg>
