<svg width="14" height="35" viewBox="0 0 14 35" fill="none" xmlns="http://www.w3.org/2000/svg">
<path d="M6.30654 26.0431C6.30654 26.0431 8.00956 22.3287 6.06274 18.6645C4.11592 15.0004 3.55303 14.1399 4.79354 13.387C6.03406 12.6341 6.60413 16.3198 6.60413 16.3198C7.2175 14.6554 7.28034 12.8381 6.78339 11.1354C5.92292 8.48587 5.38154 4.16917 6.55752 3.70666C7.73349 3.24416 6.78339 9.08462 7.80878 11.0852C8.32881 9.6849 8.66505 8.22305 8.80908 6.73625C8.94891 4.60658 8.73021 1.20771 9.6588 0.336482C10.5874 -0.534746 11.1861 0.0675865 10.2719 4.76433C9.7224 7.57211 9.41889 10.4225 9.3648 13.283C9.3648 13.283 11.3833 7.11988 12.7422 6.94061C14.101 6.76135 14.0974 8.75477 12.9358 10.4865C11.7741 12.2182 9.53332 15.3195 9.16761 16.9149C9.16761 16.9149 11.3869 12.2755 13.3803 13.6881C15.3738 15.1007 11.6451 17.908 9.98147 18.9227C8.31789 19.9373 7.16343 26.2761 7.16343 26.2761L6.30654 26.0431Z" fill="#FF5050"/>
<path opacity="0.2" d="M6.30654 26.0431C6.30654 26.0431 8.00956 22.3287 6.06274 18.6645C4.11592 15.0004 3.55303 14.1399 4.79354 13.387C6.03406 12.6341 6.60413 16.3198 6.60413 16.3198C7.2175 14.6554 7.28034 12.8381 6.78339 11.1354C5.92292 8.48587 5.38154 4.16917 6.55752 3.70666C7.73349 3.24416 6.78339 9.08462 7.80878 11.0852C8.32881 9.6849 8.66505 8.22305 8.80908 6.73625C8.94891 4.60658 8.73021 1.20771 9.6588 0.336482C10.5874 -0.534746 11.1861 0.0675865 10.2719 4.76433C9.7224 7.57211 9.41889 10.4225 9.3648 13.283C9.3648 13.283 11.3833 7.11988 12.7422 6.94061C14.101 6.76135 14.0974 8.75477 12.9358 10.4865C11.7741 12.2182 9.53332 15.3195 9.16761 16.9149C9.16761 16.9149 11.3869 12.2755 13.3803 13.6881C15.3738 15.1007 11.6451 17.908 9.98147 18.9227C8.31789 19.9373 7.16343 26.2761 7.16343 26.2761L6.30654 26.0431Z" fill="black"/>
<path d="M7.65102 27.5669C7.65102 27.5669 5.99103 23.8274 7.98087 20.1919C9.97071 16.5564 10.5444 15.7031 9.3146 14.9358C8.08485 14.1686 7.46818 17.8399 7.46818 17.8399C6.87403 16.1692 6.83255 14.3517 7.34985 12.6556C8.24259 10.0168 8.83776 5.70728 7.66536 5.22685C6.49297 4.74642 7.37495 10.6048 6.32804 12.5875C5.82431 11.1802 5.50496 9.71351 5.37794 8.22416C5.26321 6.09449 5.52493 2.69921 4.60351 1.81364C3.68209 0.928068 3.07976 1.52323 3.94023 6.23432C4.45551 9.04749 4.72424 11.9003 4.74334 14.7602C4.74334 14.7602 2.79652 8.56835 1.44486 8.37116C0.0932038 8.17397 0.0681053 10.1638 1.20823 11.9134C2.34836 13.6631 4.54974 16.7966 4.90827 18.3957C4.90827 18.3957 2.75708 13.7348 0.734969 15.1187C-1.28714 16.5026 2.42007 19.3637 4.06931 20.4034C5.71854 21.4432 6.8013 27.7999 6.8013 27.7999L7.65102 27.5669Z" fill="#FF5050"/>
<path d="M0 24.8994H13.6994L12.5916 34.7052H1.10786L0 24.8994Z" fill="#22408B"/>
</svg>
