<svg width="52" height="32" viewBox="0 0 52 32" fill="none" xmlns="http://www.w3.org/2000/svg">
<path d="M51.0067 17.5803C51.0067 15.2897 49.8149 13.2251 47.9054 11.7365C47.9692 11.4364 48.0018 11.1306 48.0028 10.8238C48.0028 7.77119 44.9015 5.29455 41.0514 5.22366C39.8862 2.27738 36.3905 0.137451 32.2613 0.137451C28.9694 0.137451 26.0807 1.49761 24.4547 3.5445C24.0424 3.48556 23.6263 3.45595 23.2098 3.45589C19.2799 3.45589 16.09 5.96355 16.09 9.05604C16.0911 9.58205 16.1841 10.1038 16.3647 10.5979C13.8614 11.927 12.2089 14.1422 12.2089 16.7031C12.2089 19.1531 13.7418 21.3241 16.0944 22.6577C16.0922 22.6842 16.0922 22.7109 16.0944 22.7374C16.0944 25.7369 19.0983 28.1869 22.8686 28.3287C24.951 30.3623 28.1365 31.6604 31.7296 31.6604C34.0774 31.6794 36.3895 31.0854 38.4374 29.937C38.752 29.968 39.0754 29.9901 39.4033 29.9901C43.3375 29.9901 46.523 27.4825 46.523 24.39V24.3324C49.2168 22.857 51.0067 20.3804 51.0067 17.5803Z" fill="#FF5050"/>
<path d="M3.90609 24.5716C3.90609 25.2495 3.12189 25.7989 2.13389 25.7989C1.14589 25.7989 0.361694 25.2495 0.361694 24.5716C0.361694 23.8937 1.14589 23.3444 2.13389 23.3444C3.12189 23.3444 3.90609 23.8937 3.90609 24.5716Z" fill="#FF5050"/>
<path d="M9.90943 20.088C9.90943 21.1203 8.70877 21.9577 7.22455 21.9577C5.74034 21.9577 4.53967 21.1203 4.53967 20.088C4.53967 19.0557 5.74477 18.2183 7.22455 18.2183C8.70434 18.2183 9.90943 19.0557 9.90943 20.088Z" fill="#FF5050"/>
<path opacity="0.6" d="M51.0067 17.5803C51.0067 15.2897 49.8149 13.2251 47.9054 11.7365C47.9692 11.4364 48.0018 11.1306 48.0028 10.8238C48.0028 7.77119 44.9015 5.29455 41.0514 5.22366C39.8862 2.27738 36.3905 0.137451 32.2613 0.137451C28.9694 0.137451 26.0807 1.49761 24.4547 3.5445C24.0424 3.48556 23.6263 3.45595 23.2098 3.45589C19.2799 3.45589 16.09 5.96355 16.09 9.05604C16.0911 9.58205 16.1841 10.1038 16.3647 10.5979C13.8614 11.927 12.2089 14.1422 12.2089 16.7031C12.2089 19.1531 13.7418 21.3241 16.0944 22.6577C16.0922 22.6842 16.0922 22.7109 16.0944 22.7374C16.0944 25.7369 19.0983 28.1869 22.8686 28.3287C24.951 30.3623 28.1365 31.6604 31.7296 31.6604C34.0774 31.6794 36.3895 31.0854 38.4374 29.937C38.752 29.968 39.0754 29.9901 39.4033 29.9901C43.3375 29.9901 46.523 27.4825 46.523 24.39V24.3324C49.2168 22.857 51.0067 20.3804 51.0067 17.5803Z" fill="white"/>
<path opacity="0.6" d="M3.90609 24.5716C3.90609 25.2495 3.12189 25.7989 2.13389 25.7989C1.14589 25.7989 0.361694 25.2495 0.361694 24.5716C0.361694 23.8937 1.14589 23.3444 2.13389 23.3444C3.12189 23.3444 3.90609 23.8937 3.90609 24.5716Z" fill="white"/>
<path opacity="0.6" d="M9.90943 20.088C9.90943 21.1203 8.70877 21.9577 7.22455 21.9577C5.74034 21.9577 4.53967 21.1203 4.53967 20.088C4.53967 19.0557 5.74477 18.2183 7.22455 18.2183C8.70434 18.2183 9.90943 19.0557 9.90943 20.088Z" fill="white"/>
<path d="M26.8605 9.87122H19.6388V13.3359H26.8605V9.87122Z" fill="#FF5050"/>
<path opacity="0.8" d="M26.8605 9.87122H19.6388V13.3359H26.8605V9.87122Z" fill="white"/>
<path d="M34.9462 9.87122H27.7245V13.3359H34.9462V9.87122Z" fill="#FF5050"/>
<path opacity="0.8" d="M34.9462 9.87122H27.7245V13.3359H34.9462V9.87122Z" fill="white"/>
<path d="M43.0363 9.87122H35.8146V13.3359H43.0363V9.87122Z" fill="#FF5050"/>
<path opacity="0.8" d="M43.0363 9.87122H35.8146V13.3359H43.0363V9.87122Z" fill="white"/>
<path d="M23.068 14.0093H15.8463V17.474H23.068V14.0093Z" fill="#FF5050"/>
<path opacity="0.8" d="M23.068 14.0093H15.8463V17.474H23.068V14.0093Z" fill="white"/>
<path d="M31.1492 14.0093H23.9275V17.474H31.1492V14.0093Z" fill="#FF5050"/>
<path opacity="0.8" d="M31.1492 14.0093H23.9275V17.474H31.1492V14.0093Z" fill="white"/>
<path d="M39.2438 14.0093H32.0221V17.474H39.2438V14.0093Z" fill="#FF5050"/>
<path opacity="0.8" d="M39.2438 14.0093H32.0221V17.474H39.2438V14.0093Z" fill="white"/>
<path d="M47.3693 14.0093H40.1476V17.474H47.3693V14.0093Z" fill="#FF5050"/>
<path opacity="0.8" d="M47.3693 14.0093H40.1476V17.474H47.3693V14.0093Z" fill="white"/>
<path d="M26.8605 18.3557H19.6388V21.8203H26.8605V18.3557Z" fill="#FF5050"/>
<path opacity="0.8" d="M26.8605 18.3557H19.6388V21.8203H26.8605V18.3557Z" fill="white"/>
<path d="M34.9462 18.3557H27.7245V21.8203H34.9462V18.3557Z" fill="#FF5050"/>
<path opacity="0.8" d="M34.9462 18.3557H27.7245V21.8203H34.9462V18.3557Z" fill="white"/>
<path d="M43.0363 18.3557H35.8146V21.8203H43.0363V18.3557Z" fill="#FF5050"/>
<path opacity="0.8" d="M43.0363 18.3557H35.8146V21.8203H43.0363V18.3557Z" fill="white"/>
<path d="M30.7151 5.73315H23.4934V9.1978H30.7151V5.73315Z" fill="#FF5050"/>
<path opacity="0.8" d="M30.7151 5.73315H23.4934V9.1978H30.7151V5.73315Z" fill="white"/>
<path d="M38.8096 5.73315H31.5879V9.1978H38.8096V5.73315Z" fill="#FF5050"/>
<path opacity="0.8" d="M38.8096 5.73315H31.5879V9.1978H38.8096V5.73315Z" fill="white"/>
<path d="M31.1492 22.4937H23.9275V25.9584H31.1492V22.4937Z" fill="#FF5050"/>
<path opacity="0.8" d="M31.1492 22.4937H23.9275V25.9584H31.1492V22.4937Z" fill="white"/>
<path d="M39.2438 22.4937H32.0221V25.9584H39.2438V22.4937Z" fill="#FF5050"/>
<path opacity="0.8" d="M39.2438 22.4937H32.0221V25.9584H39.2438V22.4937Z" fill="white"/>
<path d="M33.8208 12.6757C33.7853 11.2713 32.5802 10.3364 30.6884 10.3675C28.8719 10.394 27.5649 11.1118 26.7408 12.3523L24.3218 10.8149C25.6509 8.8921 27.8219 7.71358 30.8922 7.66042C34.4986 7.61168 36.9531 9.2554 37.0329 12.1308C37.1481 16.2157 32.9612 16.6499 33.0454 19.605L29.9441 19.6493C29.8112 15.941 33.8916 15.179 33.8208 12.6757ZM29.6384 23.6855C29.6268 23.429 29.668 23.1729 29.7595 22.933C29.851 22.6931 29.9908 22.4746 30.1703 22.2909C30.3498 22.1073 30.565 21.9625 30.8028 21.8656C31.0405 21.7686 31.2957 21.7215 31.5524 21.7272C31.8089 21.7178 32.0648 21.7598 32.3048 21.8507C32.5449 21.9417 32.7643 22.0799 32.9501 22.257C33.136 22.4342 33.2844 22.6468 33.3868 22.8822C33.4891 23.1176 33.5433 23.3712 33.5461 23.6279C33.5587 23.8835 33.5192 24.139 33.43 24.3788C33.3408 24.6186 33.2038 24.8378 33.0273 25.0231C32.8507 25.2083 32.6384 25.3557 32.4031 25.4563C32.1678 25.5569 31.9146 25.6087 31.6587 25.6084C31.399 25.6178 31.14 25.5753 30.897 25.4832C30.654 25.3912 30.4319 25.2515 30.2437 25.0723C30.0554 24.8932 29.9049 24.6782 29.801 24.4401C29.697 24.2019 29.6417 23.9454 29.6384 23.6855Z" fill="#FF5050"/>
</svg>
