<svg width="22" height="22" viewBox="0 0 22 22" fill="none" xmlns="http://www.w3.org/2000/svg">
<path d="M16.9864 11.6111L4.88889 3.05554V18.9444H16.9864L9.72766 11.6111H16.9864Z" fill="#22408B"/>
<path d="M15.2778 11L5.5 4.39755V18.3333H15.2778L8.29522 11H15.2778Z" fill="#DD2F45"/>
<path d="M8.73338 14.6917L9.09149 14.1931L8.48038 14.253L8.54149 13.6418L8.04221 14L7.78921 13.4402L7.53621 14L7.03693 13.6418L7.09743 14.253L6.48632 14.1931L6.84443 14.6917L6.28465 14.9447L6.84443 15.1977L6.48632 15.6964L7.09743 15.6365L7.03693 16.2476L7.53621 15.8895L7.78921 16.4493L8.04221 15.8895L8.54149 16.2476L8.48038 15.6365L9.09149 15.6964L8.73338 15.1977L9.29315 14.9447L8.73338 14.6917ZM7.7886 10.3241L7.78921 10.3253L7.78982 10.3241L7.80082 10.3253C8.69793 10.3253 9.42638 9.63479 9.50215 8.75662C9.28861 9.154 8.94425 9.46532 8.52743 9.63784L8.42049 9.48873L8.79388 9.32007L8.42049 9.1514L8.65943 8.81834L8.25121 8.85868L8.29215 8.45045L7.95849 8.6894L7.78982 8.3154L7.62115 8.6894L7.28749 8.45045L7.32843 8.85868L6.92021 8.81834L7.15915 9.1514L6.78576 9.32007L7.15915 9.48873L7.0571 9.63112C6.64803 9.45679 6.3105 9.14836 6.1001 8.75662C6.13516 9.18148 6.32784 9.57788 6.64027 9.86792C6.9527 10.158 7.3623 10.3207 7.7886 10.3241Z" fill="white"/>
</svg>
