<svg width="19" height="19" viewBox="0 0 19 19" fill="none" xmlns="http://www.w3.org/2000/svg">
<path d="M1.80174 18.0174C1.30626 18.0174 0.881951 17.8411 0.52881 17.4886C0.17627 17.1354 0 16.7111 0 16.2157V3.60348C0 3.108 0.17627 2.68399 0.52881 2.33145C0.881951 1.97831 1.30626 1.80174 1.80174 1.80174H2.70261V0.90087C2.70261 0.645623 2.78879 0.431516 2.96116 0.25855C3.13413 0.0861831 3.34823 0 3.60348 0C3.85872 0 4.07283 0.0861831 4.2458 0.25855C4.41816 0.431516 4.50435 0.645623 4.50435 0.90087V1.80174H11.7113V0.90087C11.7113 0.645623 11.7978 0.431516 11.9708 0.25855C12.1431 0.0861831 12.3569 0 12.6122 0C12.8674 0 13.0812 0.0861831 13.2536 0.25855C13.4266 0.431516 13.513 0.645623 13.513 0.90087V1.80174H14.4139C14.9094 1.80174 15.3337 1.97831 15.6868 2.33145C16.0394 2.68399 16.2157 3.108 16.2157 3.60348V9.0087H14.4139V7.20696H1.80174V16.2157H8.10783V18.0174H1.80174ZM1.80174 5.40522H14.4139V3.60348H1.80174V5.40522ZM17.2291 13.513L15.3148 11.5987L15.9679 10.9456C16.1331 10.7804 16.3433 10.6978 16.5985 10.6978C16.8538 10.6978 17.064 10.7804 17.2291 10.9456L17.8823 11.5987C18.0474 11.7639 18.13 11.9741 18.13 12.2293C18.13 12.4846 18.0474 12.6948 17.8823 12.8599L17.2291 13.513ZM9.90956 18.4678V17.3868C9.90956 17.2667 9.93209 17.1505 9.97713 17.0381C10.0222 16.9252 10.0897 16.8237 10.1798 16.7337L14.6842 12.2293L16.5985 14.1437L12.0942 18.648C12.0041 18.7381 11.9029 18.8057 11.7906 18.8507C11.6777 18.8957 11.5612 18.9183 11.441 18.9183H10.36C10.2399 18.9183 10.1348 18.8732 10.0447 18.7831C9.95461 18.693 9.90956 18.5879 9.90956 18.4678Z" fill="#808080"/>
</svg>
