<svg width="15" height="16" viewBox="0 0 15 16" fill="none" xmlns="http://www.w3.org/2000/svg">
<path d="M12.5 16C11.8056 16 11.2153 15.7667 10.7292 15.3C10.2431 14.8333 10 14.2667 10 13.6C10 13.5067 10.0069 13.4099 10.0208 13.3096C10.0347 13.2099 10.0556 13.12 10.0833 13.04L4.20833 9.76C3.97222 9.96 3.70833 10.1165 3.41667 10.2296C3.125 10.3432 2.81944 10.4 2.5 10.4C1.80556 10.4 1.21528 10.1667 0.729167 9.7C0.243056 9.23333 0 8.66667 0 8C0 7.33333 0.243056 6.76667 0.729167 6.3C1.21528 5.83333 1.80556 5.6 2.5 5.6C2.81944 5.6 3.125 5.65653 3.41667 5.7696C3.70833 5.8832 3.97222 6.04 4.20833 6.24L10.0833 2.96C10.0556 2.88 10.0347 2.79013 10.0208 2.6904C10.0069 2.59013 10 2.49333 10 2.4C10 1.73333 10.2431 1.16667 10.7292 0.7C11.2153 0.233333 11.8056 0 12.5 0C13.1944 0 13.7847 0.233333 14.2708 0.7C14.7569 1.16667 15 1.73333 15 2.4C15 3.06667 14.7569 3.63333 14.2708 4.1C13.7847 4.56667 13.1944 4.8 12.5 4.8C12.1806 4.8 11.875 4.7432 11.5833 4.6296C11.2917 4.51653 11.0278 4.36 10.7917 4.16L4.91667 7.44C4.94444 7.52 4.96528 7.60987 4.97917 7.7096C4.99306 7.80987 5 7.90667 5 8C5 8.09333 4.99306 8.18987 4.97917 8.2896C4.96528 8.38987 4.94444 8.48 4.91667 8.56L10.7917 11.84C11.0278 11.64 11.2917 11.4832 11.5833 11.3696C11.875 11.2565 12.1806 11.2 12.5 11.2C13.1944 11.2 13.7847 11.4333 14.2708 11.9C14.7569 12.3667 15 12.9333 15 13.6C15 14.2667 14.7569 14.8333 14.2708 15.3C13.7847 15.7667 13.1944 16 12.5 16ZM12.5 3.2C12.7361 3.2 12.9339 3.12347 13.0933 2.9704C13.2533 2.8168 13.3333 2.62667 13.3333 2.4C13.3333 2.17333 13.2533 1.9832 13.0933 1.8296C12.9339 1.67653 12.7361 1.6 12.5 1.6C12.2639 1.6 12.0661 1.67653 11.9067 1.8296C11.7467 1.9832 11.6667 2.17333 11.6667 2.4C11.6667 2.62667 11.7467 2.8168 11.9067 2.9704C12.0661 3.12347 12.2639 3.2 12.5 3.2ZM2.5 8.8C2.73611 8.8 2.93417 8.7232 3.09417 8.5696C3.25361 8.41653 3.33333 8.22667 3.33333 8C3.33333 7.77333 3.25361 7.5832 3.09417 7.4296C2.93417 7.27653 2.73611 7.2 2.5 7.2C2.26389 7.2 2.06583 7.27653 1.90583 7.4296C1.74639 7.5832 1.66667 7.77333 1.66667 8C1.66667 8.22667 1.74639 8.41653 1.90583 8.5696C2.06583 8.7232 2.26389 8.8 2.5 8.8ZM12.5 14.4C12.7361 14.4 12.9339 14.3232 13.0933 14.1696C13.2533 14.0165 13.3333 13.8267 13.3333 13.6C13.3333 13.3733 13.2533 13.1835 13.0933 13.0304C12.9339 12.8768 12.7361 12.8 12.5 12.8C12.2639 12.8 12.0661 12.8768 11.9067 13.0304C11.7467 13.1835 11.6667 13.3733 11.6667 13.6C11.6667 13.8267 11.7467 14.0165 11.9067 14.1696C12.0661 14.3232 12.2639 14.4 12.5 14.4Z" fill="#909090"/>
</svg>
