<svg width="16" height="16" viewBox="0 0 16 16" fill="none" xmlns="http://www.w3.org/2000/svg">
<path d="M5.19673 7.59696C5.81262 8.85611 6.83328 9.87213 8.09522 10.4823C8.18755 10.526 8.28968 10.545 8.39156 10.5373C8.49344 10.5296 8.59156 10.4955 8.67625 10.4383L10.5344 9.19929C10.6165 9.14449 10.7111 9.11106 10.8095 9.10202C10.9078 9.09298 11.0069 9.10863 11.0977 9.14754L14.5738 10.6373C14.6919 10.6875 14.7905 10.7747 14.8548 10.8857C14.919 10.9968 14.9454 11.1257 14.93 11.2531C14.8201 12.1129 14.4006 12.9031 13.7501 13.4758C13.0995 14.0486 12.2625 14.3645 11.3958 14.3646C8.71872 14.3646 6.15134 13.3011 4.25839 11.4082C2.36545 9.51524 1.302 6.94785 1.302 4.27082C1.30205 3.40408 1.61802 2.56707 2.19076 1.91651C2.76349 1.26596 3.55372 0.846475 4.41347 0.736602C4.54084 0.721188 4.66977 0.747586 4.78084 0.811817C4.8919 0.876048 4.97908 0.974634 5.02924 1.09272L6.52034 4.57194C6.5589 4.66193 6.57462 4.76006 6.56608 4.8576C6.55755 4.95514 6.52502 5.04905 6.4714 5.13097L5.23667 7.01759C5.18047 7.10246 5.14725 7.20046 5.14025 7.30201C5.13325 7.40355 5.15271 7.50518 5.19673 7.59696V7.59696Z" stroke="black" stroke-width="1.33333" stroke-linecap="round" stroke-linejoin="round"/>
</svg>
