<svg width="12" height="14" viewBox="0 0 12 14" fill="none" xmlns="http://www.w3.org/2000/svg">
<path d="M2.25 14C1.8375 14 1.4845 13.8478 1.191 13.5434C0.897 13.2386 0.75 12.8722 0.75 12.4444V2.33333H0V0.777778H3.75V0H8.25V0.777778H12V2.33333H11.25V12.4444C11.25 12.8722 11.1033 13.2386 10.8097 13.5434C10.5157 13.8478 10.1625 14 9.75 14H2.25ZM9.75 2.33333H2.25V12.4444H9.75V2.33333ZM3.75 10.8889H5.25V3.88889H3.75V10.8889ZM6.75 10.8889H8.25V3.88889H6.75V10.8889ZM2.25 2.33333V12.4444V2.33333Z" fill="#22408B"/>
</svg>
