<svg width="19" height="20" viewBox="0 0 19 20" fill="none" xmlns="http://www.w3.org/2000/svg">
<path d="M11.7495 17.4994V12.9993C11.7495 12.8004 11.6704 12.6096 11.5298 12.469C11.3891 12.3283 11.1984 12.2493 10.9995 12.2493H7.99945C7.80054 12.2493 7.60977 12.3283 7.46912 12.469C7.32847 12.6096 7.24945 12.8004 7.24945 12.9993V17.4994C7.24945 17.6983 7.17045 17.889 7.02981 18.0297C6.88918 18.1703 6.69844 18.2494 6.49954 18.2494L2.00009 18.25C1.90159 18.25 1.80406 18.2306 1.71305 18.1929C1.62205 18.1552 1.53936 18.1 1.4697 18.0304C1.40005 17.9607 1.3448 17.878 1.3071 17.787C1.2694 17.696 1.25 17.5985 1.25 17.5V8.83183C1.25 8.72734 1.27183 8.624 1.3141 8.52844C1.35637 8.43288 1.41814 8.34721 1.49545 8.27691L8.99493 1.45803C9.13299 1.3325 9.31287 1.26295 9.49946 1.26294C9.68605 1.26293 9.86594 1.33248 10.004 1.45799L17.5045 8.27691C17.5818 8.3472 17.6436 8.43288 17.6859 8.52845C17.7282 8.62401 17.75 8.72736 17.75 8.83186V17.5C17.75 17.5985 17.7306 17.696 17.6929 17.787C17.6552 17.878 17.6 17.9607 17.5303 18.0304C17.4606 18.1 17.378 18.1552 17.2869 18.1929C17.1959 18.2306 17.0984 18.25 16.9999 18.25L12.4994 18.2494C12.3005 18.2494 12.1097 18.1703 11.9691 18.0297C11.8285 17.889 11.7494 17.6983 11.7495 17.4994V17.4994Z" stroke="black" stroke-width="2" stroke-linecap="round" stroke-linejoin="round"/>
</svg>
